/* XPM */
static char * system11_xpm[] = {
"32 32 107 2",
"  	c None",
". 	c #020204",
"+ 	c #2A1A14",
"@ 	c #6A463C",
"# 	c #825644",
"$ 	c #7E564C",
"% 	c #5E3A34",
"& 	c #160A04",
"* 	c #1E0E0C",
"= 	c #8E623C",
"- 	c #CE9A6C",
"; 	c #D29664",
"> 	c #DA9A64",
", 	c #BA7644",
"' 	c #763E1C",
") 	c #0A0204",
"! 	c #1E120C",
"~ 	c #9E765C",
"{ 	c #C68E64",
"] 	c #DA8A44",
"^ 	c #CA8244",
"/ 	c #BE722C",
"( 	c #B2661C",
"_ 	c #BA6A2C",
": 	c #924E1C",
"< 	c #120604",
"[ 	c #725644",
"} 	c #C69E7C",
"| 	c #DAA674",
"1 	c #C29264",
"2 	c #CE8A4C",
"3 	c #C27E3C",
"4 	c #C27A3C",
"5 	c #BE6E24",
"6 	c #BA6624",
"7 	c #7E3A14",
"8 	c #9E866C",
"9 	c #C69A74",
"0 	c #B67E4C",
"a 	c #BE7A3C",
"b 	c #BA7634",
"c 	c #BE763C",
"d 	c #C2722C",
"e 	c #CA7634",
"f 	c #CE823C",
"g 	c #CA7A34",
"h 	c #32120C",
"i 	c #3A2A24",
"j 	c #B28A64",
"k 	c #B6865C",
"l 	c #BA824C",
"m 	c #CA7E3C",
"n 	c #D2823C",
"o 	c #C6722C",
"p 	c #6A3214",
"q 	c #3A221C",
"r 	c #92765C",
"s 	c #9A6E4C",
"t 	c #9A6E44",
"u 	c #C6824C",
"v 	c #C67E3C",
"w 	c #E2965C",
"x 	c #D28244",
"y 	c #965634",
"z 	c #7E664C",
"A 	c #8E6A44",
"B 	c #8E6234",
"C 	c #AE723C",
"D 	c #AE6A2C",
"E 	c #D6863C",
"F 	c #DE8E4C",
"G 	c #F2AE6C",
"H 	c #965A3C",
"I 	c #62422C",
"J 	c #82623C",
"K 	c #AA7644",
"L 	c #B27644",
"M 	c #B66E2C",
"N 	c #E69A5C",
"O 	c #DE9254",
"P 	c #663E24",
"Q 	c #765A3C",
"R 	c #926E4C",
"S 	c #E6A66C",
"T 	c #EAA66C",
"U 	c #EEA664",
"V 	c #E29E64",
"W 	c #060204",
"X 	c #4A3A2C",
"Y 	c #8A725C",
"Z 	c #AE8664",
"` 	c #CE9664",
" .	c #DEA26C",
"..	c #EAB27C",
"+.	c #EEB274",
"@.	c #CA8A54",
"#.	c #4A321C",
"$.	c #86725C",
"%.	c #BE9674",
"&.	c #CAA274",
"*.	c #C29A6C",
"=.	c #423224",
"-.	c #1E160C",
";.	c #6A5A44",
">.	c #76624C",
",.	c #4A3E2C",
"'.	c #120E0C",
"                                                                ",
"                                                                ",
"                                                                ",
"                                                                ",
"                                                                ",
"                                                                ",
"                                                                ",
"                            . . . . . .                         ",
"                        . . . + @ # $ % & .                     ",
"                    . . . * = - ; ; ; > , ' )                   ",
"                  . . . ! ~ { > ] ^ ^ / ( _ : <                 ",
"                  . . . [ } | 1 2 3 4 5 5 ^ 6 7                 ",
"                . . . ! 8 9 1 0 a b c d e f g 6 h               ",
"                . . . i 8 j k l a 4 m f n o g e p               ",
"              . . . . q r s t 0 u 3 v w ] e x w y               ",
"              . . . . + z A B C C D D 2 E n F G H               ",
"              . . . . < I J = K L M c m n ] N O P               ",
"              . . . . . q Q R k k 1 S T U V > u <               ",
"              . . . . . W X Y Z `  ...+.T  .@.#..               ",
"                . . . . . ) X $.Z %.} &.*.j =..                 ",
"                . . . . . . . -.X ;.>.;.,.'.. .                 ",
"                  . . . . . . . . . . . . . .                   ",
"                    . . . . . . . . . . . .                     ",
"                        . . . . . . . . .                       ",
"                              . . .                             ",
"                                                                ",
"                                                                ",
"                                                                ",
"                                                                ",
"                                                                ",
"                                                                ",
"                                                                "};
