/* XPM */
static char * system4_xpm[] = {
"32 32 458 2",
"  	c None",
". 	c #653703",
"+ 	c #934F04",
"@ 	c #BF6301",
"# 	c #B05C01",
"$ 	c #BC6700",
"% 	c #995801",
"& 	c #C16200",
"* 	c #9A4E00",
"= 	c #904D01",
"- 	c #C56800",
"; 	c #9B5606",
"> 	c #C26500",
", 	c #9F5400",
"' 	c #D06A00",
") 	c #DE7100",
"! 	c #C86800",
"~ 	c #ED7900",
"{ 	c #CD6800",
"] 	c #B06800",
"^ 	c #965800",
"/ 	c #8C4900",
"( 	c #B66202",
"_ 	c #CB6B00",
": 	c #E17300",
"< 	c #935103",
"[ 	c #8C5100",
"} 	c #995701",
"| 	c #926305",
"1 	c #885907",
"2 	c #B17504",
"3 	c #AA6805",
"4 	c #C36501",
"5 	c #D68500",
"6 	c #DB9300",
"7 	c #917005",
"8 	c #845B00",
"9 	c #B66900",
"0 	c #BD6100",
"a 	c #8F5204",
"b 	c #915300",
"c 	c #8D5100",
"d 	c #945D00",
"e 	c #BB8000",
"f 	c #BC9100",
"g 	c #AE7D04",
"h 	c #C29C02",
"i 	c #A27302",
"j 	c #A16A03",
"k 	c #C98601",
"l 	c #D89800",
"m 	c #CD8C00",
"n 	c #A96E00",
"o 	c #9E7400",
"p 	c #AD6900",
"q 	c #A35E00",
"r 	c #915501",
"s 	c #8F5200",
"t 	c #894D00",
"u 	c #9F6600",
"v 	c #E9A700",
"w 	c #E79700",
"x 	c #ECA100",
"y 	c #D79800",
"z 	c #D2AB00",
"A 	c #AD8E02",
"B 	c #C5A400",
"C 	c #CFA600",
"D 	c #C58900",
"E 	c #BE6E00",
"F 	c #C17000",
"G 	c #A56C03",
"H 	c #A16300",
"I 	c #A45700",
"J 	c #996102",
"K 	c #9E6200",
"L 	c #824900",
"M 	c #8E5900",
"N 	c #EE9100",
"O 	c #F69300",
"P 	c #E48D00",
"Q 	c #DB8D00",
"R 	c #BC7200",
"S 	c #AC6900",
"T 	c #B57702",
"U 	c #AC7703",
"V 	c #D9BC00",
"W 	c #CFAB00",
"X 	c #C07900",
"Y 	c #CA8300",
"Z 	c #D58600",
"` 	c #987706",
" .	c #884900",
"..	c #944F00",
"+.	c #A06000",
"@.	c #945E00",
"#.	c #955700",
"$.	c #BA6C00",
"%.	c #F4A700",
"&.	c #F3BE00",
"*.	c #E99500",
"=.	c #C67300",
"-.	c #C17C00",
";.	c #B46900",
">.	c #A05D00",
",.	c #A96100",
"'.	c #B16D01",
").	c #C38901",
"!.	c #C19900",
"~.	c #CB9900",
"{.	c #DD9100",
"].	c #CF9C00",
"^.	c #7C5202",
"/.	c #9C5701",
"(.	c #AA5E00",
"_.	c #B86D00",
":.	c #CD7700",
"<.	c #DA8C00",
"[.	c #D37A00",
"}.	c #E28C00",
"|.	c #E3A100",
"1.	c #F4C800",
"2.	c #DBA202",
"3.	c #C57C04",
"4.	c #A66B07",
"5.	c #AA6B06",
"6.	c #9B5A02",
"7.	c #975500",
"8.	c #935500",
"9.	c #BD7C01",
"0.	c #E5AD00",
"a.	c #AA7300",
"b.	c #D68900",
"c.	c #BE7900",
"d.	c #A56800",
"e.	c #9A7200",
"f.	c #CF7B00",
"g.	c #CC7803",
"h.	c #E78501",
"i.	c #E28602",
"j.	c #F68F00",
"k.	c #DD8300",
"l.	c #C58401",
"m.	c #E3BA00",
"n.	c #EECD00",
"o.	c #EDC800",
"p.	c #E5BD00",
"q.	c #E9C400",
"r.	c #E0B500",
"s.	c #BD8501",
"t.	c #B76C06",
"u.	c #AF6800",
"v.	c #8F4D00",
"w.	c #A56000",
"x.	c #BA8400",
"y.	c #CB8400",
"z.	c #D28500",
"A.	c #B57B00",
"B.	c #D89000",
"C.	c #DE7F00",
"D.	c #C88601",
"E.	c #EC8C00",
"F.	c #EE8C00",
"G.	c #DE9300",
"H.	c #D59901",
"I.	c #E0AA00",
"J.	c #EAC901",
"K.	c #E5C700",
"L.	c #ECB400",
"M.	c #E2B100",
"N.	c #D8AD00",
"O.	c #F1C800",
"P.	c #F3C900",
"Q.	c #BB8403",
"R.	c #C17200",
"S.	c #925000",
"T.	c #8B4D00",
"U.	c #CD8300",
"V.	c #C88100",
"W.	c #C67E00",
"X.	c #CD8500",
"Y.	c #A06E00",
"Z.	c #C76F00",
"`.	c #D57900",
" +	c #E29200",
".+	c #E58D01",
"++	c #E7A300",
"@+	c #E8BC00",
"#+	c #F1CF00",
"$+	c #F4D400",
"%+	c #E4C200",
"&+	c #EDAE00",
"*+	c #CA7A00",
"=+	c #AE6A04",
"-+	c #B26B02",
";+	c #B77802",
">+	c #CD9103",
",+	c #D79E01",
"'+	c #B97201",
")+	c #A65800",
"!+	c #874A00",
"~+	c #B06600",
"{+	c #D88500",
"]+	c #C27B00",
"^+	c #C17A00",
"/+	c #DA8300",
"(+	c #E87B00",
"_+	c #EA7F00",
":+	c #DB8F02",
"<+	c #D18C03",
"[+	c #DEA800",
"}+	c #F0CE00",
"|+	c #F0CD00",
"1+	c #F4D200",
"2+	c #ECA200",
"3+	c #F08D00",
"4+	c #DD8200",
"5+	c #A25E02",
"6+	c #A35A00",
"7+	c #B07003",
"8+	c #D28301",
"9+	c #CB8B01",
"0+	c #A86603",
"a+	c #924F00",
"b+	c #894E00",
"c+	c #E29400",
"d+	c #CE8300",
"e+	c #CB7700",
"f+	c #DB7D00",
"g+	c #DD7A00",
"h+	c #E18000",
"i+	c #DD9702",
"j+	c #E19E00",
"k+	c #EFCA00",
"l+	c #EDC500",
"m+	c #E7B600",
"n+	c #E7A900",
"o+	c #EDA500",
"p+	c #B17300",
"q+	c #915201",
"r+	c #9B5600",
"s+	c #9D5400",
"t+	c #985800",
"u+	c #AA6B02",
"v+	c #C78303",
"w+	c #B67804",
"x+	c #B87B04",
"y+	c #6F3B00",
"z+	c #CB7D00",
"A+	c #DB8C00",
"B+	c #D27A00",
"C+	c #DC7E00",
"D+	c #CE7601",
"E+	c #DD8001",
"F+	c #DA9402",
"G+	c #F0C300",
"H+	c #EDB300",
"I+	c #E9B700",
"J+	c #E8B900",
"K+	c #C77F00",
"L+	c #A46400",
"M+	c #975800",
"N+	c #A86C02",
"O+	c #A55E01",
"P+	c #965200",
"Q+	c #975200",
"R+	c #995900",
"S+	c #AE7100",
"T+	c #AE7101",
"U+	c #844A00",
"V+	c #6B3800",
"W+	c #885300",
"X+	c #9E6500",
"Y+	c #D17C00",
"Z+	c #C77A00",
"`+	c #BA7600",
" @	c #DA8E00",
".@	c #DA8A02",
"+@	c #E39B01",
"@@	c #E8A402",
"#@	c #F4BC00",
"$@	c #F1BD00",
"%@	c #F0B700",
"&@	c #E19D00",
"*@	c #DC8C00",
"=@	c #D88801",
"-@	c #CF8701",
";@	c #B77303",
">@	c #A66002",
",@	c #9D5B00",
"'@	c #8A4A00",
")@	c #834500",
"!@	c #734100",
"~@	c #774100",
"{@	c #743D00",
"]@	c #713E00",
"^@	c #936100",
"/@	c #C57B00",
"(@	c #C07700",
"_@	c #A67700",
":@	c #DF9F00",
"<@	c #DF8A02",
"[@	c #E39700",
"}@	c #F1AE00",
"|@	c #F6BC00",
"1@	c #F9C100",
"2@	c #F7BB00",
"3@	c #F7A600",
"4@	c #DEA400",
"5@	c #C78502",
"6@	c #BE7101",
"7@	c #C17401",
"8@	c #C38402",
"9@	c #AC6F01",
"0@	c #844E01",
"a@	c #7F4A00",
"b@	c #844D00",
"c@	c #975700",
"d@	c #7E4600",
"e@	c #7B4800",
"f@	c #BE7600",
"g@	c #835200",
"h@	c #E38400",
"i@	c #F18400",
"j@	c #E29401",
"k@	c #EEA000",
"l@	c #DF8A00",
"m@	c #DF8F00",
"n@	c #F4B300",
"o@	c #EEBF00",
"p@	c #F1D001",
"q@	c #EBC901",
"r@	c #D2A103",
"s@	c #C28A02",
"t@	c #C67B01",
"u@	c #C68702",
"v@	c #B87D03",
"w@	c #BD7B03",
"x@	c #C08103",
"y@	c #C88B00",
"z@	c #AF6C00",
"A@	c #7E4700",
"B@	c #824C00",
"C@	c #B16F00",
"D@	c #B66800",
"E@	c #EB8600",
"F@	c #E29703",
"G@	c #EEA100",
"H@	c #E9A000",
"I@	c #D98200",
"J@	c #E98B00",
"K@	c #F39C00",
"L@	c #E8B600",
"M@	c #ECCB00",
"N@	c #E4C301",
"O@	c #DCBB02",
"P@	c #D4B403",
"Q@	c #EAB700",
"R@	c #DBA800",
"S@	c #C38701",
"T@	c #C78301",
"U@	c #B87300",
"V@	c #6B3C00",
"W@	c #845000",
"X@	c #825102",
"Y@	c #D47D00",
"Z@	c #E38600",
"`@	c #E89800",
" #	c #ECA000",
".#	c #DE8E00",
"+#	c #D97800",
"@#	c #E58200",
"##	c #E59601",
"$#	c #E8C001",
"%#	c #E4C101",
"&#	c #E0C101",
"*#	c #E0C300",
"=#	c #E1C200",
"-#	c #D7B800",
";#	c #DFA900",
">#	c #E19001",
",#	c #DE9200",
"'#	c #8E5200",
")#	c #713B00",
"!#	c #A55703",
"~#	c #B07300",
"{#	c #D77E00",
"]#	c #E47B00",
"^#	c #DD9403",
"/#	c #E19B02",
"(#	c #EEA200",
"_#	c #DD7D00",
":#	c #E08700",
"<#	c #E2B401",
"[#	c #DAA901",
"}#	c #CF9900",
"|#	c #D18E00",
"1#	c #D1A100",
"2#	c #D37E00",
"3#	c #E58900",
"4#	c #EA9300",
"5#	c #BF7700",
"6#	c #8B4C00",
"7#	c #954E00",
"8#	c #854500",
"9#	c #B97800",
"0#	c #DC8800",
"a#	c #E39100",
"b#	c #DA8A03",
"c#	c #DC9B02",
"d#	c #E6B000",
"e#	c #ECA600",
"f#	c #F0A200",
"g#	c #F39600",
"h#	c #F09200",
"i#	c #DF7A00",
"j#	c #DC8000",
"k#	c #DF7F00",
"l#	c #EF9200",
"m#	c #E69B00",
"n#	c #C16E00",
"o#	c #9D5200",
"p#	c #733C01",
"q#	c #A16800",
"r#	c #E18D00",
"s#	c #E38201",
"t#	c #F38100",
"u#	c #E6A000",
"v#	c #E8A400",
"w#	c #DC9600",
"x#	c #E58A00",
"y#	c #E08600",
"z#	c #DD7F00",
"A#	c #E18300",
"B#	c #E28900",
"C#	c #B47401",
"D#	c #AB5F04",
"E#	c #723D01",
"F#	c #AE6401",
"G#	c #DC7E02",
"H#	c #CF8502",
"I#	c #CD7901",
"J#	c #E27B00",
"K#	c #DB7700",
"L#	c #D07900",
"M#	c #E58600",
"N#	c #C87900",
"O#	c #BC7402",
"P#	c #AB6F04",
"Q#	c #855802",
"R#	c #AB7E00",
"S#	c #B46F00",
"T#	c #C16E02",
"U#	c #CC7202",
"V#	c #C26E03",
"W#	c #C16A03",
"X#	c #925703",
"Y#	c #7E5102",
"                                                                ",
"                                                                ",
"                                                                ",
"                                                                ",
"                        . + @ # $ % & *                         ",
"                    = - ; > , ' ) ! ~ { ] ^                     ",
"                / ( _ : < [ } | 1 2 3 4 5 6 7                   ",
"              8 9 0 a b c d e f g h i j k l m n                 ",
"            o p q r s t u v w x y z A B C D E F G               ",
"            H I J K L M N O P Q R S T U V W X Y Z `             ",
"           ...} +.@.#.$.%.&.*.=.-.;.>.,.'.).!.~.{.].^.          ",
"          /.(._.:.<.[.}.|.1.2.3.4.5.6.7.8.9.0.a.b.c.d.          ",
"        e.f.g.h.i.j.k.l.m.n.o.p.q.r.s.t.u.v.w.x.y.z.A.          ",
"        B.C.D.E.F.G.H.I.J.K.L.M.N.O.P.Q.R.S.T.U.V.W.X.Y.        ",
"        Z.`. +.+++@+#+$+%+&+*+=+-+;+>+,+'+)+!+~+{+]+^+/+        ",
"        (+_+:+<+[+}+|+1+2+3+4+5+6+7+8+x 9+0+a+b+c+d+e+f+        ",
"        g+h+i+j+k+l+m+n+o+p+q+r+s+t+u+v+w+x+(.y+z+A+B+C+        ",
"        D+E+F+j+G+H+I+J+K+L+M+N+O+P+Q+R+S+T+U+V+W+X+Y+Z+        ",
"        `+ @.@+@@@#@$@%@&@*@=@-@;@>@,@'@)@!@~@{@]@^@/@(@        ",
"        _@:@<@[@}@|@1@$@2@3@4@5@6@7@8@9@0@a@b@c@d@e@f@g@        ",
"          h@i@j@k@l@m@n@o@p@q@r@s@t@u@v@w@x@y@z@A@B@C@          ",
"          D@E@F@G@H@I@J@K@L@M@N@O@P@Q@R@S@T@x U@V@W@X@          ",
"            Y@Z@`@ #.#+#@###$#%#&#*#=#-#;#>#,#'#)#!#            ",
"            ~#{#]#^#/#(#_#:#<#[#}#|#1#2#3#4#5#6#7#8#            ",
"              9#0#a#b#c#d#e#f#g#h#i#j#k#l#m#n#o#p#              ",
"                q#r#s#t#u#v#w#{.x#y#z#A#B#C#D#E#                ",
"                    F#G#H#I#J#K#L#M#N#O#P#Q#                    ",
"                        R#S#T#U#V#W#X#Y#                        ",
"                                                                ",
"                                                                ",
"                                                                ",
"                                                                "};
