/* XPM */
static char * system16_xpm[] = {
"32 32 698 2",
"  	c None",
". 	c #7D4C01",
"+ 	c #8D6102",
"@ 	c #AE8303",
"# 	c #C19403",
"$ 	c #C49302",
"% 	c #CB9802",
"& 	c #C39102",
"* 	c #B97E00",
"= 	c #B06300",
"- 	c #AB4A00",
"; 	c #945602",
"> 	c #AC6A03",
", 	c #AF7102",
"' 	c #BA7B00",
") 	c #D09000",
"! 	c #D79900",
"~ 	c #CF9600",
"{ 	c #D8A700",
"] 	c #DAA800",
"^ 	c #CF9500",
"/ 	c #C77F01",
"( 	c #CB7B01",
"_ 	c #DBA001",
": 	c #B78501",
"< 	c #9F7C03",
"[ 	c #A46A02",
"} 	c #B26D01",
"| 	c #CD8601",
"1 	c #D28F00",
"2 	c #D49400",
"3 	c #DC9800",
"4 	c #DF9900",
"5 	c #DC9500",
"6 	c #DC8F00",
"7 	c #DD8B00",
"8 	c #DD8200",
"9 	c #DD7A00",
"0 	c #DF8300",
"a 	c #E9B300",
"b 	c #D39B00",
"c 	c #D69000",
"d 	c #C77B00",
"e 	c #836900",
"f 	c #AA8202",
"g 	c #BF7A01",
"h 	c #D48200",
"i 	c #E59A00",
"j 	c #E0A000",
"k 	c #DD9E00",
"l 	c #DE9F00",
"m 	c #E39E00",
"n 	c #E89700",
"o 	c #E58900",
"p 	c #E47D00",
"q 	c #E77400",
"r 	c #E86E00",
"s 	c #E67200",
"t 	c #E99F00",
"u 	c #E19B01",
"v 	c #E09000",
"w 	c #D18100",
"x 	c #B87100",
"y 	c #806800",
"z 	c #997B00",
"A 	c #B88600",
"B 	c #D78400",
"C 	c #E98C00",
"D 	c #E99C00",
"E 	c #DC9F00",
"F 	c #DA8F00",
"G 	c #DB9700",
"H 	c #E19900",
"I 	c #EA8F00",
"J 	c #ED8C00",
"K 	c #ED7A00",
"L 	c #EB7800",
"M 	c #E77200",
"N 	c #E36800",
"O 	c #DF7001",
"P 	c #DC8102",
"Q 	c #DF8601",
"R 	c #E08C00",
"S 	c #D78E00",
"T 	c #BE7400",
"U 	c #8B7100",
"V 	c #927600",
"W 	c #8B6A00",
"X 	c #B47600",
"Y 	c #D88700",
"Z 	c #E89500",
"` 	c #D38F00",
" .	c #D15A00",
"..	c #D16100",
"+.	c #D06600",
"@.	c #D15600",
"#.	c #DA5001",
"$.	c #E04B01",
"%.	c #E07600",
"&.	c #DE9A00",
"*.	c #E09A00",
"=.	c #ED7D00",
"-.	c #E37601",
";.	c #DE7902",
">.	c #DF9101",
",.	c #E1AC00",
"'.	c #D69500",
").	c #B77000",
"!.	c #9E8102",
"~.	c #8F7501",
"{.	c #7C6300",
"].	c #8D6600",
"^.	c #C87800",
"/.	c #DE8400",
"(.	c #E17A00",
"_.	c #DE5E00",
":.	c #D64100",
"<.	c #DC3700",
"[.	c #DD3600",
"}.	c #DD3700",
"|.	c #E23B01",
"1.	c #E53F01",
"2.	c #E56A00",
"3.	c #E39300",
"4.	c #E2A400",
"5.	c #DD9C00",
"6.	c #DE8800",
"7.	c #E47F00",
"8.	c #E88400",
"9.	c #E59100",
"0.	c #D08E00",
"a.	c #8C6401",
"b.	c #826100",
"c.	c #785A00",
"d.	c #A76D00",
"e.	c #D97900",
"f.	c #D97B00",
"g.	c #D06F00",
"h.	c #D05900",
"i.	c #D94300",
"j.	c #E34300",
"k.	c #DE3801",
"l.	c #DA3001",
"m.	c #DE3101",
"n.	c #E43300",
"o.	c #E93600",
"p.	c #E85200",
"q.	c #E97A00",
"r.	c #EB9B00",
"s.	c #E2A100",
"t.	c #DC9200",
"u.	c #E48300",
"v.	c #EA7D00",
"w.	c #E98300",
"x.	c #E28A01",
"y.	c #E19D00",
"z.	c #CD9400",
"A.	c #945D01",
"B.	c #8A5B00",
"C.	c #7C5800",
"D.	c #7F5B00",
"E.	c #B47200",
"F.	c #D57200",
"G.	c #CE7101",
"H.	c #C26C01",
"I.	c #C36601",
"J.	c #CC5901",
"K.	c #D85A00",
"L.	c #D35501",
"M.	c #CF4D02",
"N.	c #D34201",
"O.	c #DC3D01",
"P.	c #E83300",
"Q.	c #EB3C00",
"R.	c #ED5700",
"S.	c #F07900",
"T.	c #ED8A00",
"U.	c #DE8C00",
"V.	c #E18600",
"W.	c #E88100",
"X.	c #EB7F00",
"Y.	c #E28102",
"Z.	c #EBA700",
"`.	c #D69C00",
" +	c #C88F00",
".+	c #B16E00",
"++	c #946200",
"@+	c #7F5C00",
"#+	c #866000",
"$+	c #AA6F00",
"%+	c #B76600",
"&+	c #B56601",
"*+	c #B26902",
"=+	c #B26C02",
"-+	c #B56402",
";+	c #C26A02",
">+	c #C57801",
",+	c #C37501",
"'+	c #C46302",
")+	c #CF5602",
"!+	c #E34101",
"~+	c #EE3F00",
"{+	c #F14700",
"]+	c #F05200",
"^+	c #F36500",
"/+	c #E77900",
"(+	c #E38100",
"_+	c #E88200",
":+	c #EC7E00",
"<+	c #E28000",
"[+	c #E69F00",
"}+	c #DB8D00",
"|+	c #835300",
"1+	c #B27100",
"2+	c #956300",
"3+	c #7C5A00",
"4+	c #836200",
"5+	c #976B00",
"6+	c #875E00",
"7+	c #815B00",
"8+	c #805A00",
"9+	c #8B5E01",
"0+	c #AB6601",
"a+	c #BE6901",
"b+	c #C17701",
"c+	c #BF8301",
"d+	c #BF7F01",
"e+	c #C76F01",
"f+	c #D96100",
"g+	c #ED7600",
"h+	c #F77800",
"i+	c #F55E00",
"j+	c #F15300",
"k+	c #F75800",
"l+	c #F75C00",
"m+	c #F36400",
"n+	c #EE7200",
"o+	c #E27D00",
"p+	c #DF8C01",
"q+	c #DF7800",
"r+	c #C85E00",
"s+	c #A64D00",
"t+	c #B37200",
"u+	c #C07900",
"v+	c #A36300",
"w+	c #835500",
"x+	c #755A00",
"y+	c #7A6000",
"z+	c #795D00",
"A+	c #775900",
"B+	c #7A5C00",
"C+	c #856800",
"D+	c #906B00",
"E+	c #A06D00",
"F+	c #A87501",
"G+	c #B07902",
"H+	c #BC7702",
"I+	c #CD7701",
"J+	c #D67C00",
"K+	c #DE8200",
"L+	c #E27B00",
"M+	c #E76A00",
"N+	c #F05A00",
"O+	c #F25500",
"P+	c #F35800",
"Q+	c #F06300",
"R+	c #E87301",
"S+	c #E27800",
"T+	c #DC8501",
"U+	c #DA7F00",
"V+	c #CC7400",
"W+	c #B66A00",
"X+	c #C47F00",
"Y+	c #CA8500",
"Z+	c #AD6C00",
"`+	c #8E5900",
" @	c #7B5800",
".@	c #6E5A00",
"+@	c #7B5E00",
"@@	c #8C5F00",
"#@	c #986200",
"$@	c #9A6800",
"%@	c #936C00",
"&@	c #987100",
"*@	c #9B7400",
"=@	c #A27501",
"-@	c #AE7401",
";@	c #B76D01",
">@	c #B27400",
",@	c #B67600",
"'@	c #C37500",
")@	c #D66E00",
"!@	c #EB5100",
"~@	c #EE5800",
"{@	c #EE5A00",
"]@	c #EA5D00",
"^@	c #E17200",
"/@	c #DB7A01",
"(@	c #DB8901",
"_@	c #D38C00",
":@	c #C68700",
"<@	c #CF8E00",
"[@	c #D19100",
"}@	c #C17D00",
"|@	c #AE6C00",
"1@	c #976600",
"2@	c #6C5700",
"3@	c #A56A01",
"4@	c #B16701",
"5@	c #B06A01",
"6@	c #AB6F01",
"7@	c #A17000",
"8@	c #997000",
"9@	c #A17600",
"0@	c #A26B01",
"a@	c #976A00",
"b@	c #A06900",
"c@	c #BB7000",
"d@	c #D97000",
"e@	c #E75500",
"f@	c #E85000",
"g@	c #EB5000",
"h@	c #EE4A00",
"i@	c #EC4A00",
"j@	c #E06E00",
"k@	c #DC7401",
"l@	c #DD8F01",
"m@	c #DA9E00",
"n@	c #D49D00",
"o@	c #DB9F00",
"p@	c #D29600",
"q@	c #D58900",
"r@	c #BD7B00",
"s@	c #745B00",
"t@	c #9B7700",
"u@	c #AE7202",
"v@	c #B66B03",
"w@	c #BE6D03",
"x@	c #CE7502",
"y@	c #B77001",
"z@	c #A56E01",
"A@	c #9D7200",
"B@	c #9D7A00",
"C@	c #9C7500",
"D@	c #9F7300",
"E@	c #B17400",
"F@	c #D07600",
"G@	c #EC7200",
"H@	c #E95A00",
"I@	c #E84D00",
"J@	c #EB4000",
"K@	c #EC3C00",
"L@	c #E84800",
"M@	c #DD6E00",
"N@	c #DC7501",
"O@	c #E09400",
"P@	c #E1AA00",
"Q@	c #DFAC00",
"R@	c #CE9100",
"S@	c #CC8300",
"T@	c #D68000",
"U@	c #D07C00",
"V@	c #896400",
"W@	c #906F00",
"X@	c #9F7101",
"Y@	c #B56F02",
"Z@	c #D16E00",
"`@	c #EB7C00",
" #	c #D78300",
".#	c #BD7702",
"+#	c #AA7301",
"@#	c #A27900",
"##	c #A27401",
"$#	c #D19200",
"%#	c #E8A200",
"&#	c #EE9500",
"*#	c #ED6C00",
"=#	c #F33200",
"-#	c #F03300",
";#	c #F03400",
">#	c #E84100",
",#	c #DB5D00",
"'#	c #D17602",
")#	c #D97E02",
"!#	c #E4A000",
"~#	c #E9B700",
"{#	c #E8BA00",
"]#	c #DA9500",
"^#	c #C78000",
"/#	c #C37900",
"(#	c #CD8000",
"_#	c #D08600",
":#	c #A87900",
"<#	c #8F6D00",
"[#	c #9A7700",
"}#	c #AF7C00",
"|#	c #C27200",
"1#	c #DB6300",
"2#	c #D06A02",
"3#	c #BF6C02",
"4#	c #B27001",
"5#	c #AE7902",
"6#	c #AB7503",
"7#	c #C68500",
"8#	c #E07C00",
"9#	c #EA5F00",
"0#	c #E83D00",
"a#	c #F32F00",
"b#	c #F13200",
"c#	c #EC3B00",
"d#	c #E75100",
"e#	c #E47200",
"f#	c #E18F01",
"g#	c #E08600",
"h#	c #D49E00",
"i#	c #CD9B00",
"j#	c #B76C00",
"k#	c #C47500",
"l#	c #C57700",
"m#	c #C87B00",
"n#	c #CB7E00",
"o#	c #946C00",
"p#	c #937200",
"q#	c #A87C00",
"r#	c #BF7900",
"s#	c #C65E02",
"t#	c #DD5101",
"u#	c #DD4F00",
"v#	c #D35400",
"w#	c #C95900",
"x#	c #CD5D01",
"y#	c #DA6900",
"z#	c #E45400",
"A#	c #E73C00",
"B#	c #E73600",
"C#	c #E74600",
"D#	c #E14E00",
"E#	c #E15D00",
"F#	c #E57700",
"G#	c #EA9200",
"H#	c #D67F00",
"I#	c #D78F00",
"J#	c #D69300",
"K#	c #D18300",
"L#	c #9F5300",
"M#	c #BE6B00",
"N#	c #C77600",
"O#	c #CA7A00",
"P#	c #C87500",
"Q#	c #C56E00",
"R#	c #9F6E00",
"S#	c #926F00",
"T#	c #B97B00",
"U#	c #B96D04",
"V#	c #D65201",
"W#	c #E54500",
"X#	c #E54000",
"Y#	c #DF4000",
"Z#	c #E34700",
"`#	c #EA4B00",
" $	c #EA3A00",
".$	c #E83200",
"+$	c #E33F00",
"@$	c #D56000",
"#$	c #D77300",
"$$	c #E9A200",
"%$	c #E9A300",
"&$	c #D08501",
"*$	c #D28D00",
"=$	c #CE8300",
"-$	c #BF6200",
";$	c #B16100",
">$	c #CD7C00",
",$	c #C87200",
"'$	c #B65900",
")$	c #B26A00",
"!$	c #A26F00",
"~$	c #9F7200",
"{$	c #AA7600",
"]$	c #B08104",
"^$	c #B56701",
"/$	c #C85401",
"($	c #D74801",
"_$	c #DC4301",
":$	c #DE4A00",
"<$	c #E74200",
"[$	c #EC3900",
"}$	c #EA3D00",
"|$	c #DE5100",
"1$	c #CA7400",
"2$	c #D79000",
"3$	c #E79F00",
"4$	c #E89F00",
"5$	c #DD9B01",
"6$	c #CA9102",
"7$	c #C48A01",
"8$	c #B56F00",
"9$	c #9A4000",
"0$	c #A56700",
"a$	c #B46F00",
"b$	c #C77800",
"c$	c #CD7A00",
"d$	c #AA5B00",
"e$	c #D95B00",
"f$	c #CD6600",
"g$	c #AC6B00",
"h$	c #936A00",
"i$	c #967000",
"j$	c #9A7001",
"k$	c #A36F04",
"l$	c #A86D06",
"m$	c #AC6E06",
"n$	c #C57E03",
"o$	c #D66502",
"p$	c #EA4E00",
"q$	c #ED5400",
"r$	c #E27300",
"s$	c #E19100",
"t$	c #D59600",
"u$	c #D78A00",
"v$	c #D48800",
"w$	c #C88C00",
"x$	c #B77E00",
"y$	c #AC8000",
"z$	c #A17A00",
"A$	c #9C7601",
"B$	c #AF5400",
"C$	c #D26800",
"D$	c #D67600",
"E$	c #C45300",
"F$	c #C74700",
"G$	c #C45600",
"H$	c #B86700",
"I$	c #A97100",
"J$	c #A57800",
"K$	c #A07300",
"L$	c #AA7700",
"M$	c #B57601",
"N$	c #BD7601",
"O$	c #C58800",
"P$	c #DF8400",
"Q$	c #EE6600",
"R$	c #F26300",
"S$	c #E77E00",
"T$	c #C18600",
"U$	c #A77500",
"V$	c #A16800",
"W$	c #A46900",
"X$	c #A77300",
"Y$	c #997700",
"Z$	c #907100",
"`$	c #8B6D00",
" %	c #A34403",
".%	c #BE5C02",
"+%	c #D57C00",
"@%	c #CA6700",
"#%	c #C26200",
"$%	c #C65100",
"%%	c #C94700",
"&%	c #C24C00",
"*%	c #AA6601",
"=%	c #AC6B01",
"-%	c #AE7200",
";%	c #B57700",
">%	c #C27C00",
",%	c #D28500",
"'%	c #E28E00",
")%	c #EE8A00",
"!%	c #F38B00",
"~%	c #E08900",
"{%	c #9F6A00",
"]%	c #8D6400",
"^%	c #936200",
"/%	c #9A6200",
"(%	c #9C6901",
"_%	c #9F7A00",
":%	c #9C7000",
"<%	c #946D00",
"[%	c #AE5A03",
"}%	c #C27600",
"|%	c #C67E00",
"1%	c #C07D00",
"2%	c #C65E00",
"3%	c #CE4000",
"4%	c #CE3800",
"5%	c #B64A01",
"6%	c #B25001",
"7%	c #B75700",
"8%	c #BF6500",
"9%	c #CC7600",
"0%	c #E17F00",
"a%	c #E48A00",
"b%	c #EC8F00",
"c%	c #E38B00",
"d%	c #8B5D00",
"e%	c #886200",
"f%	c #916400",
"g%	c #9A6600",
"h%	c #9F6C00",
"i%	c #A77C00",
"j%	c #A16100",
"k%	c #AA6A02",
"l%	c #BC8200",
"m%	c #C08200",
"n%	c #C57000",
"o%	c #CA5A00",
"p%	c #CA4700",
"q%	c #BD3B00",
"r%	c #AE3801",
"s%	c #C03B01",
"t%	c #CE4C00",
"u%	c #D26500",
"v%	c #E27000",
"w%	c #DF7C00",
"x%	c #DA7100",
"y%	c #986300",
"z%	c #8A6600",
"A%	c #8E6700",
"B%	c #956C00",
"C%	c #A67500",
"D%	c #A46800",
"E%	c #9F4D00",
"F%	c #A96200",
"G%	c #C56900",
"H%	c #D36A00",
"I%	c #D26C00",
"J%	c #C16D01",
"K%	c #A15E02",
"L%	c #A15202",
"M%	c #B54502",
"N%	c #B94602",
"O%	c #B05103",
"P%	c #BB4400",
"Q%	c #BB5C00",
"R%	c #A35E00",
"S%	c #916000",
"T%	c #906800",
"U%	c #8F6A03",
"V%	c #AA8801",
"W%	c #BA9200",
"X%	c #AB7400",
"Y%	c #834300",
"Z%	c #9D4403",
"`%	c #C16001",
" &	c #D77900",
".&	c #CE8500",
"+&	c #BC9301",
"@&	c #AC7303",
"#&	c #AF6303",
"$&	c #A55A04",
"%&	c #915405",
"&&	c #9A5003",
"*&	c #9E6701",
"=&	c #946600",
"-&	c #8F6700",
";&	c #9E7A01",
">&	c #D0AA00",
",&	c #C29B00",
"'&	c #BA9501",
")&	c #A98600",
"!&	c #AA6301",
"~&	c #B77500",
"{&	c #C18700",
"]&	c #C9A700",
"^&	c #D0A501",
"/&	c #C69501",
"(&	c #BD8D02",
"_&	c #BA9002",
":&	c #B78901",
"<&	c #A17B00",
"[&	c #A68200",
"}&	c #A48001",
"|&	c #A38003",
"1&	c #AF8C00",
"2&	c #AC8901",
"3&	c #A07000",
"4&	c #B28200",
"5&	c #B89A00",
"6&	c #D4B100",
"7&	c #C49F00",
"8&	c #C09900",
"9&	c #CDA700",
"0&	c #C3A100",
"a&	c #B08F00",
"b&	c #AD8D01",
"c&	c #9E7F02",
"d&	c #8D7004",
"e&	c #C49E00",
"f&	c #9A7A00",
"g&	c #998000",
"h&	c #B99B00",
"i&	c #A98300",
"j&	c #B99000",
"k&	c #B09001",
"l&	c #BC9A01",
"m&	c #A48602",
"n&	c #806803",
"o&	c #655103",
"                                                                ",
"                      . + @ # $ % & * = -                       ",
"                  ; > , ' ) ! ~ { ] ^ / ( _ :                   ",
"              < [ } | 1 2 3 4 5 6 7 8 9 0 a b c d               ",
"            e f g h i j k l m n o p q r s t u v w x             ",
"          y z A B C D E F G H I J K L M N O P Q R S T           ",
"        U V W X Y Z H `  ...+.@.#.$.%.&.*.=.-.;.>.,.'.).        ",
"      !.~.{.].^./.(._.:.<.[.<.}.|.1.2.3.4.5.6.7.8.9.*.0.        ",
"      a.b.c.d.e.f.g.h.i.j.k.l.m.n.o.p.q.r.s.t.u.v.w.x.y.z.      ",
"    A.B.C.D.E.F.G.H.I.J.K.L.M.N.O.P.Q.R.S.T.U.V.W.X.Y.Z.`. +    ",
"    .+++@+#+$+%+&+*+=+-+;+>+,+'+)+!+~+{+]+^+/+(+_+:+<+Z.[+}+    ",
"  |+1+2+3+4+5+6+7+8+9+0+a+b+c+d+e+f+g+h+i+j+k+l+m+n+o+p+q+r+s+  ",
"  t+u+v+w+x+y+z+A+B+C+D+E+F+G+H+I+J+K+L+M+N+O+P+Q+R+S+T+U+V+W+  ",
"  X+Y+Z+`+ @.@+@@@#@$@%@&@*@=@-@;@>@,@'@)@!@!@~@{@]@^@/@(@_@:@  ",
"  <@[@}@|@1@2@W 3@4@5@6@7@8@*@9@0@a@b@c@d@e@f@g@h@i@j@k@l@m@n@  ",
"  o@p@q@h r@s@t@u@v@w@x@y@z@A@B@C@D@E@F@G@H@I@J@K@L@M@N@O@P@Q@  ",
"  o@R@S@T@U@V@W@X@Y@Z@`@ #.#+#@###$#%#&#*#=#-#;#>#,#'#)#!#~#{#  ",
"  ]#^#/#(#_#:#<#[#}#|#1#2#3#4#5#6#7#8#9#0#a#b#c#d#e#f#g#5 h#i#  ",
"  j#k#l#m#n#}@o#p#q#r#s#t#u#v#w#x#y#z#A#B#C#D#E#F#G#D H#I#J#K#  ",
"  L#M#N#O#P#Q#R#S#9@T#U#V#W#X#Y#Z#`# $.$+$@$#$V.n $$%$&$*$=$-$  ",
"    ;$|#>$,$'$)$!$~${$]$^$/$($_$:$<$[$}$|$1$2$3$4$5$k 6$7$8$9$  ",
"    0$a$b$c$d$e$f$g$h$i$j$k$l$m$n$o$p$q$r$s$t$u$v$w$x$y$z$A$    ",
"      B$C$D$E$F$G$H$I$J$K$L$M$N$O$P$Q$R$S$T$U$V$W$X$D@Y$Z$`$    ",
"       %.%+%@%#%$%%%&%*%=%-%;%>%,%'%)%!%~%{%]%^%/%(%_%:%<%      ",
"        [%}%|%1%2%3%4%5%6%7%8%9%0%a%b%c%}@d%e%f%g%h%i%j%y       ",
"        [%k%l%m%n%o%p%q%r%s%t%u%v%w%x%8%y%z%A%B%D@C%D%E%        ",
"          [%F%G%H%I%J%K%L%M%N%O%P%Q%R%S%].T%U%V%W%X%Y%          ",
"            [%Z%`% &.&+&@&#&$&%&&&*&=&-&;&>&,&'&)&p#            ",
"                !&~&{&]&^&/&(&_&:&<&[&}&|&>&1&2&                ",
"                  3&4&5&6&7&8&9&0&a&b&c&d&e&f&                  ",
"                      g&h&i&i%j&k&l&m&n&o&                      ",
"                                                                "};
