/* XPM */
static char * system6_xpm[] = {
"32 32 544 2",
"  	c None",
". 	c #7E2802",
"+ 	c #921C03",
"@ 	c #C11303",
"# 	c #C21A03",
"$ 	c #CC1902",
"% 	c #C11B02",
"& 	c #B42E00",
"* 	c #AB5A00",
"= 	c #853002",
"- 	c #AB3804",
"; 	c #BC3002",
"> 	c #C82D00",
", 	c #E52A00",
"' 	c #D02300",
") 	c #DB1100",
"! 	c #E21200",
"~ 	c #CD2801",
"{ 	c #CF3F02",
"] 	c #DC2002",
"^ 	c #AE1A01",
"/ 	c #720701",
"( 	c #AB1204",
"_ 	c #B43901",
": 	c #E23300",
"< 	c #E12600",
"[ 	c #DD2100",
"} 	c #E02F00",
"| 	c #E53200",
"1 	c #DD4D00",
"2 	c #DC5900",
"3 	c #E86C00",
"4 	c #E66500",
"5 	c #F30C00",
"6 	c #E32101",
"7 	c #E13E00",
"8 	c #A13400",
"9 	c #730401",
"0 	c #9D0600",
"a 	c #C11B00",
"b 	c #E65800",
"c 	c #EF3800",
"d 	c #DF1F00",
"e 	c #DC2600",
"f 	c #DF1500",
"g 	c #F03800",
"h 	c #F33E00",
"i 	c #F05D00",
"j 	c #EC6B00",
"k 	c #E68A00",
"l 	c #DC6402",
"m 	c #DA3E03",
"n 	c #E34600",
"o 	c #DC3700",
"p 	c #B93D00",
"q 	c #850400",
"r 	c #950400",
"s 	c #8B0D00",
"t 	c #BF3200",
"u 	c #EA4200",
"v 	c #E52F00",
"w 	c #D32C00",
"x 	c #D17F00",
"y 	c #D15400",
"z 	c #CF6E00",
"A 	c #DA8701",
"B 	c #E29701",
"C 	c #E03200",
"D 	c #DD1E00",
"E 	c #EE5F00",
"F 	c #E15F02",
"G 	c #DD5203",
"H 	c #E41100",
"I 	c #D72700",
"J 	c #B03A00",
"K 	c #A50703",
"L 	c #710300",
"M 	c #8E1800",
"N 	c #DE4E00",
"O 	c #E14501",
"P 	c #DF8200",
"Q 	c #D7AE00",
"R 	c #E1BA00",
"S 	c #E0BD00",
"T 	c #E0B801",
"U 	c #E4B301",
"V 	c #E8AD01",
"W 	c #E54F01",
"X 	c #E52000",
"Y 	c #D91700",
"Z 	c #DE4300",
"` 	c #EC5D00",
" .	c #E84F00",
"..	c #E32C00",
"+.	c #D42700",
"@.	c #822302",
"#.	c #841D00",
"$.	c #6B0C00",
"%.	c #B83300",
"&.	c #EC6000",
"*.	c #C74501",
"=.	c #C35401",
"-.	c #DB8500",
";.	c #EA9500",
">.	c #D4A703",
",.	c #DCAF02",
"'.	c #E4B801",
").	c #ECC200",
"!.	c #E89400",
"~.	c #F34C00",
"{.	c #E92F00",
"].	c #D92D00",
"^.	c #E96100",
"/.	c #EE5E00",
"(.	c #E25403",
"_.	c #EB2100",
":.	c #B61A00",
"<.	c #B13200",
"[.	c #821600",
"}.	c #7E1100",
"|.	c #AF2D00",
"1.	c #C85600",
"2.	c #C04903",
"3.	c #BD3D03",
"4.	c #B84903",
"5.	c #C64F02",
"6.	c #C63301",
"7.	c #C25B02",
"8.	c #D27F03",
"9.	c #EBBF01",
"0.	c #F1C701",
"a.	c #EEA400",
"b.	c #F48000",
"c.	c #DF4400",
"d.	c #DF3900",
"e.	c #EE5C00",
"f.	c #E24E01",
"g.	c #F11600",
"h.	c #E32700",
"i.	c #832300",
"j.	c #BE3200",
"k.	c #7B1600",
"l.	c #7E0D00",
"m.	c #971900",
"n.	c #841800",
"o.	c #7F1500",
"p.	c #841901",
"q.	c #AC3701",
"r.	c #C34D02",
"s.	c #C12A01",
"t.	c #BE2501",
"u.	c #C74902",
"v.	c #DE7800",
"w.	c #F75E00",
"x.	c #F78E00",
"y.	c #F19C00",
"z.	c #F99A00",
"A.	c #F69300",
"B.	c #F17700",
"C.	c #E35400",
"D.	c #DF3902",
"E.	c #DF6A00",
"F.	c #A65100",
"G.	c #C03100",
"H.	c #C53600",
"I.	c #933400",
"J.	c #710B00",
"K.	c #740400",
"L.	c #770A00",
"M.	c #730F00",
"N.	c #830500",
"O.	c #8A0800",
"P.	c #9D1A00",
"Q.	c #A61B02",
"R.	c #B73303",
"S.	c #CF4601",
"T.	c #D83D01",
"U.	c #DC4200",
"V.	c #E16300",
"W.	c #F08D00",
"X.	c #F49400",
"Y.	c #E86A02",
"Z.	c #E35C01",
"`.	c #DA4002",
" +	c #DA4900",
".+	c #BA3700",
"++	c #C73000",
"@+	c #D12A00",
"#+	c #9E3000",
"$+	c #882000",
"%+	c #6B0300",
"&+	c #841000",
"*+	c #AE3901",
"=+	c #AE3800",
"-+	c #991B00",
";+	c #970D00",
">+	c #960D00",
",+	c #A51801",
"'+	c #A83502",
")+	c #971A00",
"!+	c #A42700",
"~+	c #C73C00",
"{+	c #E89C00",
"]+	c #E99600",
"^+	c #ED8900",
"/+	c #F0AA00",
"(+	c #E16500",
"_+	c #DA5602",
":+	c #DD2501",
"<+	c #CE1F01",
"[+	c #DC2000",
"}+	c #D22200",
"|+	c #DB4300",
"1+	c #CB3300",
"2+	c #6F0600",
"3+	c #AA1100",
"4+	c #B84404",
"5+	c #B63F04",
"6+	c #C74503",
"7+	c #AA3002",
"8+	c #981900",
"9+	c #9D0A00",
"0+	c #9B1000",
"a+	c #911401",
"b+	c #B13900",
"c+	c #ED6700",
"d+	c #E77800",
"e+	c #E79500",
"f+	c #EDB300",
"g+	c #EFBB00",
"h+	c #E16600",
"i+	c #DD5902",
"j+	c #E11F00",
"k+	c #DD1600",
"l+	c #DB1F00",
"m+	c #CB2400",
"n+	c #CE3D00",
"o+	c #E24D00",
"p+	c #891300",
"q+	c #920B00",
"r+	c #A82603",
"s+	c #CB5201",
"t+	c #EC5F00",
"u+	c #D23801",
"v+	c #B03303",
"w+	c #A31100",
"x+	c #A21B02",
"y+	c #DD2900",
"z+	c #F02B00",
"A+	c #EC6200",
"B+	c #F4C800",
"C+	c #F0C200",
"D+	c #F0C300",
"E+	c #DE8100",
"F+	c #D14E03",
"G+	c #DB4A02",
"H+	c #EA1200",
"I+	c #E80B00",
"J+	c #DA3000",
"K+	c #C13800",
"L+	c #C23800",
"M+	c #D83700",
"N+	c #B01C00",
"O+	c #870C00",
"P+	c #A60900",
"Q+	c #B92D01",
"R+	c #D77101",
"S+	c #CD5E03",
"T+	c #B73F02",
"U+	c #B22502",
"V+	c #AE2904",
"W+	c #CA2C00",
"X+	c #ED7C00",
"Y+	c #E4B700",
"Z+	c #F4CC00",
"`+	c #F1C500",
" @	c #E8A400",
".@	c #E76A00",
"+@	c #E53801",
"@@	c #E24900",
"#@	c #D51E00",
"$@	c #C71800",
"%@	c #A04200",
"&@	c #CD4300",
"*@	c #C63B00",
"=@	c #C83F00",
"-@	c #CD3D00",
";@	c #8B0F00",
">@	c #920D00",
",@	c #C12500",
"'@	c #BB5603",
")@	c #F3B500",
"!@	c #F1B400",
"~@	c #D89400",
"{@	c #E29100",
"]@	c #EC8C00",
"^@	c #E5C100",
"/@	c #EABE01",
"(@	c #E08300",
"_@	c #D56801",
":@	c #DE5000",
"<@	c #EE2C00",
"[@	c #EC2E00",
"}@	c #C84A01",
"|@	c #DE2200",
"1@	c #D85000",
"2@	c #B54900",
"3@	c #D23D00",
"4@	c #CB4200",
"5@	c #BA5700",
"6@	c #A51D00",
"7@	c #8F0B00",
"8@	c #AF2200",
"9@	c #B72106",
"0@	c #BD5501",
"a@	c #E09C00",
"b@	c #E9B500",
"c@	c #E5AA00",
"d@	c #EDB800",
"e@	c #EEC300",
"f@	c #E3A500",
"g@	c #C54901",
"h@	c #DD2B00",
"i@	c #F62B00",
"j@	c #E22C02",
"k@	c #E72301",
"l@	c #4C49AD",
"m@	c #6B6AD8",
"n@	c #6F70EB",
"o@	c #696EE9",
"p@	c #5E5EDF",
"q@	c #3437D8",
"r@	c #A52E00",
"s@	c #BE3900",
"t@	c #D64100",
"u@	c #AA4300",
"v@	c #E58300",
"w@	c #BD4101",
"x@	c #931800",
"y@	c #971200",
"z@	c #9B1902",
"A@	c #AA2F06",
"B@	c #A63307",
"C@	c #C53604",
"D@	c #DB7502",
"E@	c #F4B200",
"F@	c #E36A00",
"G@	c #E23900",
"H@	c #D32100",
"I@	c #DA4400",
"J@	c #991B1C",
"K@	c #3C41BA",
"L@	c #A4A2F5",
"M@	c #BABAF3",
"N@	c #E2E3FA",
"O@	c #EDEDFE",
"P@	c #F3F3FD",
"Q@	c #CAC8F6",
"R@	c #6B69EB",
"S@	c #3E3AC7",
"T@	c #7C2B02",
"U@	c #CF7700",
"V@	c #DD4C00",
"W@	c #CB7300",
"X@	c #C18100",
"Y@	c #C35801",
"Z@	c #B12D01",
"`@	c #A91A00",
" #	c #A01A00",
".#	c #B41F00",
"+#	c #C13D00",
"@#	c #C62200",
"##	c #E94700",
"$#	c #F39A00",
"%#	c #F46400",
"&#	c #BA1F00",
"*#	c #951B00",
"=#	c #942B00",
"-#	c #6166BE",
";#	c #8282D0",
">#	c #E3E3FB",
",#	c #E7E7FE",
"'#	c #EEEEFF",
")#	c #D8D8FF",
"!#	c #F1F1FF",
"~#	c #EEEEFC",
"{#	c #7A7BED",
"]#	c #986006",
"^#	c #D53D00",
"/#	c #CA4300",
"(#	c #C03700",
"_#	c #CF9900",
":#	c #D9B500",
"<#	c #AC4A03",
"[#	c #B53F02",
"}#	c #AC2A00",
"|#	c #BC2A00",
"1#	c #DB4500",
"2#	c #E43A00",
"3#	c #F63300",
"4#	c #EE3700",
"5#	c #8E2700",
"6#	c #821100",
"7#	c #761D2C",
"8#	c #6162B0",
"9#	c #E5E5F6",
"0#	c #E4E4FF",
"a#	c #CFCFFF",
"b#	c #C9C9FF",
"c#	c #E0E0FF",
"d#	c #CDCDFF",
"e#	c #DCDCFF",
"f#	c #ECECFE",
"g#	c #5F5DED",
"h#	c #0307E2",
"i#	c #A53703",
"j#	c #C12000",
"k#	c #BE1F00",
"l#	c #C55500",
"m#	c #CF8D00",
"n#	c #C59400",
"o#	c #AD7E02",
"p#	c #D29500",
"q#	c #D76400",
"r#	c #E74E00",
"s#	c #E97100",
"t#	c #9F3000",
"u#	c #891200",
"v#	c #8F1500",
"w#	c #4F4ED3",
"x#	c #8180C4",
"y#	c #D5D5FF",
"z#	c #D1D1FE",
"A#	c #C2C2FE",
"B#	c #C2C2FF",
"C#	c #C6C6FF",
"D#	c #DADAFF",
"E#	c #EDEDFC",
"F#	c #3E3ADB",
"G#	c #A93800",
"H#	c #CD5400",
"I#	c #D86200",
"J#	c #C94A01",
"K#	c #A13703",
"L#	c #A24C02",
"M#	c #C28602",
"N#	c #AE5404",
"O#	c #BC7400",
"P#	c #BB4D00",
"Q#	c #942900",
"R#	c #8D1600",
"S#	c #911500",
"T#	c #8F1604",
"U#	c #8D8FED",
"V#	c #CAC9F4",
"W#	c #BEBEFF",
"X#	c #BFBFFE",
"Y#	c #E2E2FE",
"Z#	c #CBCBFF",
"`#	c #D9D9FF",
" $	c #C3C3FF",
".$	c #E6E6FF",
"+$	c #E6E6FE",
"@$	c #4145E7",
"#$	c #915905",
"$$	c #DB5400",
"%$	c #D63900",
"&$	c #C30401",
"*$	c #AA2905",
"=$	c #B13F04",
"-$	c #882C07",
";$	c #923805",
">$	c #991501",
",$	c #8C1600",
"'$	c #930F03",
")$	c #E10200",
"!$	c #CB0900",
"~$	c #5C5CE1",
"{$	c #BBBAEF",
"]$	c #DDDDFC",
"^$	c #B6B6FF",
"/$	c #CCCCFF",
"($	c #D1D1FF",
"_$	c #E2E2FF",
":$	c #D2D2FF",
"<$	c #4B4EDD",
"[$	c #961B00",
"}$	c #B02200",
"|$	c #CD0000",
"1$	c #ED0000",
"2$	c #C80600",
"3$	c #DE0000",
"4$	c #D00100",
"5$	c #9F0800",
"6$	c #C20600",
"7$	c #9B1106",
"8$	c #C50800",
"9$	c #900A01",
"0$	c #6462E0",
"a$	c #E6E6F7",
"b$	c #B9B9FF",
"c$	c #BFBFFF",
"d$	c #CACAFF",
"e$	c #D6D6FF",
"f$	c #B6B7F9",
"g$	c #5654D6",
"h$	c #9A0000",
"i$	c #C10000",
"j$	c #991801",
"k$	c #BC1100",
"l$	c #B00601",
"m$	c #BF0501",
"n$	c #930804",
"o$	c #650803",
"p$	c #5F55E0",
"q$	c #C6C2EF",
"r$	c #E6E6FD",
"s$	c #BBBBFF",
"t$	c #B5B5FF",
"u$	c #C5C5FF",
"v$	c #DDDDFE",
"w$	c #D0D0F6",
"x$	c #6B6DC7",
"y$	c #222797",
"z$	c #3639CD",
"A$	c #6F67DD",
"B$	c #E0DDF6",
"C$	c #F2F2FF",
"D$	c #DBDBFF",
"E$	c #E8E8FE",
"F$	c #D4D4EE",
"G$	c #9798D3",
"H$	c #2624B4",
"I$	c #3933E0",
"J$	c #8B8FDF",
"K$	c #D6D6F0",
"L$	c #E4E4F4",
"M$	c #B6B6DD",
"N$	c #787FEB",
"O$	c #484EC2",
"P$	c #333AB4",
"Q$	c #7F80CE",
"R$	c #7379D4",
"S$	c #474DA6",
"                                                                ",
"                                                                ",
"                  . + @ # $ % & *                               ",
"              = - ; > , ' ) ! ~ { ] ^                           ",
"          / ( _ : < [ } | 1 2 3 4 5 6 7 8                       ",
"        9 0 a b c d e f g h i j k l m n o p                     ",
"      q r s t u v w x y z A B C D E F G H I J                   ",
"      K L M N O P Q R S T U V W X Y Z `  ...+.                  ",
"    @.#.$.%.&.*.=.-.;.>.,.'.).!.~.{.].^./.(._.:.                ",
"    <.[.}.|.1.2.3.4.5.6.7.8.9.0.a.b.c.d.e.f.g.h.                ",
"  i.j.k.l.m.n.o.p.q.r.s.t.u.v.w.x.y.z.A.B.C.D.E.F.              ",
"  G.H.I.J.K.L.M.N.O.P.Q.R.S.T.U.V.W.y.X.Y.Z.`. +.+              ",
"  ++@+#+$+%+&+*+=+-+;+>+,+'+)+!+~+{+]+^+/+(+_+:+<+              ",
"  [+}+|+1+2+3+4+5+6+7+8+9+0+a+b+c+d+e+f+g+h+i+j+k+              ",
"  l+m+n+o+p+q+r+s+t+u+v+w+x+y+z+A+B+C+D+E+F+G+H+I+              ",
"  J+K+L+M+N+O+P+Q+R+S+T+U+V+W+X+Y+Z+`+ @.@+@@@#@$@              ",
"  %@&@*@=@-@;@>@,@'@)@!@~@{@]@^@/@(@_@:@<@[@}@|@1@              ",
"    2@3@4@5@6@7@8@9@0@a@b@c@d@e@f@g@h@i@j@k@l@m@n@o@p@q@        ",
"    r@s@t@u@v@w@x@y@z@A@B@C@D@E@F@G@H@I@J@K@L@M@N@O@P@Q@R@S@    ",
"    T@U@V@W@X@Y@Z@`@ #.#+#@###$#%#&#*#=#-#;#>#,#'#)#'#!#~#{#    ",
"      ]#^#/#(#_#:#<#[#}#|#1#2#3#4#5#6#7#8#9#0#a#b#c#d#e#f#g#h#  ",
"        i#j#k#l#m#n#o#p#q#&.r#s#t#u#v#w#x#a#y#e#z#A#B#C#D#E#F#  ",
"          G#H#I#J#K#L#M#N#O#P#Q#R#S#T#U#V#W#B#X#Y#Z#`# $.$+$@$  ",
"            #$$$%$&$*$=$-$;$>$,$'$)$!$~${$]$D#^$/$($_$:$e#z#<$  ",
"              [$}$|$1$2$3$4$5$6$7$8$9$  0$a$C#b$/$c$d$e$c#f$g$  ",
"                  h$i$j$k$l$m$n$o$      p$q$r$D#s$t$u$v$w$x$y$  ",
"                                          z$A$B$C$D$E$F$G$H$    ",
"                                            I$J$K$L$M$N$O$      ",
"                                              P$Q$R$S$          ",
"                                                                ",
"                                                                ",
"                                                                "};
