/* XPM */
static char * system28_xpm[] = {
"32 32 159 2",
"  	c None",
". 	c #161E14",
"+ 	c #223231",
"@ 	c #35522C",
"# 	c #538A44",
"$ 	c #579E44",
"% 	c #4D8E3C",
"& 	c #416E34",
"* 	c #21321C",
"= 	c #101E0C",
"- 	c #49763C",
"; 	c #3A5251",
"> 	c #54B63C",
", 	c #55BA3C",
"' 	c #5DC644",
") 	c #56BE3C",
"! 	c #63BE4C",
"~ 	c #58A244",
"{ 	c #1A3214",
"] 	c #1B3614",
"^ 	c #458634",
"/ 	c #4C863C",
"( 	c #4B823C",
"_ 	c #5ECA44",
": 	c #5FCE44",
"< 	c #65CA4C",
"[ 	c #66CE4C",
"} 	c #66D64C",
"| 	c #2F5A24",
"1 	c #22321C",
"2 	c #447E34",
"3 	c #448234",
"4 	c #4A763C",
"5 	c #54AE3C",
"6 	c #50C634",
"7 	c #56C23C",
"8 	c #57C63C",
"9 	c #57CA3C",
"0 	c #66D24C",
"a 	c #5EC644",
"b 	c #0E160C",
"c 	c #336E24",
"d 	c #4D8A3C",
"e 	c #53AA3C",
"f 	c #4AA234",
"g 	c #5ECE44",
"h 	c #59D23C",
"i 	c #61DA44",
"j 	c #67D64C",
"k 	c #509A3C",
"l 	c #4EBA34",
"m 	c #5FD244",
"n 	c #67DA4C",
"o 	c #68E64C",
"p 	c #67DE4C",
"q 	c #6FE254",
"r 	c #52AE3C",
"s 	c #0F1A0C",
"t 	c #46663C",
"u 	c #476E3C",
"v 	c #4E8E3C",
"w 	c #4D923C",
"x 	c #4EBE34",
"y 	c #57C23C",
"z 	c #60D644",
"A 	c #68DE4C",
"B 	c #6FE654",
"C 	c #1B3A14",
"D 	c #293E24",
"E 	c #476A3C",
"F 	c #479234",
"G 	c #4E963C",
"H 	c #53AE3C",
"I 	c #54B23C",
"J 	c #6FEA54",
"K 	c #67E24C",
"L 	c #61DE44",
"M 	c #3B7E2C",
"N 	c #445E3C",
"O 	c #528244",
"P 	c #51A23C",
"Q 	c #569A44",
"R 	c #53B23C",
"S 	c #4AA634",
"T 	c #5B924C",
"U 	c #497A3C",
"V 	c #4C8A3C",
"W 	c #4A823C",
"X 	c #4A7E3C",
"Y 	c #548E44",
"Z 	c #58AA44",
"` 	c #64A254",
" .	c #48723C",
"..	c #3B5234",
"+.	c #559244",
"@.	c #43563C",
"#.	c #64C24C",
"$.	c #6DDA54",
"%.	c #649E54",
"&.	c #507A44",
"*.	c #528644",
"=.	c #435A3C",
"-.	c #4F7644",
";.	c #466E3C",
">.	c #6BCA54",
",.	c #68BA54",
"'.	c #56764C",
").	c #4D6644",
"!.	c #3E5250",
"~.	c #4C6244",
"{.	c #425655",
"].	c #46623C",
"^.	c #42523C",
"/.	c #3A4A49",
"(.	c #4B5E44",
"_.	c #546A4C",
":.	c #60B24C",
"<.	c #577A4C",
"[.	c #4A7A3C",
"}.	c #4F7244",
"|.	c #507644",
"1.	c #3E4A48",
"2.	c #323C39",
"3.	c #363E3C",
"4.	c #2E3C36",
"5.	c #1E3428",
"6.	c #323C38",
"7.	c #45623C",
"8.	c #4F6E44",
"9.	c #425A59",
"0.	c #2A3C34",
"a.	c #1A3C2A",
"b.	c #509E3C",
"c.	c #466A3C",
"d.	c #4C6644",
"e.	c #3A4441",
"f.	c #58A644",
"g.	c #364644",
"h.	c #4A5A44",
"i.	c #465A58",
"j.	c #424E4D",
"k.	c #4A5E5D",
"l.	c #425251",
"m.	c #4E6E44",
"n.	c #5D9E4C",
"o.	c #316624",
"p.	c #546E4C",
"q.	c #639654",
"r.	c #73D25C",
"s.	c #39722C",
"t.	c #324241",
"u.	c #556E4C",
"v.	c #61B24C",
"w.	c #5EA24C",
"x.	c #65A254",
"y.	c #6BC654",
"z.	c #283624",
"A.	c #57A244",
"B.	c #223A1C",
"                                                                ",
"                                                                ",
"                                                                ",
"                                                                ",
"                                                                ",
"                                                                ",
"                        . + @ # $ % & *                         ",
"                    = & - ; % > , ' ) ! ~ {                     ",
"                  ] ^ / & ( ) _ : < [ [ } < |                   ",
"                1 2 ^ 3 4 5 6 7 8 [ : 9 [ 0 a |                 ",
"              b c 3 / d e 6 7 > f g h 0 g i j 9 {               ",
"              @ 4 ^ % k l 9 8 9 a 0 m n o p q n r               ",
"            s t u v w 5 x y 8 h z A j A B q B A A C             ",
"            D E - F G H l , I , _ z A B J q J K L M             ",
"            N 4 O k P H e Q $ P R m A } q o } A m S             ",
"            T U # G V H $ W $ X Y Z } z 7 m 0 0 I R             ",
"            `  .v V ..+.( u ~ @.t # ~ < #.} #.$.g S             ",
"            %.&.d w E Y W &.*.U O =.-.;.>.,.%.>.n F             ",
"            u '.O w ( *.*.&.).@.!.~.{.].^./.(._.:.c             ",
"            * <.X ( [.=.}.|.t !.(.1.2.3.4.5.6.N H ]             ",
"              @.u |.- 7.7.8.^.9./.4.0.0.5.a.a.<.b.              ",
"                u - ..^.c.@.d.(.e.4.6.3.3.a./.f.{               ",
"                * U t {.g./.h.i.1.j.h.k.l.m.n.o.                ",
"                  1 t t @.{._._._.p.'.k.q.r.s.                  ",
"                    s t.{.9.u.n.v.w.x.y.:.C                     ",
"                          z.- :.! A.W B.                        ",
"                                                                ",
"                                                                ",
"                                                                ",
"                                                                ",
"                                                                ",
"                                                                "};
