/* XPM */
static char * system25_xpm[] = {
"32 32 143 2",
"  	c None",
". 	c #580E0C",
"+ 	c #600A0C",
"@ 	c #680E14",
"# 	c #C44A54",
"$ 	c #FF7E84",
"% 	c #FF9294",
"& 	c #D44A54",
"* 	c #77161C",
"= 	c #DB525C",
"- 	c #FFCED4",
"; 	c #FFFEFC",
"> 	c #FFFAF4",
", 	c #FFD2CC",
"' 	c #EB5664",
") 	c #FF828C",
"! 	c #FFF6E4",
"~ 	c #FFCAC4",
"{ 	c #FF626C",
"] 	c #F3626C",
"^ 	c #FFB2B4",
"/ 	c #FFCECC",
"( 	c #FFC2BC",
"_ 	c #FFE6DC",
": 	c #FFEAE4",
"< 	c #FFE2D4",
"[ 	c #FFC6BC",
"} 	c #FFAE9C",
"| 	c #FFBEB4",
"1 	c #FF9E9C",
"2 	c #CC465C",
"3 	c #9E3234",
"4 	c #FFC6C4",
"5 	c #FFBEBC",
"6 	c #FFEEE4",
"7 	c #FFD6C4",
"8 	c #FFEEDC",
"9 	c #FFCAB4",
"0 	c #FF9A94",
"a 	c #FF8684",
"b 	c #DB4E5C",
"c 	c #8E1E24",
"d 	c #FF8694",
"e 	c #FFCACC",
"f 	c #FFAAAC",
"g 	c #FFA6A4",
"h 	c #FFDED4",
"i 	c #FFDEC4",
"j 	c #FFA69C",
"k 	c #FF6E74",
"l 	c #FFBAAC",
"m 	c #C43E54",
"n 	c #6F1A1C",
"o 	c #FFDEE4",
"p 	c #FF9AA4",
"q 	c #FF9694",
"r 	c #FFB2A4",
"s 	c #FFA29C",
"t 	c #FFF2EC",
"u 	c #FF7274",
"v 	c #CC4664",
"w 	c #681214",
"x 	c #AD3A3C",
"y 	c #FFBACC",
"z 	c #FF7E94",
"A 	c #FFBAB4",
"B 	c #FF666C",
"C 	c #F35E64",
"D 	c #EB5A64",
"E 	c #C44A5C",
"F 	c #8E222C",
"G 	c #E36694",
"H 	c #FF7A7C",
"I 	c #E35A6C",
"J 	c #BD4254",
"K 	c #FFD6AC",
"L 	c #FF8E7C",
"M 	c #A5324C",
"N 	c #8E263C",
"O 	c #962A44",
"P 	c #DB5664",
"Q 	c #CC4A64",
"R 	c #9E2A34",
"S 	c #B54654",
"T 	c #FF92AC",
"U 	c #FF7684",
"V 	c #FF9E74",
"W 	c #FFAE7C",
"X 	c #FF6E5C",
"Y 	c #AD364C",
"Z 	c #B53A54",
"` 	c #D44E64",
" .	c #C44654",
"..	c #C4425C",
"+.	c #DB5264",
"@.	c #C44244",
"#.	c #FFAAB4",
"$.	c #FFAEB4",
"%.	c #FFB28C",
"&.	c #FFCEA4",
"*.	c #FF6264",
"=.	c #FA5254",
"-.	c #FF6A6C",
";.	c #8E2224",
">.	c #FFB6C4",
",.	c #FF768C",
"'.	c #FF7674",
").	c #FF9A8C",
"!.	c #FFC2A4",
"~.	c #FFE2CC",
"{.	c #FFB29C",
"].	c #FF9E94",
"^.	c #6F121C",
"/.	c #FF968C",
"(.	c #FFC2AC",
"_.	c #FFCEBC",
":.	c #FF8A84",
"<.	c #FFC6A4",
"[.	c #FFBE9C",
"}.	c #FF6674",
"|.	c #96222C",
"1.	c #FF8284",
"2.	c #FF7264",
"3.	c #FF625C",
"4.	c #FF927C",
"5.	c #FFAE8C",
"6.	c #FF967C",
"7.	c #CC4E64",
"8.	c #FFB6A4",
"9.	c #CC4A4C",
"0.	c #FF8E84",
"a.	c #FFEEC4",
"b.	c #FFDEAC",
"c.	c #FFCE8C",
"d.	c #FF9A74",
"e.	c #FFA68C",
"f.	c #EB5E74",
"g.	c #F35E74",
"h.	c #E35A5C",
"i.	c #FFEACC",
"j.	c #FFB294",
"k.	c #FFCAAC",
"l.	c #C44A4C",
"                                                                ",
"                                                                ",
"                                                                ",
"                                                                ",
"                                                                ",
"                                                                ",
"                            . + +                               ",
"                        @ # $ % $ & *                           ",
"                      = - ; ; ; ; > , '                         ",
"                    ) ! ; ; ; ; ; > ! ~ {                       ",
"                  ] ^ / ( _ : < _ [ } | 1 2                     ",
"                3 < 4 5 6 7 8 9 } 0 a b $ ' c                   ",
"                d e f ( g h > i j k a / 7 l m                   ",
"              n o p ^ q = r s ; t u 1 } u % v w                 ",
"              x y z 5 A B 5 6 < 5 = C D ] E b F                 ",
"            . # G H I J % K L ' M N O P H m Q R +               ",
"              S T ^ U A V W X & Y O Z `  ...+.R                 ",
"              @.#.$.% $ %.&.} *.=.-.D Y ..B H ;.                ",
"              n >.,.'.).!.~.~.{.].a J J B 1 '.^.                ",
"                z /.^ , ~.(._ _.].% +.B :.a &                   ",
"                Y l s } r q <.[.D H /.A ) }.|.                  ",
"                  1.K %.2.3.4.5.6. .+.7.8.9.                    ",
"                    0.a.b.c.d.4.e.B f.g.C                       ",
"                      h.e i.8.j.&.k.}  .                        ",
"                          l.B '.u @.                            ",
"                                                                ",
"                                                                ",
"                                                                ",
"                                                                ",
"                                                                ",
"                                                                ",
"                                                                "};
