/* XPM */
static char * system3_xpm[] = {
"32 32 160 2",
"  	c None",
". 	c #664A4C",
"+ 	c #8E666C",
"@ 	c #967674",
"# 	c #927274",
"$ 	c #664244",
"% 	c #765A5C",
"& 	c #D2CACC",
"* 	c #F2EACC",
"= 	c #DEB6A4",
"- 	c #E6B294",
"; 	c #F2CEA4",
"> 	c #EACAAC",
", 	c #CAAE9C",
"' 	c #664654",
") 	c #AE8E84",
"! 	c #FEEEC4",
"~ 	c #FADEAC",
"{ 	c #FACE8C",
"] 	c #D69A74",
"^ 	c #C2927C",
"/ 	c #CEA68C",
"( 	c #7A5E74",
"_ 	c #7E5E74",
": 	c #7E5E64",
"< 	c #9E8284",
"[ 	c #F6D6AC",
"} 	c #DAB28C",
"| 	c #A67264",
"1 	c #96625C",
"2 	c #BA927C",
"3 	c #DEAE8C",
"4 	c #D2967C",
"5 	c #725264",
"6 	c #6A4E64",
"7 	c #CEB6A4",
"8 	c #6A4A4C",
"9 	c #5A364C",
"0 	c #D2BAAC",
"a 	c #C2A29C",
"b 	c #C6B2A4",
"c 	c #AE9694",
"d 	c #DEC6A4",
"e 	c #DEBE9C",
"f 	c #7A5A64",
"g 	c #967A7C",
"h 	c #AA968C",
"i 	c #CABAB4",
"j 	c #9E828C",
"k 	c #866674",
"l 	c #4E222C",
"m 	c #927E94",
"n 	c #C2B2B4",
"o 	c #E2D2CC",
"p 	c #EEE2CC",
"q 	c #D2C2AC",
"r 	c #EEE6DC",
"s 	c #DECEBC",
"t 	c #B69E94",
"u 	c #AA9294",
"v 	c #86666C",
"w 	c #A68A84",
"x 	c #A28684",
"y 	c #6E4A54",
"z 	c #3A1A1C",
"A 	c #BEB6C4",
"B 	c #8A768C",
"C 	c #927674",
"D 	c #B29A8C",
"E 	c #D6C2A4",
"F 	c #CAB29C",
"G 	c #624254",
"H 	c #BE9E9C",
"I 	c #3A121C",
"J 	c #B6AAB4",
"K 	c #BEAEB4",
"L 	c #A69294",
"M 	c #967E84",
"N 	c #866264",
"O 	c #825254",
"P 	c #8A6A6C",
"Q 	c #66425C",
"R 	c #9E7A7C",
"S 	c #4A2224",
"T 	c #5E4654",
"U 	c #A292AC",
"V 	c #8E7684",
"W 	c #CEBAB4",
"X 	c #E69E74",
"Y 	c #EAAE7C",
"Z 	c #A26E5C",
"` 	c #4E2A44",
" .	c #5E3A54",
"..	c #6E4E64",
"+.	c #522A34",
"@.	c #2E0E0C",
"#.	c #664A54",
"$.	c #766694",
"%.	c #927A7C",
"&.	c #765A6C",
"*.	c #B28E7C",
"=.	c #7A5664",
"-.	c #56324C",
";.	c #4A263C",
">.	c #725664",
",.	c #663E54",
"'.	c #6A4A64",
").	c #320A0C",
"!.	c #5A3A3C",
"~.	c #C6BACC",
"{.	c #CABEBC",
"].	c #F6EEE4",
"^.	c #EAE2D4",
"/.	c #CEBEBC",
"(.	c #72525C",
"_.	c #7E626C",
":.	c #664A5C",
"<.	c #724E5C",
"[.	c #4A222C",
"}.	c #E6DEE4",
"|.	c #AA9AA4",
"1.	c #CAB2A4",
"2.	c #B6A29C",
"3.	c #FEFEFC",
"4.	c #F6F2EC",
"5.	c #8E7274",
"6.	c #6A4664",
"7.	c #361214",
"8.	c #968694",
"9.	c #C2AAAC",
"0.	c #D2C2BC",
"a.	c #B6A6A4",
"b.	c #E6DED4",
"c.	c #FAFAF4",
"d.	c #EEDEC4",
"e.	c #BEA69C",
"f.	c #8E6E74",
"g.	c #D6CECC",
"h.	c #E2D6C4",
"i.	c #523234",
"j.	c #D2C6C4",
"k.	c #D2BEBC",
"l.	c #F6EEDC",
"m.	c #DECAB4",
"n.	c #CEAE9C",
"o.	c #B69A94",
"p.	c #A68684",
"q.	c #A27E84",
"r.	c #4A1E24",
"s.	c #DECECC",
"t.	c #F2EAE4",
"u.	c #DAC6BC",
"v.	c #DABEB4",
"w.	c #6A465C",
"x.	c #FAF6E4",
"y.	c #DECAC4",
"z.	c #86626C",
"A.	c #D6CED4",
"B.	c #360E14",
"C.	c #3E161C",
"                                                                ",
"                                                                ",
"                                                                ",
"                                                                ",
"                                                                ",
"                                                                ",
"                                                                ",
"                          . + @ # $                             ",
"                      % & * = - ; > , '                         ",
"                    ) ! ~ { ] ^ / + ( _ :                       ",
"                  < [ } | 1 2 3 4 ' 5 6 7 8                     ",
"                9 0 a , b c d e f g h i j k l                   ",
"                m h n o p q r s t u 5 v w x y                   ",
"              z A B C D E p p F t x G G v H @ I                 ",
"              $ J K L M } ; , N O P f 9 Q v R S                 ",
"              T U n V W X Y Z y 9 `  ...' Q 5 +.                ",
"            @.#.$.%.&.G u [ *.=.-.;.` >.%.,.'.+.).              ",
"              !.~.m {.i v {.].^./.(.: f _.:.<.[.                ",
"              z }.|.n c (.1.2.3.4.5.H , 5.L 6.7.                ",
"                8.& 9.0.a.b.c.d.e.f.x g.h.0 ,.                  ",
"                i.^.j.k.].h.l.m.n.o.p.<.q.=.r.                  ",
"                  _.n s.0.r t.^.r u., v.H w.                    ",
"                    j x.3.3.3.3.3.c.x.y.z.                      ",
"                      (.A.3.3.3.3.c.o =.                        ",
"                        B.#.M L M y C.                          ",
"                            @.).).                              ",
"                                                                ",
"                                                                ",
"                                                                ",
"                                                                ",
"                                                                ",
"                                                                "};
