/* XPM */
static char * system18_xpm[] = {
"32 32 220 2",
"  	c None",
". 	c #AD4B49",
"+ 	c #D86C6A",
"@ 	c #EB716F",
"# 	c #E96B69",
"$ 	c #DF605E",
"% 	c #D83634",
"& 	c #BA3E3C",
"* 	c #F5A4A2",
"= 	c #F3BBBA",
"- 	c #FAE2E2",
"; 	c #FEEDED",
"> 	c #FDF3F3",
", 	c #F6C9C8",
"' 	c #EB6B69",
") 	c #C73D3A",
"! 	c #BE6261",
"~ 	c #D08382",
"{ 	c #FBE3E3",
"] 	c #FEE7E7",
"^ 	c #FFEEEE",
"/ 	c #FFD9D8",
"( 	c #FFF1F1",
"_ 	c #FCEEEE",
": 	c #ED7C7A",
"< 	c #878787",
"[ 	c #A5A5A5",
"} 	c #E3E3E3",
"| 	c #E1E1E1",
"1 	c #EDEDED",
"2 	c #DFDFDF",
"3 	c #C5C5C5",
"4 	c #B06261",
"5 	c #F6E5E5",
"6 	c #FFE4E4",
"7 	c #FFD0CF",
"8 	c #FFCAC9",
"9 	c #FFE1E0",
"0 	c #FFCECD",
"a 	c #FFDDDC",
"b 	c #FEECEC",
"c 	c #ED605D",
"d 	c #E20603",
"e 	c #8C8C8C",
"f 	c #B7B7B7",
"g 	c #CFCFCF",
"h 	c #DEDEDE",
"i 	c #FFFFFF",
"j 	c #E7E7E7",
"k 	c #FDFDFD",
"l 	c #C8C8C8",
"m 	c #D3504E",
"n 	c #C48180",
"o 	c #FFD6D5",
"p 	c #FED2D1",
"q 	c #FEC3C2",
"r 	c #FFC3C2",
"s 	c #FFC7C6",
"t 	c #FFDBDA",
"u 	c #FCEDED",
"v 	c #DA3F3C",
"w 	c #C0C0C0",
"x 	c #FBFBFB",
"y 	c #FEFEFE",
"z 	c #E9E9E9",
"A 	c #E2E2E2",
"B 	c #E8E8E8",
"C 	c #F5F5F5",
"D 	c #ABABAB",
"E 	c #ED8E8D",
"F 	c #F4CAC9",
"G 	c #FFBFBE",
"H 	c #FEC0BF",
"I 	c #FEE2E2",
"J 	c #FFCCCB",
"K 	c #FFDAD9",
"L 	c #FFC4C3",
"M 	c #FFE6E6",
"N 	c #FEE6E6",
"O 	c #E64745",
"P 	c #EEEEEE",
"Q 	c #FAFAFA",
"R 	c #F8F8F8",
"S 	c #D6D6D6",
"T 	c #DDDDDD",
"U 	c #F3F3F3",
"V 	c #F2F2F2",
"W 	c #C4C4C4",
"X 	c #E15E5C",
"Y 	c #EFBBBA",
"Z 	c #FCDEDD",
"` 	c #FFB7B6",
" .	c #FFCDCC",
"..	c #FFD2D1",
"+.	c #FFE2E2",
"@.	c #FFD3D2",
"#.	c #DD4D4B",
"$.	c #ECECEC",
"%.	c #C2C2C2",
"&.	c #D7D7D7",
"*.	c #C9C9C9",
"=.	c #CCCCCC",
"-.	c #F9F9F9",
";.	c #E5E5E5",
">.	c #BBBBBB",
",.	c #E06462",
"'.	c #F7E6E6",
").	c #FFBAB9",
"!.	c #FFC0BF",
"~.	c #FFCBCA",
"{.	c #FFD7D6",
"].	c #F9B7B6",
"^.	c #D65654",
"/.	c #D2D2D2",
"(.	c #B3B3B3",
"_.	c #B9B9B9",
":.	c #C1C1C1",
"<.	c #EFEFEF",
"[.	c #F0F0F0",
"}.	c #E05855",
"|.	c #EFC3C2",
"1.	c #FDE6E6",
"2.	c #FFBCBB",
"3.	c #FFB6B5",
"4.	c #FFC6C5",
"5.	c #FEDEDD",
"6.	c #F6D1D0",
"7.	c #C76C6B",
"8.	c #972322",
"9.	c #C6C6C6",
"0.	c #CBCBCB",
"a.	c #BEBEBE",
"b.	c #C3C3C3",
"c.	c #D4D4D4",
"d.	c #D1D1D1",
"e.	c #CD3836",
"f.	c #DD6A67",
"g.	c #F6DEDD",
"h.	c #FFF2F2",
"i.	c #FFDCDB",
"j.	c #FEE8E8",
"k.	c #EED4D4",
"l.	c #D39897",
"m.	c #B42825",
"n.	c #CACACA",
"o.	c #D9D9D9",
"p.	c #C7C7C7",
"q.	c #F6F6F6",
"r.	c #E03633",
"s.	c #DF8C8B",
"t.	c #F0D6D6",
"u.	c #F4E4E4",
"v.	c #DDB7B6",
"w.	c #EB7978",
"x.	c #BD504F",
"y.	c #ACACAC",
"z.	c #959595",
"A.	c #919191",
"B.	c #B8B8B8",
"C.	c #D0D0D0",
"D.	c #D5D5D5",
"E.	c #DBDBDB",
"F.	c #E6E6E6",
"G.	c #A4A4A4",
"H.	c #B43433",
"I.	c #CE807F",
"J.	c #D47473",
"K.	c #A64847",
"L.	c #9A9A9A",
"M.	c #848484",
"N.	c #8B8B8B",
"O.	c #858585",
"P.	c #9D9D9D",
"Q.	c #EAEAEA",
"R.	c #DCDCDC",
"S.	c #EBEBEB",
"T.	c #AAAAAA",
"U.	c #969696",
"V.	c #818181",
"W.	c #999999",
"X.	c #ADADAD",
"Y.	c #B2B2B2",
"Z.	c #B0B0B0",
"`.	c #B4B4B4",
" +	c #B5B5B5",
".+	c #D3D3D3",
"++	c #FCFCFC",
"@+	c #BABABA",
"#+	c #A7A7A7",
"$+	c #BCBCBC",
"%+	c #E0E0E0",
"&+	c #9E9E9E",
"*+	c #BFBFBF",
"=+	c #F1F1F1",
"-+	c #DADADA",
";+	c #9F9F9F",
">+	c #CECECE",
",+	c #A3A3A3",
"'+	c #A2A2A2",
")+	c #D8D8D8",
"!+	c #A9A9A9",
"~+	c #CDCDCD",
"{+	c #939393",
"]+	c #AFAFAF",
"^+	c #A8A8A8",
"/+	c #B1B1B1",
"(+	c #B6B6B6",
"_+	c #838383",
":+	c #AEAEAE",
"<+	c #A0A0A0",
"[+	c #A1A1A1",
"}+	c #8D8D8D",
"|+	c #BDBDBD",
"1+	c #A6A6A6",
"2+	c #979797",
"3+	c #F4F4F4",
"4+	c #868686",
"5+	c #929292",
"6+	c #989898",
"7+	c #787878",
"                                                                ",
"                                                                ",
"                                                                ",
"                                                                ",
"                                                                ",
"        . + @ # $ %                                             ",
"      & * = - ; > , ' )                                         ",
"    ! ~ { ] ^ / ^ ( _ :       < [ } | 1 2 3 [                   ",
"    4 5 6 7 8 9 0 a b c d e f g h i 1 i i j 2 k l               ",
"  m n 7 o a p q r s t u v w x i y x i z A j B i i C D           ",
"  E F G r H I J K L M N O P i i Q i i i R 1 S T 1 U V W         ",
"  X Y Z t `  ...+.@.a p #.y i $.%.&.l *.=.-.i C ;.j i U >.      ",
"    ,.'.s ). .!.~.{.9 ].^.V /.(._.f _.:.l V i y <.U C i [.      ",
"    }.|.1.t 2.3.4.5.6.7.8./.9.0.S (._.a.b.c.i i U P C $.i d.    ",
"      e.f.g.h.i.j.k.l.m.0.l n.a.=.o.:.W b.p.c.$.<.C q.P i i     ",
"        r.s.t.u.v.w.x.y.z.A.z.B.*.&.S C.D.i z E.F.F.1 1 C T G.  ",
"          H.I.J.K.L.M.N.e O.P.G.(.a.p.E.Q.1 } | E.} z z $.j l   ",
"              R.S.T.U.V.W._._.X.Y.Z.a.`.D  +S C.c.2 .+A | ++1   ",
"              k [.S.2 M.p.:.:./._.X.@+ +#+$+[.%+/.0.n.A } i i   ",
"              ++F.h <.&+X.>.C.V ;.*+a._.Q i =+n.l p.d.-+B i i   ",
"              U C./.1 *.;+9.=.C.>+:.l :.| F.a.l l =.j k =+C j   ",
"              ,+-+D.S T '+y.-+$+/.C.:.>+T >.b././.B i i d.y |   ",
"                @+} )+_.>.!+3 d.a.p.9.9.*.3 9.~+-.i i i B z {+  ",
"                (.=.F.]+o.l ^+]+/+@+`.&.c.c.A R =+z z g p.(+    ",
"                _+b.z w :+W %.:.(+~+>+| Q 2 Q c.!+<+Y.Z.Z.[+    ",
"                  }+F.S C.(.Y.]+*+|+d.Q.Q i i L.U.X.1+b./+      ",
"                    Z.R.o.p._.!+2+_.S V 3+F.D &+G.G.>.w W.      ",
"                      (./.)+/.D '+X.X.:+*+[+[+#+[ ;.g 4+        ",
"                        < } Q.$.|+>.5+6+/+<+X.i U o.!+          ",
"                          T.9.Q i =+i k a.Q.(+$.D               ",
"                              $+S.]+T c.j Z.7+                  ",
"                                                                "};
