/* XPM */
static char * system15_xpm[] = {
"32 32 84 1",
" 	c None",
".	c #0A020C",
"+	c #16060C",
"@	c #1E0A0C",
"#	c #1A0A0C",
"$	c #0E020C",
"%	c #060204",
"&	c #06020C",
"*	c #3A1A0C",
"=	c #722E04",
"-	c #7A2A04",
";	c #762604",
">	c #621E04",
",	c #3E120C",
"'	c #260A0C",
")	c #662A04",
"!	c #963A04",
"~	c #A23604",
"{	c #A63A04",
"]	c #923204",
"^	c #7E2604",
"/	c #521A04",
"(	c #2A0E0C",
"_	c #A63E04",
":	c #B64204",
"<	c #BA3E04",
"[	c #B63A04",
"}	c #963204",
"|	c #220A0C",
"1	c #32160C",
"2	c #C24604",
"3	c #C24204",
"4	c #BE4204",
"5	c #8E3204",
"6	c #6E2204",
"7	c #3A120C",
"8	c #0E060C",
"9	c #763204",
"0	c #B64604",
"a	c #C64A04",
"b	c #CA4E04",
"c	c #CA4A04",
"d	c #C64604",
"e	c #BA3A04",
"f	c #A63604",
"g	c #4A1A0C",
"h	c #9A3E04",
"i	c #C24E04",
"j	c #CA5204",
"k	c #AA3604",
"l	c #AA3E04",
"m	c #C65604",
"n	c #CE5204",
"o	c #561A04",
"p	c #1A0E0C",
"q	c #A64A04",
"r	c #CE5604",
"s	c #D25A04",
"t	c #A24604",
"u	c #CA5604",
"v	c #D65A04",
"w	c #D25604",
"x	c #C24A04",
"y	c #7A2604",
"z	c #4A1604",
"A	c #1A060C",
"B	c #D65E04",
"C	c #8A3204",
"D	c #722204",
"E	c #B24E04",
"F	c #CE5A04",
"G	c #BA4604",
"H	c #662204",
"I	c #2E0E0C",
"J	c #B64E04",
"K	c #BE4A04",
"L	c #923A04",
"M	c #6A2E04",
"N	c #A24204",
"O	c #AE4604",
"P	c #36160C",
"Q	c #6A2A04",
"R	c #5A220C",
"S	c #12060C",
"                                ",
"                                ",
"                                ",
"                                ",
"                                ",
"                                ",
"                                ",
"            .+@#$%&%&           ",
"           *=-;>,'$%&%          ",
"          )!~{~]^/(.%&%         ",
"         )_:<<[{}^/|.%%&        ",
"        1_:2234[~5678&&&        ",
"        90abcd<ef]-g@%%&&       ",
"        hijjja2[k}^/'&&%%       ",
"       #lmnnnc2ek}^o'.&&%       ",
"       pqrsrnj2<f}^/'%%%&       ",
"       8tuvvwjx<f]yzA&&%&       ",
"       %9mBBvwb:fCD,A%%&%       ",
"       %1ErssFjG{CHI$&%&&       ",
"        %)JmuiKlL-z#%%&%        ",
"        %8MNOONL-g@&&%&&        ",
"         %%PQ9=R7+%%%&&         ",
"          %%%SS8%&&&%&          ",
"           &&%%%%%%&&           ",
"             &&&&&              ",
"                                ",
"                                ",
"                                ",
"                                ",
"                                ",
"                                ",
"                                "};
