/* XPM */
static char * system35_xpm[] = {
"32 32 59 1",
" 	c None",
".	c #161616",
"+	c #2A2A2A",
"@	c #222222",
"#	c #727272",
"$	c #929292",
"%	c #9A9A9A",
"&	c #969696",
"*	c #828282",
"=	c #4E4E4E",
"-	c #1E1E1E",
";	c #5A5A5A",
">	c #AEAEAE",
",	c #BABABA",
"'	c #B2B2B2",
")	c #7A7A7A",
"!	c #424242",
"~	c #626262",
"{	c #525252",
"]	c #262626",
"^	c #4A4A4A",
"/	c #868686",
"(	c #8A8A8A",
"_	c #8E8E8E",
":	c #C6C6C6",
"<	c #565656",
"[	c #323232",
"}	c #6E6E6E",
"|	c #3A3A3A",
"1	c #DADADA",
"2	c #D6D6D6",
"3	c #666666",
"4	c #767676",
"5	c #A2A2A2",
"6	c #7E7E7E",
"7	c #6A6A6A",
"8	c #A6A6A6",
"9	c #464646",
"0	c #1A1A1A",
"a	c #3E3E3E",
"b	c #5E5E5E",
"c	c #9E9E9E",
"d	c #E2E2E2",
"e	c #CECECE",
"f	c #D2D2D2",
"g	c #C2C2C2",
"h	c #EEEEEE",
"i	c #F2F2F2",
"j	c #CACACA",
"k	c #B6B6B6",
"l	c #AAAAAA",
"m	c #DEDEDE",
"n	c #EAEAEA",
"o	c #F6F6F6",
"p	c #BEBEBE",
"q	c #121212",
"r	c #E6E6E6",
"s	c #363636",
"t	c #0A0A0A",
"                                ",
"                                ",
"                                ",
"                                ",
"                                ",
"                                ",
"              .+@               ",
"           +#$%&*#=-            ",
"          ;>,$'>&)!~{]          ",
"         ^/(#_,:,/#;=<{         ",
"        [}|+{'12,,$3_4>=        ",
"        ^43<;;:56{78>~9>0       ",
"       {}[;79[|a!;@;7#-/b       ",
"       4(;^<@94*_(b8%>/*$       ",
"      |;#&{#9!>(,,c$deeef@      ",
"      =/%(_:f>'gddf2hih:g|      ",
"      a}58jklmhiiin2hiimc|      ",
"      +'_&m11niiioiniiohp@      ",
"      q,79>)kpeednf2hihim       ",
"       )((lbkj:5)e>rihnr_       ",
"       +;pl%',:/blnh1hdp        ",
"        bgkjpgkl$p:,m1p9        ",
"         &:j:2fekkl,f'<         ",
"          ):212:,lpgca          ",
"           s$geeppk3q           ",
"             t[a|]              ",
"                                ",
"                                ",
"                                ",
"                                ",
"                                ",
"                                "};
