/* XPM */
static char * system13_xpm[] = {
"32 32 96 2",
"  	c None",
". 	c #020204",
"+ 	c #060204",
"@ 	c #0A0604",
"# 	c #32261C",
"$ 	c #624E3C",
"% 	c #725A4C",
"& 	c #16120C",
"* 	c #060604",
"= 	c #1A1614",
"- 	c #624A3C",
"; 	c #866A54",
"> 	c #7E5E54",
", 	c #5E4A3C",
"' 	c #0E0A0C",
") 	c #120E0C",
"! 	c #0A0A04",
"~ 	c #7A5E4C",
"{ 	c #866654",
"] 	c #7E624C",
"^ 	c #463A2C",
"/ 	c #765A44",
"( 	c #6E5244",
"_ 	c #3E2E24",
": 	c #261E14",
"< 	c #564234",
"[ 	c #665244",
"} 	c #9A7654",
"| 	c #AA8254",
"1 	c #B28654",
"2 	c #A27A4C",
"3 	c #7E6244",
"4 	c #3A2A24",
"5 	c #42362C",
"6 	c #765A4C",
"7 	c #624E44",
"8 	c #A27A5C",
"9 	c #BA8E54",
"0 	c #C69654",
"a 	c #C6924C",
"b 	c #B68A4C",
"c 	c #866644",
"d 	c #2A221C",
"e 	c #221A14",
"f 	c #362A24",
"g 	c #9E7A54",
"h 	c #BE9254",
"i 	c #D6A25C",
"j 	c #D6A24C",
"k 	c #CE9E4C",
"l 	c #CE9A4C",
"m 	c #8E6A44",
"n 	c #725644",
"o 	c #B68E5C",
"p 	c #D6A654",
"q 	c #DAAA54",
"r 	c #DAA654",
"s 	c #D29E4C",
"t 	c #E2AA4C",
"u 	c #BE8E44",
"v 	c #927254",
"w 	c #CA9A54",
"x 	c #D6A254",
"y 	c #DEA64C",
"z 	c #F2B654",
"A 	c #8A6644",
"B 	c #5A463C",
"C 	c #D2A254",
"D 	c #FABE54",
"E 	c #8A6A44",
"F 	c #B2865C",
"G 	c #4A3A34",
"H 	c #1A120C",
"I 	c #F6BA54",
"J 	c #B68A64",
"K 	c #AA8264",
"L 	c #6E5644",
"M 	c #E6AE4C",
"N 	c #BA8E44",
"O 	c #866A4C",
"P 	c #D69E64",
"Q 	c #BE9264",
"R 	c #8A6A54",
"S 	c #4E3E34",
"T 	c #2E261C",
"U 	c #C69A64",
"V 	c #A6825C",
"W 	c #322624",
"X 	c #8E6E54",
"Y 	c #A27E54",
"Z 	c #7A624C",
"` 	c #664E3C",
" .	c #8A6E5C",
"..	c #6A5644",
"+.	c #261E1C",
"@.	c #2A2214",
"                                                                ",
"                                                                ",
"                                                                ",
"                                                                ",
"                                                                ",
"                                                                ",
"                                            . + @               ",
"                                          + # $ % &             ",
"                                      * = - ; > , *             ",
"                            . ' ) ! . = > ~ { ] # +             ",
"                        * & ^ / ] ( # & _ : ] < *               ",
"                      + & [ } | 1 2 3 4 + 5 6 )                 ",
"                      * 7 8 9 0 a b | c d ~ e +                 ",
"                    . f g h i j k a l m n # *                   ",
"                    + [ o p q r s t u 3 - .                     ",
"                      v w x y j z j A 8 B *                     ",
"                    * } w C t D t E 1 F G *                     ",
"                  . H v 9 r I j E J 0 K # .                     ",
"                * ) L { w M N O 9 P Q R !                       ",
"                * , S T b O R 9 P U V W +                       ",
"              + 5 ~ = ' < X J U Q Y 5 *                         ",
"            . e Z ` G % $ _ Z  ...+.*                           ",
"            * < X R ] 5 *   . + * +                             ",
"            e ..Z , e +                                         ",
"            = G @.*                                             ",
"            . . .                                               ",
"                                                                ",
"                                                                ",
"                                                                ",
"                                                                ",
"                                                                ",
"                                                                "};
