/* XPM */
static char * system24_xpm[] = {
"32 32 170 2",
"  	c None",
". 	c #342522",
"+ 	c #4E403E",
"@ 	c #645856",
"# 	c #54423E",
"$ 	c #624D4A",
"% 	c #5E4542",
"& 	c #625352",
"* 	c #6A5B5A",
"= 	c #766D6C",
"- 	c #9E8C8C",
"; 	c #D2BCBC",
"> 	c #BAACAA",
", 	c #5C4642",
"' 	c #665452",
") 	c #4A3532",
"! 	c #3E2C2A",
"~ 	c #423432",
"{ 	c #4A3B3A",
"] 	c #665D5C",
"^ 	c #AA9C9C",
"/ 	c #DEC4C4",
"( 	c #D2C3C2",
"_ 	c #C6BCBC",
": 	c #947E7A",
"< 	c #44312E",
"[ 	c #72605E",
"} 	c #46312E",
"| 	c #3C2926",
"1 	c #34211E",
"2 	c #3A2F2E",
"3 	c #AA8C8C",
"4 	c #BAACAC",
"5 	c #A69D9C",
"6 	c #BEB4B4",
"7 	c #9C827E",
"8 	c #241512",
"9 	c #664A46",
"0 	c #3C221E",
"a 	c #341E1A",
"b 	c #2C1916",
"c 	c #9A7C7C",
"d 	c #8E7C7A",
"e 	c #827474",
"f 	c #AE9C9C",
"g 	c #AA9494",
"h 	c #C6BDBC",
"i 	c #665856",
"j 	c #4C2822",
"k 	c #664E4A",
"l 	c #766866",
"m 	c #6A5C5C",
"n 	c #726464",
"o 	c #9E8484",
"p 	c #9A8D8C",
"q 	c #726362",
"r 	c #CABDBC",
"s 	c #968B8A",
"t 	c #AEA5A4",
"u 	c #CEC0BE",
"v 	c #5C352E",
"w 	c #563A36",
"x 	c #523D3A",
"y 	c #3C1F1A",
"z 	c #564442",
"A 	c #A69B9A",
"B 	c #6E5D5C",
"C 	c #A29392",
"D 	c #AA9B9A",
"E 	c #D6C5C4",
"F 	c #7C5F5A",
"G 	c #2C130E",
"H 	c #5C3832",
"I 	c #543732",
"J 	c #4E3532",
"K 	c #341A16",
"L 	c #B6ACAC",
"M 	c #766462",
"N 	c #8A7474",
"O 	c #EADCDC",
"P 	c #C2BBBA",
"Q 	c #AC928E",
"R 	c #341712",
"S 	c #563732",
"T 	c #2C1612",
"U 	c #3A2C2A",
"V 	c #8A7572",
"W 	c #8A6C6C",
"X 	c #D6C4C4",
"Y 	c #CABBBA",
"Z 	c #C6B4B2",
"` 	c #BCA29E",
" .	c #54302A",
"..	c #563E3A",
"+.	c #240E0A",
"@.	c #24120E",
"#.	c #322422",
"$.	c #C2ACAC",
"%.	c #B6A5A2",
"&.	c #C4A7A2",
"*.	c #2C0F0A",
"=.	c #4C2F2A",
"-.	c #34140E",
";.	c #1C100E",
">.	c #928382",
",.	c #CAB8B6",
"'.	c #82635E",
").	c #8E7672",
"!.	c #B49A96",
"~.	c #462722",
"{.	c #1C0D0A",
"].	c #7A6D6C",
"^.	c #9E8886",
"/.	c #DACDCC",
"(.	c #DED5D4",
"_.	c #C6B1AE",
":.	c #64403A",
"<.	c #6C443E",
"[.	c #A4837E",
"}.	c #44201A",
"|.	c #54332E",
"1.	c #442722",
"2.	c #3C1C16",
"3.	c #EEE0DE",
"4.	c #A6837E",
"5.	c #5C342E",
"6.	c #66433E",
"7.	c #8C655E",
"8.	c #4C2B26",
"9.	c #76605E",
"0.	c #C2B5B4",
"a.	c #CAB1AE",
"b.	c #5C312A",
"c.	c #744942",
"d.	c #543A36",
"e.	c #240B06",
"f.	c #463532",
"g.	c #82706E",
"h.	c #A29594",
"i.	c #DAC1BE",
"j.	c #946C66",
"k.	c #744C46",
"l.	c #844F46",
"m.	c #2C1712",
"n.	c #4C251E",
"o.	c #44241E",
"p.	c #86716E",
"q.	c #5E3E3A",
"r.	c #4A312E",
"s.	c #EAD4D2",
"t.	c #9E7872",
"u.	c #8C5E56",
"v.	c #5C2F26",
"w.	c #664742",
"x.	c #422926",
"y.	c #DAC4C2",
"z.	c #BA9792",
"A.	c #7C473E",
"B.	c #44160E",
"C.	c #64352E",
"D.	c #52332E",
"E.	c #9A8886",
"F.	c #A68782",
"G.	c #4C211A",
"H.	c #4C1E16",
"I.	c #523632",
"J.	c #8C6B66",
"K.	c #7C4E46",
"L.	c #2C100A",
"M.	c #1C110E",
"                                                                ",
"                                                                ",
"                                                                ",
"                                                                ",
"                                                                ",
"                                                                ",
"                        . + @ @ @ #                             ",
"                    . $ % & * = - ; > ,                         ",
"                  + ' ) ! ~ { ] ^ / ( _ :                       ",
"                < [ } | 1 1 2 & 3 4 4 5 6 7                     ",
"              8 9 $ + 0 a b 2 c d e - f g h i                   ",
"              j k l * l e m n o p q - r s t u                   ",
"              v w x y 0 } x z o A B ^ ; C D E F                 ",
"            G H I J a a K G b ] L M N O > s P Q                 ",
"            R H S ) 0 K T b 8 U - V W X Y f Z `                 ",
"            R  ...w y y +.+.@.#.e h $.h E Z %.&.+.              ",
"            *.=.I w y -.+.+.;.#.>.,./ u u '.).!.@.              ",
"            +.~.v ..y R *.+.{.b ].^./.(._.:.<.[.{.              ",
"              }.|.$ 1.2.*.+.G ! l s u 3.4.5.6.7.                ",
"              -.8.H J 2.R R U 9.>.0.3.a.!.b.c.d.                ",
"              e.0 v H y a f.B g.h./.i.j.` k.l.m.                ",
"                G n.=.o.0 p.q.r.A s.t.}.j.u.v.                  ",
"                  *.y ~.% w.x.g.y.z.A.B.C.c.                    ",
"                    *.5.<.8.D.E.F.c.G.H.B.                      ",
"                      e.R }.I.J.K.C.}.L.                        ",
"                          M.8 T y 8                             ",
"                                                                ",
"                                                                ",
"                                                                ",
"                                                                ",
"                                                                ",
"                                                                "};
