/* XPM */
static char * system27_xpm[] = {
"32 32 68 1",
" 	c None",
".	c #02070C",
"+	c #020406",
"@	c #060A0E",
"#	c #060B12",
"$	c #060C16",
"%	c #0C373A",
"&	c #0C555A",
"*	c #046972",
"=	c #046D76",
"-	c #04626A",
";	c #0C3336",
">	c #0A121E",
",	c #0C464A",
"'	c #04717A",
")	c #048792",
"!	c #0495A2",
"~	c #04A0AE",
"{	c #0A101A",
"]	c #04454A",
"^	c #049DAA",
"/	c #04AFBE",
"(	c #04B3C2",
"_	c #04BACA",
":	c #04B6C6",
"<	c #04A7B6",
"[	c #045E66",
"}	c #02070E",
"|	c #0C2C2E",
"1	c #045F66",
"2	c #04808A",
"3	c #049AA6",
"4	c #04ACBA",
"5	c #04BDCE",
"6	c #04C1D2",
"7	c #04BECE",
"8	c #04A3B2",
"9	c #0C2F32",
"0	c #060E1A",
"a	c #0C3B3E",
"b	c #046A72",
"c	c #04A8B6",
"d	c #04C5D6",
"e	c #04C4D6",
"f	c #04727A",
"g	c #048892",
"h	c #04ADBA",
"i	c #260A0C",
"j	c #044D52",
"k	c #04767E",
"l	c #048B96",
"m	c #04B4C2",
"n	c #0498A6",
"o	c #0C191A",
"p	c #045056",
"q	c #049EAA",
"r	c #04BBCA",
"s	c #04A9B6",
"t	c #04B7C6",
"u	c #048E9A",
"v	c #04676E",
"w	c #04848E",
"x	c #0497A2",
"y	c #04B0BE",
"z	c #220A0C",
"A	c #0C292A",
"B	c #045C62",
"C	c #046E76",
"                                ",
"                                ",
"                                ",
"                                ",
"                                ",
"                                ",
"                                ",
"              .....             ",
"           ..++++++..           ",
"          .+...+@##+++          ",
"         ..+++$%&*=-;++         ",
"        ..+..>,')!~~!-@+        ",
"        +.++{]')^/(_:<[+        ",
"       ..+.}|1234_566789+       ",
"       +.++0ab23c_6dee:=+       ",
"       .+..0]fg3h(_6dd_!@       ",
"       .+++ijkl3hm_7767no       ",
"       +...ipklqhmr777:^{       ",
"       ++..ijklqsmt___(u        ",
"       ..++>,'g3hhtr_tc=        ",
"        ...@%vwxsymmmc39        ",
"        .++.zjkl3shhc3[         ",
"         +.+.Ajkgx3xl[          ",
"          +.+}iaBC'*%           ",
"           .+.+}{>$.            ",
"                                ",
"                                ",
"                                ",
"                                ",
"                                ",
"                                ",
"                                "};
