/* XPM */
static char * system30_xpm[] = {
"32 32 105 2",
"  	c None",
". 	c #121204",
"+ 	c #2A2A04",
"@ 	c #3D3E04",
"# 	c #4D4E04",
"$ 	c #393A04",
"% 	c #292A04",
"& 	c #797A04",
"* 	c #B8BA04",
"= 	c #B0B204",
"- 	c #6D6E04",
"; 	c #858604",
"> 	c #595A04",
", 	c #757604",
"' 	c #515204",
") 	c #5D5E04",
"! 	c #898A04",
"~ 	c #696A04",
"{ 	c #8D8E04",
"] 	c #A0A204",
"^ 	c #989A04",
"/ 	c #717204",
"( 	c #888A04",
"_ 	c #494A04",
": 	c #313204",
"< 	c #949604",
"[ 	c #C0C204",
"} 	c #BCBE04",
"| 	c #454604",
"1 	c #A4A604",
"2 	c #C4C604",
"3 	c #B4B604",
"4 	c #A8AA04",
"5 	c #ACAE04",
"6 	c #DADE04",
"7 	c #C7CA04",
"8 	c #8C8E04",
"9 	c #656604",
"0 	c #848604",
"a 	c #353604",
"b 	c #C8CA04",
"c 	c #787A04",
"d 	c #D6DA04",
"e 	c #C3C604",
"f 	c #555604",
"g 	c #909204",
"h 	c #D3D604",
"i 	c #CED204",
"j 	c #222204",
"k 	c #0A0A04",
"l 	c #D7DA04",
"m 	c #E4EA04",
"n 	c #D9DE04",
"o 	c #AAAE04",
"p 	c #414204",
"q 	c #AFB204",
"r 	c #CCCE04",
"s 	c #CFD204",
"t 	c #CBCE04",
"u 	c #E6F20C",
"v 	c #E4EE04",
"w 	c #ABAE04",
"x 	c #747604",
"y 	c #161604",
"z 	c #A1A204",
"A 	c #E4F214",
"B 	c #E3F20C",
"C 	c #BEC204",
"D 	c #808204",
"E 	c #D2D604",
"F 	c #DDE204",
"G 	c #E3F21C",
"H 	c #D9E20C",
"I 	c #B7BA04",
"J 	c #7D7E04",
"K 	c #262604",
"L 	c #CACE04",
"M 	c #E2EA04",
"N 	c #E6F614",
"O 	c #E4F20C",
"P 	c #CBD204",
"Q 	c #E7F204",
"R 	c #E3EA04",
"S 	c #9C9E04",
"T 	c #E8EE04",
"U 	c #E2E604",
"V 	c #CFD604",
"W 	c #616204",
"X 	c #1E1E04",
"Y 	c #9D9E04",
"Z 	c #E9F204",
"` 	c #E5EE04",
" .	c #E7EE04",
"..	c #DEE204",
"+.	c #E5F20C",
"@.	c #EBF204",
"#.	c #BBBE04",
"$.	c #DCE204",
"%.	c #E8F214",
"&.	c #BABE04",
"*.	c #E1E604",
"=.	c #8A8E04",
"-.	c #D7DE04",
";.	c #919204",
">.	c #1A1A04",
"                                                                ",
"                                                                ",
"                                                                ",
"                                                                ",
"                                                                ",
"                                                                ",
"                          . + @ # $                             ",
"                      % & * = - ; > , '                         ",
"                    ) > ! ~ { ] ^ / ( - _ :                     ",
"                  < [ } ! | < 1 ( < > : , - _                   ",
"                & 2 3 4 4 5 6 7 8 ' _ > 9 $ 0 >                 ",
"              a 2 b b ^ ) c d 3 e / f ~ f + ( 5 %               ",
"              g h 2 } = 3 3 d 4 i | j | > ' / * /               ",
"            k [ l h [ * b } m n o p | : > q 8 g g               ",
"            : r h s 3 2 2 t u v q w x $ e d * = ^ y             ",
"            @ r 2 r 4 ; z t A B C ( D @ ] E e 5 < +             ",
"            $ } * 3 g ) & F B G H I { p J * * < D j             ",
"            K } 4 3 } 4 L M N O H * ! > ' * 0 & /               ",
"              3 } 4 2 m w P Q R s S ) j ~ g / p #               ",
"              9 [ * I T U V m E E g 1 > 1 9 > W X               ",
"              . Y s 6 d Z ` u  .T ..^ ~ 5 { # '                 ",
"                @ = d T ` A +.+.@.t 5 / W , f K                 ",
"                  f #.$.R v N %.T t ; X | 5 '                   ",
"                    | &.*.Q ` n 2 t D 0 5 #                     ",
"                        =.-.#.S [ s ;.) >.                      ",
"                            j $ $ j                             ",
"                                                                ",
"                                                                ",
"                                                                ",
"                                                                ",
"                                                                ",
"                                                                "};
