/* XPM */
static char * system14_xpm[] = {
"32 32 451 2",
"  	c None",
". 	c #0276A7",
"+ 	c #0388A7",
"@ 	c #03C1DA",
"# 	c #03AECB",
"$ 	c #02B0CD",
"% 	c #02AAC9",
"& 	c #0097CA",
"* 	c #004683",
"= 	c #0279B4",
"- 	c #05A0E1",
"; 	c #02B3ED",
"> 	c #00B2E6",
", 	c #00CCFF",
"' 	c #00C1EC",
") 	c #00E3FF",
"! 	c #00E0FF",
"~ 	c #01CBFF",
"{ 	c #0187BD",
"] 	c #019CBA",
"^ 	c #01A2C2",
"/ 	c #018896",
"( 	c #05D1EC",
"_ 	c #01ABF3",
": 	c #00BCF3",
"< 	c #00B3DC",
"[ 	c #00B4D8",
"} 	c #00B9EC",
"| 	c #00C7FF",
"1 	c #00A9FF",
"2 	c #009BFF",
"3 	c #0087FF",
"4 	c #0093F3",
"5 	c #00CADE",
"6 	c #01C9EF",
"7 	c #00B2F2",
"8 	c #0071A2",
"9 	c #018792",
"0 	c #00BACA",
"a 	c #00D0F8",
"b 	c #00A0FF",
"c 	c #00A9DC",
"d 	c #00CDF4",
"e 	c #00CCFB",
"f 	c #00DFFF",
"g 	c #00BCFF",
"h 	c #00B5FF",
"i 	c #00A3FC",
"j 	c #0074C4",
"k 	c #005FC6",
"l 	c #017FD4",
"m 	c #03B5F5",
"n 	c #0099D8",
"o 	c #0087B3",
"p 	c #006C9C",
"q 	c #0099A5",
"r 	c #00A4B0",
"s 	c #0098AE",
"t 	c #00B2EF",
"u 	c #00B4FF",
"v 	c #00C6FF",
"w 	c #0075FF",
"x 	c #00A2FF",
"y 	c #0083FF",
"z 	c #016DFF",
"A 	c #005DDA",
"B 	c #006F90",
"C 	c #008199",
"D 	c #0077BC",
"E 	c #0189DC",
"F 	c #0290D8",
"G 	c #00B6CC",
"H 	c #009BC1",
"I 	c #00405C",
"J 	c #03B7C5",
"K 	c #00767F",
"L 	c #0097B9",
"M 	c #00A4FF",
"N 	c #01B0F8",
"O 	c #0077FF",
"P 	c #0043FF",
"Q 	c #003CFF",
"R 	c #0047FF",
"S 	c #0142FF",
"T 	c #014AFF",
"U 	c #004CCF",
"V 	c #006899",
"W 	c #00BADE",
"X 	c #00BBD8",
"Y 	c #009EDE",
"Z 	c #009EF6",
"` 	c #009DE6",
" .	c #00B7E5",
"..	c #006D87",
"+.	c #027FA9",
"@.	c #007090",
"#.	c #00697A",
"$.	c #00AAE8",
"%.	c #009CFF",
"&.	c #0075AC",
"*.	c #0067A9",
"=.	c #004A9C",
"-.	c #00387B",
";.	c #01266F",
">.	c #013193",
",.	c #0043D5",
"'.	c #004AF2",
").	c #0058C4",
"!.	c #00A3E7",
"~.	c #00C2F5",
"{.	c #00BFF3",
"].	c #009BF9",
"^.	c #0090E1",
"/.	c #027BB8",
"(.	c #009CBA",
"_.	c #005363",
":.	c #00A2DE",
"<.	c #00586C",
"[.	c #007084",
"}.	c #0084B0",
"|.	c #00588F",
"1.	c #014467",
"2.	c #02648D",
"3.	c #025E90",
"4.	c #014A73",
"5.	c #004861",
"6.	c #014270",
"7.	c #024A97",
"8.	c #0037B3",
"9.	c #003AC1",
"0.	c #0060E9",
"a.	c #0089FF",
"b.	c #009AEE",
"c.	c #0078B0",
"d.	c #00D0ED",
"e.	c #0097BA",
"f.	c #0082AF",
"g.	c #00AAE5",
"h.	c #004C5D",
"i.	c #006676",
"j.	c #006980",
"k.	c #004656",
"l.	c #003C48",
"m.	c #004A5C",
"n.	c #006089",
"o.	c #015F93",
"p.	c #00799B",
"q.	c #0093B9",
"r.	c #0175AF",
"s.	c #004E94",
"t.	c #005D8F",
"u.	c #0063C7",
"v.	c #006AF1",
"w.	c #0071FF",
"x.	c #0074FF",
"y.	c #0083E9",
"z.	c #0078B7",
"A.	c #02ABE3",
"B.	c #007AD4",
"C.	c #005698",
"D.	c #00A4DA",
"E.	c #0093C9",
"F.	c #005077",
"G.	c #005763",
"H.	c #00676F",
"I.	c #007281",
"J.	c #00848F",
"K.	c #007986",
"L.	c #00667C",
"M.	c #016F86",
"N.	c #0286B5",
"O.	c #007CB4",
"P.	c #006C94",
"Q.	c #006B96",
"R.	c #0081D6",
"S.	c #0075F0",
"T.	c #0065E4",
"U.	c #006CE4",
"V.	c #0171BD",
"W.	c #0074B7",
"X.	c #018BC0",
"Y.	c #0078AF",
"Z.	c #006086",
"`.	c #0094C2",
" +	c #00A9D6",
".+	c #006C98",
"++	c #00536C",
"@+	c #00666E",
"#+	c #008EA6",
"$+	c #0199DC",
"%+	c #008CC9",
"&+	c #008BAB",
"*+	c #008B9D",
"=+	c #008091",
"-+	c #007E97",
";+	c #01597D",
">+	c #006177",
",+	c #0085AE",
"'+	c #00A4E6",
")+	c #0067FF",
"!+	c #006BF2",
"~+	c #007CFF",
"{+	c #0051CF",
"]+	c #006AB1",
"^+	c #0171AE",
"/+	c #008CAB",
"(+	c #0091AE",
"_+	c #00B0D3",
":+	c #00B6DE",
"<+	c #00AEF6",
"[+	c #0078A0",
"}+	c #005962",
"|+	c #00AEC8",
"1+	c #0493DA",
"2+	c #0493D4",
"3+	c #0390D2",
"4+	c #017AA7",
"5+	c #007C97",
"6+	c #0090A0",
"7+	c #008FA4",
"8+	c #018CA5",
"9+	c #00A0E6",
"0+	c #0086FF",
"a+	c #0078FF",
"b+	c #006AFF",
"c+	c #0059F8",
"d+	c #003399",
"e+	c #004C80",
"f+	c #01639B",
"g+	c #008AA4",
"h+	c #00B3CD",
"i+	c #00BCE0",
"j+	c #00ADD5",
"k+	c #009EDC",
"l+	c #0072A7",
"m+	c #005564",
"n+	c #00899A",
"o+	c #0389AE",
"p+	c #0192E6",
"q+	c #0088B8",
"r+	c #0275A0",
"s+	c #0093A9",
"t+	c #029FC0",
"u+	c #00C8FF",
"v+	c #00C4FF",
"w+	c #002AFF",
"x+	c #0048FF",
"y+	c #003BBD",
"z+	c #002E5D",
"A+	c #015079",
"B+	c #016FA1",
"C+	c #0097AA",
"D+	c #00C5D8",
"E+	c #00B2E5",
"F+	c #0093CC",
"G+	c #0093CB",
"H+	c #0092C3",
"I+	c #00657A",
"J+	c #00A0B0",
"K+	c #0197C6",
"L+	c #0187FF",
"M+	c #0390EF",
"N+	c #0282BC",
"O+	c #029FC8",
"P+	c #05AEDE",
"Q+	c #00C3FF",
"R+	c #006DFF",
"S+	c #003BFF",
"T+	c #0041DD",
"U+	c #002475",
"V+	c #002356",
"W+	c #00375E",
"X+	c #0086B1",
"Y+	c #0086C1",
"Z+	c #00A6C6",
"`+	c #00C1E2",
" @	c #004A77",
".@	c #0093CD",
"+@	c #0093D2",
"@@	c #0078A7",
"#@	c #006372",
"$@	c #008FA2",
"%@	c #00A3CB",
"&@	c #0377C5",
"*@	c #004EFF",
"=@	c #004BFF",
"-@	c #0067FC",
";@	c #0065FF",
">@	c #005EFF",
",@	c #002DFF",
"'@	c #0035AA",
")@	c #00274E",
"!@	c #002948",
"~@	c #003D5B",
"{@	c #006E89",
"]@	c #0071AB",
"^@	c #00B0D4",
"/@	c #009FF1",
"(@	c #0070B2",
"_@	c #0097D1",
":@	c #008ECC",
"<@	c #0074C6",
"[@	c #0082A0",
"}@	c #008596",
"|@	c #008CB0",
"1@	c #04738B",
"2@	c #004777",
"3@	c #002965",
"4@	c #002670",
"5@	c #003FAD",
"6@	c #0051ED",
"7@	c #003FCC",
"8@	c #002056",
"9@	c #002F47",
"0@	c #0083A5",
"a@	c #00A2C7",
"b@	c #0190B4",
"c@	c #0096B5",
"d@	c #027A95",
"e@	c #00556B",
"f@	c #00203E",
"g@	c #0092C8",
"h@	c #0099D6",
"i@	c #00A8ED",
"j@	c #0082CB",
"k@	c #0077EE",
"l@	c #00758F",
"m@	c #00798D",
"n@	c #016D84",
"o@	c #045975",
"p@	c #033A4E",
"q@	c #025471",
"r@	c #0162B7",
"s@	c #0043B2",
"t@	c #002946",
"u@	c #00455C",
"v@	c #008DAA",
"w@	c #0080B5",
"x@	c #007893",
"y@	c #006882",
"z@	c #006777",
"A@	c #003C45",
"B@	c #02608A",
"C@	c #006EDD",
"D@	c #0098E0",
"E@	c #0065C8",
"F@	c #0058CF",
"G@	c #0179CA",
"H@	c #007BA5",
"I@	c #008FAC",
"J@	c #0093B3",
"K@	c #0094D3",
"L@	c #00B2DA",
"M@	c #0051B3",
"N@	c #002F4B",
"O@	c #004452",
"P@	c #005E75",
"Q@	c #005E82",
"R@	c #005C77",
"S@	c #006F85",
"T@	c #005B64",
"U@	c #003E45",
"V@	c #043875",
"W@	c #006186",
"X@	c #00628E",
"Y@	c #0078A5",
"Z@	c #0058ED",
"`@	c #0043E4",
" #	c #0269A9",
".#	c #0294D8",
"+#	c #009FD2",
"@#	c #00B0E3",
"##	c #00B3FF",
"$#	c #009AC4",
"%#	c #004053",
"&#	c #00364A",
"*#	c #006779",
"=#	c #0079A2",
"-#	c #016D95",
";#	c #00A4B5",
">#	c #005873",
",#	c #025376",
"'#	c #0094B4",
")#	c #00AED4",
"!#	c #007CCB",
"~#	c #003885",
"{#	c #002B78",
"]#	c #024CC5",
"^#	c #005CEA",
"/#	c #008EF3",
"(#	c #008AC9",
"_#	c #005697",
":#	c #003B53",
"<#	c #005665",
"[#	c #00768D",
"}#	c #017D9A",
"|#	c #008CA8",
"1#	c #006C8C",
"2#	c #002648",
"3#	c #006D9E",
"4#	c #008FE4",
"5#	c #0089E6",
"6#	c #00517B",
"7#	c #013851",
"8#	c #014271",
"9#	c #013379",
"0#	c #02385E",
"a#	c #003572",
"b#	c #003656",
"c#	c #003346",
"d#	c #004B5B",
"e#	c #00788F",
"f#	c #047F96",
"g#	c #00AFBA",
"h#	c #006F87",
"i#	c #002338",
"j#	c #033163",
"k#	c #005C8E",
"l#	c #005B7A",
"m#	c #008D97",
"n#	c #047495",
"o#	c #02557C",
"p#	c #043A4E",
"q#	c #033E5C",
"r#	c #004B59",
"s#	c #005C6F",
"t#	c #038293",
"u#	c #00D5E3",
"v#	c #008996",
"w#	c #01636D",
"x#	c #003D41",
"y#	c #003440",
"z#	c #004354",
"A#	c #00969E",
"B#	c #00D3DF",
"C#	c #00A4B1",
"D#	c #00B3BD",
"E#	c #00AFB9",
"F#	c #00808D",
"G#	c #00A2AF",
"H#	c #046672",
"I#	c #006F78",
"J#	c #00393F",
"K#	c #008A92",
"L#	c #00B4BE",
"M#	c #007C96",
"N#	c #009DB3",
"O#	c #0098A5",
"P#	c #00A7B4",
"Q#	c #03747D",
"R#	c #01373C",
"                                                                ",
"                                                                ",
"                                                                ",
"                                                                ",
"                        . + @ # $ % & *                         ",
"                    = - ; > , ' ) ! ~ { ] ^                     ",
"                / ( _ : < [ } | 1 2 3 4 5 6 7 8                 ",
"              9 0 a b c d e f g h i j k l m n o p               ",
"            q r s t u | v w x y z A B C D E F G H I             ",
"            J K L M N O P Q R S T U V W X Y Z `  ...            ",
"          +.@.#.$.%.&.*.=.-.;.>.,.'.).!.~.{.].^./.(._.          ",
"          :.<.[.}.|.1.2.3.4.5.6.7.8.9.0.a.h g b.c.d.e.          ",
"        f.g.h.i.j.k.l.m.n.o.p.q.r.s.t.u.v.w.x.y.z.A.B.C.        ",
"        D.E.F.G.H.I.[.J.K.L.M.N.O.P.Q.R.S.T.U.V.W.X.Y.Z.        ",
"        `. +.+++@+#+$+%+&+*+=+-+;+>+,+'+)+!+~+{+]+^+/+(+        ",
"        _+:+<+[+}+|+1+2+3+4+5+6+7+8+9+0+a+b+c+d+e+f+g+h+        ",
"        i+j+k+l+m+n+o+p+b q+r+s+t+u+v+a.w+x+y+z+A+B+C+D+        ",
"        E+F+G+H+I+I.J+K+L+M+N+O+P+Q+R+S+T+U+V+W+X+Y+Z+`+        ",
"         @%+.@+@@@#@$@%@&@*@=@-@;@>@,@'@)@!@~@{@q.]@^@/@        ",
"          (@_@:@<@[@}@|@1@2@3@4@5@6@7@8@9@0@a@b@c@d@e@f@        ",
"          g@h@i@j@k@l+l@m@n@o@p@q@r@s@t@u@v@w@x@y@z@A@          ",
"          B@C@D@E@F@G@H@I@J@a@K@L@i@M@N@O@P@Q@R@S@T@U@          ",
"            V@W@X@Y@Z@`@ #.#+#@###g $#%#&#*#=#-#;#>#            ",
"              ,#'#)#!#~#{#]#^#/#b (#_#:#<#[#}#|#1#2#            ",
"                3#4#5#6#7#8#9#0#a#b#c#d#e#f#g#h#i#              ",
"                  j#k#l#m#n#o#p#q#r#s#t#u#v#w#x#                ",
"                    y#z#A#B#C#D#E#F#G#H#I#J#                    ",
"                        K#L#M#N#O#P#Q#R#                        ",
"                                                                ",
"                                                                ",
"                                                                ",
"                                                                "};
