/* XPM */
static char * system2_xpm[] = {
"32 32 463 2",
"  	c None",
". 	c #005AA0",
"+ 	c #00BBDA",
"@ 	c #00D6DB",
"# 	c #00D5DC",
"$ 	c #00A4C7",
"% 	c #009AC0",
"& 	c #006783",
"* 	c #02557C",
"= 	c #007FA5",
"- 	c #0069B5",
"; 	c #008ECD",
"> 	c #0091C1",
", 	c #00BBCB",
"' 	c #00C6D2",
") 	c #00B9D1",
"! 	c #0098C5",
"~ 	c #0096BE",
"{ 	c #0087B1",
"] 	c #026882",
"^ 	c #062B98",
"/ 	c #0042CF",
"( 	c #008CBE",
"_ 	c #009DD2",
": 	c #0092C6",
"< 	c #0092C2",
"[ 	c #0099CE",
"} 	c #009FDB",
"| 	c #00739E",
"1 	c #006093",
"2 	c #00717B",
"3 	c #007982",
"4 	c #007184",
"5 	c #03A58C",
"6 	c #008572",
"7 	c #0375A5",
"8 	c #00A1D5",
"9 	c #0094DD",
"0 	c #009CD6",
"a 	c #008DCB",
"b 	c #008EC8",
"c 	c #00AED8",
"d 	c #0098E2",
"e 	c #00A4CB",
"f 	c #007188",
"g 	c #00716C",
"h 	c #007E7A",
"i 	c #007C7E",
"j 	c #006B69",
"k 	c #007160",
"l 	c #00957F",
"m 	c #017362",
"n 	c #0074A9",
"o 	c #00B5C1",
"p 	c #008BCA",
"q 	c #0043CB",
"r 	c #0065AA",
"s 	c #0059BA",
"t 	c #0097CD",
"u 	c #00A7B0",
"v 	c #008689",
"w 	c #006F63",
"x 	c #006B5B",
"y 	c #007464",
"z 	c #008E97",
"A 	c #008CAF",
"B 	c #008EB8",
"C 	c #00858E",
"D 	c #008B84",
"E 	c #009D88",
"F 	c #017266",
"G 	c #052C91",
"H 	c #0074CD",
"I 	c #00B3BE",
"J 	c #0091C0",
"K 	c #0022C1",
"L 	c #0049E5",
"M 	c #0098A5",
"N 	c #008B87",
"O 	c #00877F",
"P 	c #009287",
"Q 	c #00AAA3",
"R 	c #008483",
"S 	c #00776F",
"T 	c #007984",
"U 	c #006BC8",
"V 	c #0087EC",
"W 	c #0092DE",
"X 	c #0097BF",
"Y 	c #00BDC1",
"Z 	c #04ABA0",
"` 	c #008A96",
" .	c #0085DB",
"..	c #006CD8",
"+.	c #0069C5",
"@.	c #000ECF",
"#.	c #0164C3",
"$.	c #0180BD",
"%.	c #008F84",
"&.	c #00928A",
"*.	c #00A694",
"=.	c #0392A8",
"-.	c #0479B8",
";.	c #017AAE",
">.	c #007273",
",.	c #00777F",
"'.	c #037AC0",
").	c #0185C7",
"!.	c #01A4E1",
"~.	c #00B2EA",
"{.	c #008CE6",
"].	c #0181B4",
"^.	c #025885",
"/.	c #009EB0",
"(.	c #00A8D6",
"_.	c #0180C9",
":.	c #0020CF",
"<.	c #1100D9",
"[.	c #0190B1",
"}.	c #008B93",
"|.	c #009DAF",
"1.	c #00AEC1",
"2.	c #0199B9",
"3.	c #0176CB",
"4.	c #047EB6",
"5.	c #007AAE",
"6.	c #008372",
"7.	c #017984",
"8.	c #0388BD",
"9.	c #016AC3",
"0.	c #0044DF",
"a.	c #00C9E5",
"b.	c #00C7EF",
"c.	c #00C0E2",
"d.	c #047CAB",
"e.	c #009A7D",
"f.	c #00CDA6",
"g.	c #01C3A3",
"h.	c #0370A1",
"i.	c #000AC5",
"j.	c #0360AC",
"k.	c #00A2A9",
"l.	c #009796",
"m.	c #06B0B7",
"n.	c #0360BB",
"o.	c #0156D7",
"p.	c #0089EC",
"q.	c #0388C7",
"r.	c #008D99",
"s.	c #008A7C",
"t.	c #017BAC",
"u.	c #0370B8",
"v.	c #003BDB",
"w.	c #0900D7",
"x.	c #00B8D3",
"y.	c #00DADF",
"z.	c #00D2E1",
"A.	c #029ABC",
"B.	c #025C7E",
"C.	c #00C19C",
"D.	c #00EDC0",
"E.	c #0593AA",
"F.	c #0250A2",
"G.	c #0211AD",
"H.	c #027AB5",
"I.	c #0097A0",
"J.	c #02959B",
"K.	c #0161BD",
"L.	c #000EF3",
"M.	c #0369CD",
"N.	c #01A6D2",
"O.	c #0284AA",
"P.	c #00978E",
"Q.	c #00939D",
"R.	c #0276C3",
"S.	c #0276C6",
"T.	c #0034EA",
"U.	c #0F00E1",
"V.	c #0038D1",
"W.	c #00CCDC",
"X.	c #00D5DD",
"Y.	c #00AAC8",
"Z.	c #038792",
"`.	c #019399",
" +	c #00C8AB",
".+	c #0478B1",
"++	c #021EC2",
"@+	c #0017D2",
"#+	c #008DAC",
"$+	c #00A7B4",
"%+	c #068BAA",
"&+	c #001DE0",
"*+	c #000DF1",
"=+	c #027DB7",
"-+	c #0388B0",
";+	c #008F98",
">+	c #00968D",
",+	c #029FA6",
"'+	c #01A7C1",
")+	c #01A0C6",
"!+	c #0403D4",
"~+	c #1500E0",
"{+	c #0079D1",
"]+	c #00DFD4",
"^+	c #00C3E0",
"/+	c #00D1E5",
"(+	c #03C1B5",
"_+	c #00BCB2",
":+	c #00DEB4",
"<+	c #076888",
"[+	c #0455AE",
"}+	c #0068D7",
"|+	c #00A0BC",
"1+	c #0089C1",
"2+	c #0781A6",
"3+	c #0002E9",
"4+	c #0020D8",
"5+	c #029EB2",
"6+	c #00A39E",
"7+	c #009D8E",
"8+	c #01A1A5",
"9+	c #0390B7",
"0+	c #01ABBE",
"a+	c #025FC2",
"b+	c #0602DC",
"c+	c #0E01E0",
"d+	c #004FCF",
"e+	c #00C9F0",
"f+	c #00C5E5",
"g+	c #00C2D0",
"h+	c #03C2C1",
"i+	c #01B096",
"j+	c #00D0AA",
"k+	c #055F92",
"l+	c #002FBC",
"m+	c #009CDB",
"n+	c #00B8C6",
"o+	c #049EC5",
"p+	c #000EE5",
"q+	c #0031E2",
"r+	c #0496AE",
"s+	c #029BA2",
"t+	c #009B96",
"u+	c #027AA8",
"v+	c #018DCF",
"w+	c #0281C7",
"x+	c #033DD2",
"y+	c #0901E4",
"z+	c #0101E4",
"A+	c #0138DA",
"B+	c #00C3F3",
"C+	c #0092DD",
"D+	c #00DBCB",
"E+	c #02CCC8",
"F+	c #01BFA1",
"G+	c #009F8D",
"H+	c #019899",
"I+	c #006ABB",
"J+	c #009CE7",
"K+	c #00B7E4",
"L+	c #00AAE9",
"M+	c #0256DB",
"N+	c #0002ED",
"O+	c #0044EC",
"P+	c #00AECA",
"Q+	c #00C9DD",
"R+	c #019091",
"S+	c #008C97",
"T+	c #01A6D8",
"U+	c #0052DE",
"V+	c #0B01EB",
"W+	c #0E00EC",
"X+	c #010FE8",
"Y+	c #0129E2",
"Z+	c #0090F0",
"`+	c #007FDC",
" @	c #00E2D2",
".@	c #02BFC1",
"+@	c #04937E",
"@@	c #00C2A6",
"#@	c #00858C",
"$@	c #007294",
"%@	c #006AE9",
"&@	c #00D7F6",
"*@	c #0037F3",
"=@	c #0014F4",
"-@	c #0D00EE",
";@	c #1500E5",
">@	c #005EED",
",@	c #00DCF0",
"'@	c #007CB1",
")@	c #0088A4",
"!@	c #00A2DC",
"~@	c #0097F7",
"{@	c #1001F1",
"]@	c #0033E8",
"^@	c #019AE5",
"/@	c #00BFE0",
"(@	c #0076EC",
"_@	c #0070E8",
":@	c #01B9CD",
"<@	c #0090B4",
"[@	c #03655A",
"}@	c #069B8F",
"|@	c #03938A",
"1@	c #00868D",
"2@	c #00749F",
"3@	c #00C8EE",
"4@	c #008AF4",
"5@	c #006DE3",
"6@	c #0013E3",
"7@	c #0B01EA",
"8@	c #0700E4",
"9@	c #0084EC",
"0@	c #007EED",
"a@	c #0092C7",
"b@	c #0075E1",
"c@	c #004EF7",
"d@	c #0022EE",
"e@	c #00AEF3",
"f@	c #00E0E5",
"g@	c #00DADD",
"h@	c #0040E6",
"i@	c #0078E6",
"j@	c #0299CF",
"k@	c #0043AB",
"l@	c #00C5AC",
"m@	c #00E1B9",
"n@	c #008D91",
"o@	c #008889",
"p@	c #006E8E",
"q@	c #00AEBA",
"r@	c #00B6E2",
"s@	c #017DC5",
"t@	c #0044E0",
"u@	c #1400F4",
"v@	c #0E00F4",
"w@	c #005DE7",
"x@	c #0027E8",
"y@	c #0047F0",
"z@	c #0032F1",
"A@	c #0060F4",
"B@	c #00CEE9",
"C@	c #00D9D3",
"D@	c #008BEE",
"E@	c #0271DC",
"F@	c #00F3D7",
"G@	c #02D8DC",
"H@	c #019082",
"I@	c #00CBB2",
"J@	c #048E8F",
"K@	c #008A8F",
"L@	c #008182",
"M@	c #008895",
"N@	c #00C9D3",
"O@	c #00C6DD",
"P@	c #0161D5",
"Q@	c #0D00F1",
"R@	c #0900F0",
"S@	c #0030E7",
"T@	c #0031E9",
"U@	c #003EF9",
"V@	c #00A2DF",
"W@	c #00BED9",
"X@	c #00A2DE",
"Y@	c #027EE1",
"Z@	c #03A9DA",
"`@	c #01DDE3",
" #	c #01A9AE",
".#	c #02B6A3",
"+#	c #00BD9C",
"@#	c #018591",
"##	c #007F9E",
"$#	c #006F94",
"%#	c #009CDA",
"&#	c #00E4F6",
"*#	c #008FDE",
"=#	c #001BE8",
"-#	c #0B00F0",
";#	c #000AED",
">#	c #004AED",
",#	c #0041F4",
"'#	c #0045F6",
")#	c #00B3DF",
"!#	c #0082E9",
"~#	c #008CEC",
"{#	c #038EDD",
"]#	c #00A4E3",
"^#	c #00AEE1",
"/#	c #008C77",
"(#	c #00ABB6",
"_#	c #009CA3",
":#	c #027699",
"<#	c #0089A0",
"[#	c #00BFCD",
"}#	c #02CDE2",
"|#	c #00D9EE",
"1#	c #0072E7",
"2#	c #0044DE",
"3#	c #0000EF",
"4#	c #001BF0",
"5#	c #0276E8",
"6#	c #006AF1",
"7#	c #0090EE",
"8#	c #008CEE",
"9#	c #009CE8",
"0#	c #00E4D2",
"a#	c #00B2DC",
"b#	c #0071A1",
"c#	c #004884",
"d#	c #0091AD",
"e#	c #00A492",
"f#	c #019699",
"g#	c #00A4B8",
"h#	c #01DFE7",
"i#	c #00D3EC",
"j#	c #01BDE5",
"k#	c #0386D1",
"l#	c #0071E1",
"m#	c #0072E1",
"n#	c #0184E3",
"o#	c #008FE3",
"p#	c #0198E2",
"q#	c #0391E2",
"r#	c #00CBE3",
"s#	c #00C5D7",
"t#	c #0080B9",
"u#	c #003E9E",
"v#	c #0084A1",
"w#	c #009484",
"x#	c #00AAA5",
"y#	c #03BFCC",
"z#	c #017FC8",
"A#	c #009EE2",
"B#	c #0297DB",
"C#	c #0282DD",
"D#	c #0283DA",
"E#	c #02A5DA",
"F#	c #02B6DF",
"G#	c #00F1E4",
"H#	c #00E6EB",
"I#	c #00C1D4",
"J#	c #0079B0",
"K#	c #00887C",
"L#	c #019C97",
"M#	c #00B8CF",
"N#	c #00D5DE",
"O#	c #00D0D5",
"P#	c #00EAD9",
"Q#	c #00DDE1",
"R#	c #01D0DD",
"S#	c #0095DA",
"T#	c #0068DF",
"U#	c #00D3E3",
"V#	c #00B1B6",
"W#	c #00389A",
"X#	c #0088D8",
"Y#	c #00C7C5",
"Z#	c #00E8CC",
"`#	c #00DDD4",
" $	c #01C8CE",
".$	c #008ABA",
"+$	c #004AA6",
"                                                                ",
"                                                                ",
"                                                                ",
"                                                                ",
"                          . + @ # $ % &                         ",
"                    * = - ; > , ' ) ! ~ { ]                     ",
"                  ^ / ( _ : < [ } | 1 2 3 4 5 6                 ",
"                7 8 9 0 a b c d e f g h i j k l m               ",
"              n o p q r s t u v w x y z A B C D E F             ",
"            G H I J K L M N O P Q R S T U V W X Y Z             ",
"          `  ...+.@.#.$.%.&.*.=.-.;.>.,.'.).!.~.{.].^.          ",
"          /.(._.:.<.[.}.|.1.2.3.4.5.6.7.8.9.0.a.b.c.d.          ",
"        e.f.g.h.i.j.k.l.m.n.o.p.q.r.s.t.u.v.w.x.y.z.A.B.        ",
"        C.D.E.F.G.H.I.J.K.L.M.N.O.P.Q.R.S.T.U.V.W.X.Y.Z.        ",
"        `. +.+++@+#+$+%+&+*+=+-+;+>+,+'+)+!+~+{+]+^+/+(+        ",
"        _+:+<+[+}+|+1+2+3+4+5+6+7+8+9+0+a+b+c+d+e+f+g+h+        ",
"        i+j+k+l+V m+n+o+p+q+r+s+t+u+v+w+x+y+z+A+B+C+D+E+        ",
"        F+G+H+I+J+K+L+M+N+O+P+Q+R+S+T+U+V+W+X+Y+Z+`+ @.@        ",
"        +@@@#@$@%@&@*@=@-@;@>@,@'@)@!@~@{@]@^@/@(@_@:@<@        ",
"        [@}@|@1@2@3@4@5@6@7@8@9@0@a@b@c@d@e@f@g@h@i@j@k@        ",
"          l@m@n@o@p@q@r@s@t@u@v@w@x@y@z@A@B@C@D@E@F@G@          ",
"          H@I@J@K@L@M@N@O@P@Q@R@S@T@z@U@V@W@X@Y@Z@`@ #          ",
"            .#+#@###$#%#&#*#=#-#;#>#,#'#)#!#~#{#]#^#            ",
"            /#(#_#:#<#[#}#|#1#2#3#4#5#6#7#8#9#0#a#b#            ",
"              c#d#e#f#g#h#i#j#k#l#m#n#o#p#q#r#s#t#              ",
"                u#v#w#x#y#z#A#B#C#D#E#F#G#H#I#J#                ",
"                    K#L#M#N#O#P#Q#R#S#T#U#V#                    ",
"                        W#X#Y#Z#`# $.$+$                        ",
"                                                                ",
"                                                                ",
"                                                                ",
"                                                                "};
