/* XPM */
static char * system7_xpm[] = {
"32 32 98 2",
"  	c None",
". 	c #2E1A24",
"+ 	c #1A0E14",
"@ 	c #020204",
"# 	c #2E1E2C",
"$ 	c #724A5C",
"% 	c #7E4A5C",
"& 	c #522E3C",
"* 	c #160A0C",
"= 	c #8A5E7C",
"- 	c #AE7294",
"; 	c #8A5674",
"> 	c #6A3E54",
", 	c #462634",
"' 	c #0E060C",
") 	c #000000",
"! 	c #B686AC",
"~ 	c #DA96BC",
"{ 	c #AA7694",
"] 	c #865674",
"^ 	c #5E3A4C",
"/ 	c #3A1E2C",
"( 	c #0E0A0C",
"_ 	c #A27A9C",
": 	c #E2AAD4",
"< 	c #BE8EB4",
"[ 	c #926A8C",
"} 	c #6E4A64",
"| 	c #4A2E44",
"1 	c #22121C",
"2 	c #4E3A4C",
"3 	c #CEA2D4",
"4 	c #D29ECC",
"5 	c #664664",
"6 	c #3E2A3C",
"7 	c #1A121C",
"8 	c #B28AB4",
"9 	c #D2A6D4",
"0 	c #BE92BC",
"a 	c #A27AA4",
"b 	c #826284",
"c 	c #62465C",
"d 	c #120A0C",
"e 	c #010103",
"f 	c #322634",
"g 	c #DEAEDC",
"h 	c #E6B2E4",
"i 	c #C696C4",
"j 	c #9E7AA4",
"k 	c #7A5A7C",
"l 	c #563E54",
"m 	c #322234",
"n 	c #624A64",
"o 	c #EEBAEC",
"p 	c #E6B6E4",
"q 	c #AE82AC",
"r 	c #825E7C",
"s 	c #563A54",
"t 	c #0A060C",
"u 	c #010102",
"v 	c #765674",
"w 	c #E2AEDC",
"x 	c #9E769C",
"y 	c #523A54",
"z 	c #060604",
"A 	c #000001",
"B 	c #725A74",
"C 	c #D6A2CC",
"D 	c #BA8AB4",
"E 	c #9E6E94",
"F 	c #725274",
"G 	c #4E364C",
"H 	c #26161C",
"I 	c #56425C",
"J 	c #CA9ECC",
"K 	c #967294",
"L 	c #2A1A2C",
"M 	c #060204",
"N 	c #2A222C",
"O 	c #362234",
"P 	c #0A0604",
"Q 	c #F2B6E4",
"R 	c #F2B2DC",
"S 	c #CA92BC",
"T 	c #9E7294",
"U 	c #F6AEDC",
"V 	c #D696BC",
"W 	c #7A526C",
"X 	c #4E2E44",
"Y 	c #B27A9C",
"Z 	c #EE9EC4",
"` 	c #C682A4",
" .	c #8E5A74",
"..	c #56364C",
"+.	c #7A5264",
"@.	c #C27A9C",
"#.	c #925A74",
"$.	c #5E364C",
"                                                                ",
"                                                                ",
"                                                                ",
"                                                                ",
"                                                                ",
"                                                                ",
"                                . + @                           ",
"                          # $ % & * @ @ @                       ",
"                        = - ; > , ' @ @ @ @ )                   ",
"                      ! ~ { ] ^ / ( @ @ @ @ ) )                 ",
"                    _ : < [ } | 1 @ @ @ @ @ ) )                 ",
"                  2 3 4 ! [ 5 6 7 @ @ @ @ @ ) ) )               ",
"                  8 9 0 a b c , d @ @ @ @ e ) ) )               ",
"                f g h i j k l m ( @ @ @ @ e ) ) )               ",
"                n o p 4 q r s # t @ @ @ @ u ) ) ) )             ",
"                v o w i x v y # z @ @ @ @ A ) ) ) )             ",
"                B g C D E F G H @ @ @ @ @ A ) ) ) )             ",
"                I J J < K F G L M @ @ @ @ ) ) ) ) )             ",
"                N 3 9 < x v l m t @ @ @ @ ) ) ) )               ",
"                  8 h C ! [ 5 O P @ @ @ @ ) ) ) )               ",
"                  2 Q R S E } 6 d @ @ @ @ ) ) )                 ",
"                    T U V - W X 1 @ @ @ @ ) ) )                 ",
"                      Y Z `  ...1 @ @ @ @ A )                   ",
"                        +.@.#.$.H @ @ @ @ e                     ",
"                            $.> / M @ @                         ",
"                                + P                             ",
"                                                                ",
"                                                                ",
"                                                                ",
"                                                                ",
"                                                                ",
"                                                                "};
