/* XPM */
static char * system34_xpm[] = {
"32 32 97 2",
"  	c None",
". 	c #04060A",
"+ 	c #041232",
"@ 	c #04163E",
"# 	c #04153A",
"$ 	c #040E26",
"% 	c #041336",
"& 	c #043092",
"* 	c #043FC2",
"= 	c #0443CE",
"- 	c #043EBE",
"; 	c #043BB6",
"> 	c #042266",
", 	c #040812",
"' 	c #04287A",
") 	c #0440C6",
"! 	c #0445D6",
"~ 	c #0446DA",
"{ 	c #043CBA",
"] 	c #0438AA",
"^ 	c #04349E",
"/ 	c #043196",
"( 	c #0441CA",
"_ 	c #0443D2",
": 	c #043AB2",
"< 	c #041D56",
"[ 	c #04205E",
"} 	c #043EC2",
"| 	c #0437AA",
"1 	c #043DBE",
"2 	c #0446DE",
"3 	c #0445DA",
"4 	c #041846",
"5 	c #040F2A",
"6 	c #041F5A",
"7 	c #04329A",
"8 	c #042C86",
"9 	c #0448EA",
"0 	c #044AEE",
"a 	c #0449EE",
"b 	c #0446E2",
"c 	c #043CBE",
"d 	c #042E8A",
"e 	c #0435A2",
"f 	c #04297A",
"g 	c #0441CE",
"h 	c #0438AE",
"i 	c #0448E6",
"j 	c #0448F2",
"k 	c #0447EE",
"l 	c #0447EA",
"m 	c #042D8E",
"n 	c #04236A",
"o 	c #0442CE",
"p 	c #0446EA",
"q 	c #0440D2",
"r 	c #0441D6",
"s 	c #144FF2",
"t 	c #0446EE",
"u 	c #0447F2",
"v 	c #0443DE",
"w 	c #04102A",
"x 	c #042F8E",
"y 	c #0C4BF2",
"z 	c #0C49F2",
"A 	c #144FF6",
"B 	c #0C4AF2",
"C 	c #040D22",
"D 	c #04256E",
"E 	c #0436A6",
"F 	c #1C53F2",
"G 	c #0444D6",
"H 	c #1452F2",
"I 	c #041B4E",
"J 	c #042D8A",
"K 	c #043FC6",
"L 	c #0442D2",
"M 	c #0437AE",
"N 	c #0439B2",
"O 	c #043DC2",
"P 	c #0C48E2",
"Q 	c #044AF2",
"R 	c #041E5A",
"S 	c #042672",
"T 	c #041C52",
"U 	c #041742",
"V 	c #0447E2",
"W 	c #042776",
"X 	c #041A4A",
"Y 	c #042B82",
"Z 	c #0439AE",
"` 	c #04246A",
" .	c #040C1E",
"..	c #042A7E",
"+.	c #042162",
"@.	c #040B1A",
"#.	c #040916",
"                                                                ",
"                                                                ",
"                                                                ",
"                                                                ",
"                                                                ",
"                                                                ",
"                          . + @ # $                             ",
"                      % & * = = - - ; > ,                       ",
"                    ' ) ! ~ ! ) { ] - * ^ @                     ",
"                  / ) ( ) ! _ = ; ; ] { _ : <                   ",
"                [ } ; ( - * ; | & 1 ) { 2 3 1 4                 ",
"              5 6 1 | 7 : { ) 8 [ | 9 0 3 a b c                 ",
"              ' d d ] [ ; ( ) e f g h i j k l i m               ",
"            , { n 4 h ' ; 1 o o b p q r k s t u v               ",
"            w : x / 2 3 3 9 y s z A u 9 y B A k 1 C             ",
"            @ D e E ( ; | 2 t z F z l G a B H 2 ^ #             ",
"            I 8 7 J x K L M N O P P _ G 0 Q 0 ) } #             ",
"            # R S / T S 4 U M J { { ^ & V o o o _ C             ",
"              W J 6 X < C 4 W Y x d [ E 7 Z 8 Y &               ",
"              T D + R ` 4 + # @ U 6 C R n S  .8 [               ",
"                X W > < 6 R K e ..T ` E h +.4 Z @.              ",
"                + D # w T N 3 G { { & > x W Z I                 ",
"                  X 8 J S x { K { 8 S 6 I < T                   ",
"                    R h { & : h / f U +.T $                     ",
"                      5 S & 7 / Y S I  .                        ",
"                            #.w C                               ",
"                                                                ",
"                                                                ",
"                                                                ",
"                                                                ",
"                                                                ",
"                                                                "};
