/* XPM */
static char * system22_xpm[] = {
"32 32 92 2",
"  	c None",
". 	c #020403",
"+ 	c #151A14",
"@ 	c #152214",
"# 	c #040604",
"$ 	c #364A34",
"% 	c #476A44",
"& 	c #375634",
"* 	c #020605",
"= 	c #152A14",
"- 	c #4F7A4C",
"; 	c #588E54",
"> 	c #2E422C",
", 	c #3F5E3C",
"' 	c #588A54",
") 	c #3F663C",
"! 	c #507A4C",
"~ 	c #0D120C",
"{ 	c #507E4C",
"] 	c #364E34",
"^ 	c #476E44",
"/ 	c #0D1A0C",
"( 	c #4F724C",
"_ 	c #0A0E0D",
": 	c #1D2E1C",
"< 	c #588654",
"[ 	c #589254",
"} 	c #599A54",
"| 	c #476644",
"1 	c #263624",
"2 	c #3F623C",
"3 	c #51B64C",
"4 	c #5ACA54",
"5 	c #59BA54",
"6 	c #61B65C",
"7 	c #599E54",
"8 	c #476244",
"9 	c #0C160C",
"0 	c #263E24",
"a 	c #50864C",
"b 	c #52E64C",
"c 	c #5ADA54",
"d 	c #5AD254",
"e 	c #5AD654",
"f 	c #59BE54",
"g 	c #61A25C",
"h 	c #6AB664",
"i 	c #49BA44",
"j 	c #5BF654",
"k 	c #52E24C",
"l 	c #53DE4C",
"m 	c #59DA54",
"n 	c #62D65C",
"o 	c #2D462C",
"p 	c #608A5C",
"q 	c #69C664",
"r 	c #52D64C",
"s 	c #5BFA54",
"t 	c #5AC654",
"u 	c #59AA54",
"v 	c #487644",
"w 	c #6ABE64",
"x 	c #6BD664",
"y 	c #488A44",
"z 	c #5BF254",
"A 	c #52D24C",
"B 	c #52CE4C",
"C 	c #52C64C",
"D 	c #59B254",
"E 	c #1D261C",
"F 	c #58A254",
"G 	c #51A24C",
"H 	c #486E44",
"I 	c #040A04",
"J 	c #61A65C",
"K 	c #498A44",
"L 	c #4ABE44",
"M 	c #487E44",
"N 	c #1E321C",
"O 	c #263224",
"P 	c #69AA64",
"Q 	c #62B25C",
"R 	c #498E44",
"S 	c #488644",
"T 	c #263A24",
"U 	c #3F5A3C",
"V 	c #487244",
"W 	c #1D2A1C",
"X 	c #587E54",
"Y 	c #152614",
"Z 	c #50764C",
"` 	c #050A04",
"                                                                ",
"                                                                ",
"                                                                ",
"                                                                ",
"                                                                ",
"                                                                ",
"            . + @ # .                                           ",
"            . $ % & @ *                                         ",
"            . = - ; - > # #                                     ",
"              # , ' ) ! , ~ .                                   ",
"                @ { $ + ] ^ / #   * .                           ",
"                * > ( _ : < [ } [ | 1 # *                       ",
"                  # 2 & 3 4 5 4 4 6 7 8 9 #                     ",
"                    0 ; a b c d e e f g | 9                     ",
"                  . - h ' i j k l m n 5 } o .                   ",
"                  * p q 5 a r s r c r t u v _                   ",
"                  # % w x 5 y k z A B C D { ~                   ",
"                  * E F q x h y r k C 3 G H I                   ",
"                    # > J w t D K L B u M N .                   ",
"                      # O ' P Q g M R S T 9 + #                 ",
"                        * I N $ U 2 V W * 0 X +                 ",
"                            . # # . N ! > Y ! 2 *               ",
"                                    # @ Z { < < N .             ",
"                                      * ~ & { X 2 *             ",
"                                          # N , ( `             ",
"                                            * # 9               ",
"                                                                ",
"                                                                ",
"                                                                ",
"                                                                ",
"                                                                ",
"                                                                "};
