/* XPM */
static char * system8_xpm[] = {
"32 32 241 2",
"  	c None",
". 	c #00AE00",
"+ 	c #008D00",
"@ 	c #005A03",
"# 	c #004100",
"$ 	c #002000",
"% 	c #004700",
"& 	c #00AD00",
"* 	c #00B100",
"= 	c #004C00",
"- 	c #006D00",
"; 	c #00C100",
"> 	c #00A600",
", 	c #006803",
"' 	c #005A00",
") 	c #003500",
"! 	c #005700",
"~ 	c #006100",
"{ 	c #007100",
"] 	c #003203",
"^ 	c #001A00",
"/ 	c #009200",
"( 	c #005F00",
"_ 	c #009006",
": 	c #009B06",
"< 	c #00B306",
"[ 	c #00B506",
"} 	c #00A706",
"| 	c #00A703",
"1 	c #006809",
"2 	c #001700",
"3 	c #00B000",
"4 	c #009600",
"5 	c #007800",
"6 	c #00B109",
"7 	c #00AB03",
"8 	c #00B703",
"9 	c #00BD00",
"0 	c #00BE00",
"a 	c #00AB09",
"b 	c #008E03",
"c 	c #007C00",
"d 	c #006303",
"e 	c #006600",
"f 	c #004103",
"g 	c #006F00",
"h 	c #008E00",
"i 	c #008700",
"j 	c #003200",
"k 	c #00AC00",
"l 	c #00B900",
"m 	c #00B700",
"n 	c #00C800",
"o 	c #00C106",
"p 	c #00DF00",
"q 	c #00E600",
"r 	c #00CD00",
"s 	c #007806",
"t 	c #006300",
"u 	c #004A00",
"v 	c #000B00",
"w 	c #009800",
"x 	c #00A300",
"y 	c #00AF09",
"z 	c #00B800",
"A 	c #00BB00",
"B 	c #009000",
"C 	c #00D600",
"D 	c #00D100",
"E 	c #00E300",
"F 	c #00E900",
"G 	c #00DD00",
"H 	c #007600",
"I 	c #00A000",
"J 	c #004F03",
"K 	c #000600",
"L 	c #002306",
"M 	c #004C03",
"N 	c #005F03",
"O 	c #009809",
"P 	c #00B906",
"Q 	c #009F00",
"R 	c #007A00",
"S 	c #00D900",
"T 	c #00DA00",
"U 	c #00D700",
"V 	c #00E800",
"W 	c #00EA00",
"X 	c #00BF03",
"Y 	c #004F00",
"Z 	c #003E00",
"` 	c #00410B",
" .	c #001D03",
"..	c #005C06",
"+.	c #002300",
"@.	c #00BD06",
"#.	c #004400",
"$.	c #007E00",
"%.	c #00D300",
"&.	c #00C900",
"*.	c #00EB00",
"=.	c #00EC00",
"-.	c #00CE00",
";.	c #00A603",
">.	c #00B600",
",.	c #009906",
"'.	c #00D200",
").	c #005C00",
"!.	c #00A900",
"~.	c #00BC00",
"{.	c #009500",
"].	c #00BF00",
"^.	c #00E400",
"/.	c #00E703",
"(.	c #008000",
"_.	c #002C09",
":.	c #003211",
"<.	c #001709",
"[.	c #006F03",
"}.	c #00C200",
"|.	c #008400",
"1.	c #00AC03",
"2.	c #00EA03",
"3.	c #009D00",
"4.	c #00CB00",
"5.	c #00E200",
"6.	c #008600",
"7.	c #00C500",
"8.	c #001100",
"9.	c #00170B",
"0.	c #004F06",
"a.	c #00B500",
"b.	c #00D703",
"c.	c #00E103",
"d.	c #009603",
"e.	c #003B03",
"f.	c #00E500",
"g.	c #00C706",
"h.	c #00A400",
"i.	c #00AB00",
"j.	c #00AA00",
"k.	c #003E03",
"l.	c #000E03",
"m.	c #004A06",
"n.	c #00D003",
"o.	c #00E303",
"p.	c #00E503",
"q.	c #00CC09",
"r.	c #00A606",
"s.	c #00A303",
"t.	c #008906",
"u.	c #002F00",
"v.	c #00710B",
"w.	c #00D500",
"x.	c #008B0B",
"y.	c #00A100",
"z.	c #00BA00",
"A.	c #00C600",
"B.	c #008E0E",
"C.	c #000300",
"D.	c #001103",
"E.	c #004C09",
"F.	c #00C300",
"G.	c #00E106",
"H.	c #00B606",
"I.	c #008609",
"J.	c #004703",
"K.	c #001D00",
"L.	c #006806",
"M.	c #008614",
"N.	c #007400",
"O.	c #00B10B",
"P.	c #007814",
"Q.	c #000000",
"R.	c #003809",
"S.	c #00E700",
"T.	c #00DE09",
"U.	c #008603",
"V.	c #007403",
"W.	c #002600",
"X.	c #007E11",
"Y.	c #00D006",
"Z.	c #00990B",
"`.	c #005209",
" +	c #006B00",
".+	c #00CC00",
"++	c #00AC06",
"@+	c #00AA06",
"#+	c #008006",
"$+	c #00B909",
"%+	c #00B203",
"&+	c #00CC06",
"*+	c #00A906",
"=+	c #00710E",
"-+	c #006F06",
";+	c #00E100",
">+	c #00CF00",
",+	c #00A609",
"'+	c #008D03",
")+	c #00A109",
"!+	c #00C503",
"~+	c #00B309",
"{+	c #005F11",
"]+	c #00A709",
"^+	c #008D09",
"/+	c #000B03",
"(+	c #008E0B",
"_+	c #00B103",
":+	c #009609",
"<+	c #004A03",
"[+	c #000E00",
"}+	c #00AF03",
"|+	c #007A03",
"1+	c #006800",
"2+	c #009003",
"3+	c #00B400",
"4+	c #00A103",
"5+	c #002C00",
"6+	c #00A00B",
"7+	c #006B09",
"8+	c #009C03",
"9+	c #00B403",
"0+	c #00D800",
"a+	c #00B200",
"b+	c #00350B",
"c+	c #00B300",
"d+	c #005400",
"e+	c #00B50E",
"f+	c #001403",
"g+	c #000900",
"h+	c #003800",
"i+	c #005200",
"j+	c #009900",
"k+	c #009C00",
"l+	c #001409",
"m+	c #009300",
"n+	c #00BA11",
"o+	c #006306",
"p+	c #008B00",
"q+	c #007606",
"r+	c #008200",
"                                                                ",
"                                                                ",
"                                                                ",
"                                                                ",
"                        . + @ # $ % & *                         ",
"                    = - ; > , ' ) ! ~ { ] ^                     ",
"                / - ( # _ : < [ } > | 1 ) 2 - 3                 ",
"              4 - 5 6 7 * 8 9 0 a b c d e f ^ g h               ",
"            i + j k l m n o p q r ; 5 s t t s u ! v             ",
"            w x y z A B C C D E F G & H I H g J K L             ",
"          M N O P Q R I S T U U V W X H ( Y j Z ` ^  .          ",
"          ..+.@.l #.$.r T %.T &.*.=.-.;.B ' - ) Z K 2           ",
"        >.,.9 '.! ).!.G %.~.{.].~.^./.G ; 9 + (.# _.:.<.        ",
"        c [.}.; |.1.C 2.l 3.- B H 4.V F 5.S 6.7.{ # 8.9.        ",
"        0.) a.z b.c.V /.&.d.= e.{ 5 '.f.g.h./ i.j.k.2 l.        ",
"        m.j j.w n.o.p.q.r.s.t.u.0.v.w.p x.~ y.z.A.B.C.D.        ",
"        E.t |.h F.p.G.H., I.J.K.j L.C ^.M.4 N.9 O.P.Q.j         ",
"        R.N.$.Z * S.T.U.V.0.W.u I.,.E T X.' N.U Y.Z.8.J.        ",
"        `.R (  +.+f.U ++@+= W.#+b $+^.%+m.= ,.&+*+=+Q.Q.        ",
"        -+#+ +' 5 ;+>+,+'+2 Y )+l !+~+{+) = ]+C ^+/+Q.Q.        ",
"          (+6.h $.-._+:+<+[+h Z.}+|+1+~ % |+^.%.| B ~           ",
"          #+2+3+3.4+4+,+Z 5+2+6+7+^ W.$ 8+9+0+a+~.* Y           ",
"            b+Y |.i.z.c+% K.u.j $ +.5+d+-.r + ' * e+            ",
"            f+8.W.% 6.R u v g+8.h+i+4 c+Q A.Q ).h               ",
"              /+v g++.j W.$ ).6.j.+ j+3.k+!.4 ^+                ",
"                v l+d+# # i (.Q 4 h m+4 B n n+                  ",
"                    o+|.|.p+N.~ e h Q > c q+                    ",
"                        t r+(.).' (.3.                          ",
"                                                                ",
"                                                                ",
"                                                                ",
"                                                                "};
