/* XPM */
static char * system31_xpm[] = {
"32 32 93 2",
"  	c None",
". 	c #062204",
"+ 	c #083A04",
"@ 	c #061A04",
"# 	c #0B5E04",
"$ 	c #109204",
"% 	c #14D204",
"& 	c #13C204",
"* 	c #109E04",
"= 	c #12BE04",
"- 	c #13DE04",
"; 	c #0E8E04",
"> 	c #0A4E04",
", 	c #12AE04",
"' 	c #0E8604",
") 	c #0E8204",
"! 	c #14CE04",
"~ 	c #13C604",
"{ 	c #14DE04",
"] 	c #13EE04",
"^ 	c #12F204",
"/ 	c #15E604",
"( 	c #094604",
"_ 	c #0A5204",
": 	c #061E04",
"< 	c #0F8604",
"[ 	c #15EE04",
"} 	c #21F214",
"| 	c #1EF614",
"1 	c #12EE04",
"2 	c #14EA04",
"3 	c #14E204",
"4 	c #13BE04",
"5 	c #0B5604",
"6 	c #072604",
"7 	c #0D7604",
"8 	c #0C6204",
"9 	c #0D7204",
"0 	c #14F204",
"a 	c #18F20C",
"b 	c #1FF214",
"c 	c #15DA04",
"d 	c #12B204",
"e 	c #093E04",
"f 	c #0F8E04",
"g 	c #11AE04",
"h 	c #0C6A04",
"i 	c #109A04",
"j 	c #15E204",
"k 	c #14EE04",
"l 	c #19F20C",
"m 	c #13F204",
"n 	c #15DE04",
"o 	c #119E04",
"p 	c #051204",
"q 	c #0B5A04",
"r 	c #0C6604",
"s 	c #11A604",
"t 	c #0F9204",
"u 	c #14D604",
"v 	c #12D604",
"w 	c #12BA04",
"x 	c #094204",
"y 	c #12D204",
"z 	c #12AA04",
"A 	c #12B604",
"B 	c #0E7A04",
"C 	c #0F8A04",
"D 	c #13BA04",
"E 	c #19E20C",
"F 	c #13EA04",
"G 	c #13CE04",
"H 	c #11AA04",
"I 	c #109604",
"J 	c #0E7E04",
"K 	c #26F21C",
"L 	c #17F20C",
"M 	c #072A04",
"N 	c #11A204",
"O 	c #12C204",
"P 	c #14C604",
"Q 	c #051604",
"R 	c #11B204",
"S 	c #15D604",
"T 	c #083204",
"U 	c #14CA04",
"V 	c #040A04",
"W 	c #14DA04",
"X 	c #0D7A04",
"Y 	c #083604",
"Z 	c #0A4A04",
"` 	c #0D6E04",
" .	c #0C6E04",
"                                                                ",
"                                                                ",
"                                                                ",
"                                                                ",
"                                                                ",
"                                                                ",
"                            . + + .                             ",
"                      @ # $ % & * = - ;                         ",
"                    > , ' ) ! ~ { ] ^ / = (                     ",
"                  _ , ( : < ! [ } | 1 2 3 4 5                   ",
"                6 5 7 8 9 , ! 0 a a b ] [ c d e                 ",
"                _ > f g h i j [ k l ] m c n % o p               ",
"              : 8 q r s q s t u u 2 v / [ w w & r               ",
"              > x 9 t h . # * % 2 ^ y g 2 ~ z 4 A               ",
"              9 B ' w _ q C D E a | F G H 4 A z 4 6             ",
"            . ) I D w J x f w E K L 3 B # t A D 4 +             ",
"            M I g ~ u N e ) C O L b ! N < H ! P ! e             ",
"            Q i d w c ~ + 7 g R ] l ! P P A % S ! T             ",
"              t t f R q T ( x g { 2 4 U D & S c & V             ",
"              9 w 9 _ q ( . ( % H W A A d 4 P S t               ",
"              M g C M 5 h 5 9 ~ A W X # i U U P Y               ",
"                q ' + r q Z _ f U n g z H A ~ X                 ",
"                  Z ` 7 T q I C s I ( C 4 & I                   ",
"                    T Z  .C 9 i N f h C q #                     ",
"                        _ 7 q < ` d w X M                       ",
"                            + > e M p                           ",
"                                                                ",
"                                                                ",
"                                                                ",
"                                                                ",
"                                                                ",
"                                                                "};
