/* XPM */
static char * system32_xpm[] = {
"32 32 103 2",
"  	c None",
". 	c #04261F",
"+ 	c #043A2E",
"@ 	c #043E32",
"# 	c #043228",
"$ 	c #040A09",
"% 	c #04120F",
"& 	c #046651",
"* 	c #04B690",
"= 	c #04BE96",
"- 	c #04CEA3",
"; 	c #04C299",
"> 	c #049274",
", 	c #04362B",
"' 	c #049E7D",
") 	c #04AA86",
"! 	c #04BA93",
"~ 	c #04C69C",
"{ 	c #04D6A9",
"] 	c #04DAAD",
"^ 	c #047A61",
"/ 	c #045644",
"( 	c #04B28D",
"_ 	c #04D2A7",
": 	c #04D2A6",
"< 	c #04CAA0",
"[ 	c #04C69D",
"} 	c #049677",
"| 	c #044638",
"1 	c #04BE97",
"2 	c #04DEB1",
"3 	c #04BA94",
"4 	c #04AA87",
"5 	c #04C29A",
"6 	c #045E4B",
"7 	c #04BE98",
"8 	c #04E2B6",
"9 	c #04EEBF",
"0 	c #04EABC",
"a 	c #04866A",
"b 	c #049A7A",
"c 	c #045A48",
"d 	c #042A22",
"e 	c #048E73",
"f 	c #04E6B8",
"g 	c #04EABE",
"h 	c #04EEC2",
"i 	c #04F2C5",
"j 	c #04E6B7",
"k 	c #04AE8B",
"l 	c #04CEA5",
"m 	c #04A280",
"n 	c #048A6D",
"o 	c #04DEB4",
"p 	c #04F2C7",
"q 	c #04EEC3",
"r 	c #14F2CD",
"s 	c #04D6AD",
"t 	c #04D2AB",
"u 	c #04EABF",
"v 	c #04E2B5",
"w 	c #04AE8A",
"x 	c #046A54",
"y 	c #04221C",
"z 	c #14F6D3",
"A 	c #0CF2CB",
"B 	c #0CF2CA",
"C 	c #04EABD",
"D 	c #0CF2CD",
"E 	c #04DAAE",
"F 	c #048E70",
"G 	c #04DEB2",
"H 	c #14F2CA",
"I 	c #04EEC0",
"J 	c #04D6AA",
"K 	c #0CF2CC",
"L 	c #1CF2D1",
"M 	c #04A683",
"N 	c #046E57",
"O 	c #04F2C4",
"P 	c #0CE2BB",
"Q 	c #04C29C",
"R 	c #04B28E",
"S 	c #048E71",
"T 	c #044E3E",
"U 	c #04CEA4",
"V 	c #04E2B4",
"W 	c #044235",
"X 	c #04725A",
"Y 	c #045241",
"Z 	c #04725B",
"` 	c #049273",
" .	c #048267",
"..	c #04765E",
"+.	c #044A3B",
"@.	c #04765D",
"#.	c #041E19",
"$.	c #046E58",
"%.	c #041A15",
"&.	c #04624E",
"*.	c #045242",
"=.	c #047E64",
"-.	c #041612",
"                                                                ",
"                                                                ",
"                                                                ",
"                                                                ",
"                                                                ",
"                                                                ",
"                            . + @ # $                           ",
"                      % & * = = - - ; > ,                       ",
"                    @ ' ; = ) ! ~ { ] { ~ ^                     ",
"                  / ( _ ! ) * * - : { ~ < [ }                   ",
"                | 1 ] 2 3 [ 1 > 4 * ; = < * 5 6                 ",
"                7 8 9 ] 9 0 4 6 a ~ ! ( b 4 1 c d               ",
"              e f g h i j k l ^ m ~ < * 6 ) n n ^               ",
"              o p q r h s t u v - - 1 * ^ w | x ! %             ",
"            y 1 h z A B C p z D r B C E E 2 } F ( d             ",
"            + ' G H A I J C K L D q G 4 * < M m N @             ",
"            + 5 [ 9 O 9 J _ P P Q R k _ [ S n b a T             ",
"            y : - U U V > ' ! 3 n k W | X Y } Z c +             ",
"              `  .a w b M 6 n F  ...| y / +.c n @.              ",
"              6 a #.Z x c y c W @ + # | x c # $.Y               ",
"              %.w | &.w M x *.=.m [ c c / & @.+.                ",
"                T w @.F & > ! ! J ] R Y d + N #                 ",
"                  Y / T c X a ! [ ! S X n a +.                  ",
"                    . Y &.W ^ } w ( > ! w c                     ",
"                        #.T X  .} b > Z d                       ",
"                              y d -.                            ",
"                                                                ",
"                                                                ",
"                                                                ",
"                                                                ",
"                                                                ",
"                                                                "};
