/* XPM */
static char * system26_xpm[] = {
"32 32 427 2",
"  	c None",
". 	c #032665",
"+ 	c #043893",
"@ 	c #0146BF",
"# 	c #0141B0",
"$ 	c #0043BC",
"% 	c #013799",
"& 	c #0047C1",
"* 	c #00399A",
"= 	c #013590",
"- 	c #0047C5",
"; 	c #063C9B",
"> 	c #0047C2",
", 	c #003A9F",
"' 	c #004CD0",
") 	c #0051DE",
"! 	c #0049C8",
"~ 	c #0057ED",
"{ 	c #004BCD",
"] 	c #003DB0",
"^ 	c #003596",
"/ 	c #00338C",
"( 	c #0243B6",
"_ 	c #004ACB",
": 	c #0052E1",
"< 	c #033793",
"[ 	c #00318C",
"} 	c #053492",
"| 	c #073388",
"1 	c #043EB1",
"2 	c #053EAA",
"3 	c #0148C3",
"4 	c #0049D6",
"5 	c #0049DB",
"6 	c #053191",
"7 	c #002B84",
"8 	c #0040B6",
"9 	c #0045BD",
"0 	c #04358F",
"a 	c #003391",
"b 	c #00328D",
"c 	c #003294",
"d 	c #003DBB",
"e 	c #003ABC",
"f 	c #043BAE",
"g 	c #023CC2",
"h 	c #0236A2",
"i 	c #0338A1",
"j 	c #0144C9",
"k 	c #0046D8",
"l 	c #0043CD",
"m 	c #0039A9",
"n 	c #00329E",
"o 	c #003CAD",
"p 	c #0039A3",
"q 	c #013491",
"r 	c #00328F",
"s 	c #003189",
"t 	c #00369F",
"u 	c #004BE9",
"v 	c #004DE7",
"w 	c #004EEC",
"x 	c #0046D7",
"y 	c #003FD2",
"z 	c #0235AD",
"A 	c #003AC5",
"B 	c #003FCF",
"C 	c #0040C5",
"D 	c #0043BE",
"E 	c #0044C1",
"F 	c #033AA5",
"G 	c #0037A1",
"H 	c #003BA4",
"I 	c #023599",
"J 	c #00369E",
"K 	c #002E82",
"L 	c #00308E",
"M 	c #0052EE",
"N 	c #0056F6",
"O 	c #004EE4",
"P 	c #004ADB",
"Q 	c #0041BC",
"R 	c #003BAC",
"S 	c #023EB5",
"T 	c #033AAC",
"U 	c #003FD9",
"V 	c #003ECF",
"W 	c #0041C0",
"X 	c #0044CA",
"Y 	c #0049D5",
"Z 	c #063398",
"` 	c #003188",
" .	c #003694",
"..	c #0038A0",
"+.	c #003495",
"@.	c #0041BA",
"#.	c #0050F4",
"$.	c #004BF3",
"%.	c #004FE9",
"&.	c #0046C6",
"*.	c #0041C1",
"=.	c #003FB4",
"-.	c #003CA9",
";.	c #013EB1",
">.	c #0140C3",
",.	c #003BC1",
"'.	c #0040CB",
").	c #004ADD",
"!.	c #0041CF",
"~.	c #022B7C",
"{.	c #01389C",
"].	c #003DAA",
"^.	c #0040B8",
"/.	c #0048CD",
"(.	c #004ADA",
"_.	c #004AD3",
":.	c #004DE2",
"<.	c #0049E3",
"[.	c #0049F4",
"}.	c #0247DB",
"|.	c #0446C5",
"1.	c #073DA6",
"2.	c #063EAA",
"3.	c #02389B",
"4.	c #003697",
"5.	c #003493",
"6.	c #0140BD",
"7.	c #0048E5",
"8.	c #0038AA",
"9.	c #0048D6",
"0.	c #0040BE",
"a.	c #0038A5",
"b.	c #00319A",
"c.	c #0048CF",
"d.	c #034ACC",
"e.	c #0152E7",
"f.	c #0250E2",
"g.	c #004DDD",
"h.	c #0142C5",
"i.	c #0044E3",
"j.	c #0045EE",
"k.	c #0046ED",
"l.	c #0044E5",
"m.	c #0045E9",
"n.	c #0044E0",
"o.	c #013EBD",
"p.	c #0644B7",
"q.	c #003DAF",
"r.	c #00348F",
"s.	c #003AA5",
"t.	c #003CBA",
"u.	c #0044CB",
"v.	c #0047D2",
"w.	c #003CB5",
"x.	c #0048D8",
"y.	c #004EDE",
"z.	c #0143C8",
"A.	c #0052EC",
"B.	c #0053EE",
"C.	c #004ADE",
"D.	c #0145D5",
"E.	c #0046E0",
"F.	c #0145EA",
"G.	c #0042E5",
"H.	c #004AEC",
"I.	c #0045E2",
"J.	c #0042D8",
"K.	c #0048F1",
"L.	c #0048F3",
"M.	c #033FBB",
"N.	c #0043C1",
"O.	c #003492",
"P.	c #00328B",
"Q.	c #0045CD",
"R.	c #0043C8",
"S.	c #0043C6",
"T.	c #0034A0",
"U.	c #0047C7",
"V.	c #004BD5",
"W.	c #004CE2",
"X.	c #014FE5",
"Y.	c #004BE7",
"Z.	c #0046E8",
"`.	c #0046F1",
" +	c #0046F4",
".+	c #0043E4",
"++	c #004BED",
"@+	c #0046CA",
"#+	c #043FAE",
"$+	c #023FB2",
"%+	c #023FB7",
"&+	c #0345CD",
"*+	c #0145D7",
"=+	c #0140B9",
"-+	c #003CA6",
";+	c #003087",
">+	c #003EB0",
",+	c #004AD8",
"'+	c #0042C2",
")+	c #0042C1",
"!+	c #004CDA",
"~+	c #0054E8",
"{+	c #0054EA",
"]+	c #024BDB",
"^+	c #0348D1",
"/+	c #0045DE",
"(+	c #0046F0",
"_+	c #0047F4",
":+	c #004DEC",
"<+	c #0054F0",
"[+	c #023AA2",
"}+	c #003AA3",
"|+	c #033EB0",
"1+	c #0149D2",
"2+	c #0143CB",
"3+	c #033CA8",
"4+	c #003592",
"5+	c #003089",
"6+	c #0046CE",
"7+	c #0047CB",
"8+	c #004DDB",
"9+	c #004FDD",
"0+	c #0050E1",
"a+	c #024ADD",
"b+	c #0049E1",
"c+	c #0046EF",
"d+	c #0047E7",
"e+	c #004AE7",
"f+	c #004DED",
"g+	c #003CB1",
"h+	c #00379B",
"i+	c #00399D",
"j+	c #003598",
"k+	c #023BAA",
"l+	c #0345C7",
"m+	c #0440B6",
"n+	c #0440B8",
"o+	c #00286F",
"p+	c #0046CB",
"q+	c #004AD2",
"r+	c #004EDC",
"s+	c #0149CE",
"t+	c #014EDD",
"u+	c #0249DA",
"v+	c #0048F0",
"w+	c #004AED",
"x+	c #0047E9",
"y+	c #0047E8",
"z+	c #0043C7",
"A+	c #0039A4",
"B+	c #003597",
"C+	c #023AA8",
"D+	c #013BA5",
"E+	c #003696",
"F+	c #003699",
"G+	c #003BAE",
"H+	c #013BAE",
"I+	c #002F84",
"J+	c #00276B",
"K+	c #002F88",
"L+	c #00359E",
"M+	c #0049D1",
"N+	c #0045C7",
"O+	c #003FBA",
"P+	c #0049DA",
"Q+	c #024CDA",
"R+	c #014BE3",
"S+	c #024DE8",
"T+	c #004CF4",
"U+	c #004AF1",
"V+	c #004BF0",
"W+	c #004BDC",
"X+	c #014AD8",
"Y+	c #0146CF",
"Z+	c #0341B7",
"`+	c #023CA6",
" @	c #00379D",
".@	c #00328A",
"+@	c #003083",
"@@	c #002973",
"#@	c #002B77",
"$@	c #002A74",
"%@	c #002871",
"&@	c #003193",
"*@	c #0043C5",
"=@	c #0042C0",
"-@	c #0035A6",
";@	c #0048DF",
">@	c #024EDF",
",@	c #004CE3",
"'@	c #004DF1",
")@	c #004DF6",
"!@	c #004DF9",
"~@	c #004DF7",
"{@	c #0052F7",
"]@	c #0046DE",
"^@	c #0244C7",
"/@	c #0143BE",
"(@	c #0144C1",
"_@	c #0242C3",
":@	c #013BAC",
"<@	c #012F84",
"[@	c #002D7F",
"}@	c #002E84",
"|@	c #002D7E",
"1@	c #002B7B",
"2@	c #0041BE",
"3@	c #002D83",
"4@	c #0050E3",
"5@	c #0056F1",
"6@	c #014CE2",
"7@	c #004FEE",
"8@	c #004CDF",
"9@	c #004BDF",
"0@	c #004EF4",
"a@	c #0048EE",
"b@	c #0147F1",
"c@	c #0145EB",
"d@	c #0343D2",
"e@	c #0240C2",
"f@	c #0145C6",
"g@	c #0243C6",
"h@	c #033FB8",
"i@	c #0342BD",
"j@	c #0342C0",
"k@	c #0041C8",
"l@	c #003CAF",
"m@	c #0053EB",
"n@	c #034DE2",
"o@	c #004CE9",
"p@	c #004BD9",
"q@	c #0051E9",
"r@	c #0052F3",
"s@	c #0045EC",
"t@	c #0143E4",
"u@	c #0242DC",
"v@	c #0340D4",
"w@	c #0048EA",
"x@	c #0044DB",
"y@	c #0141C3",
"z@	c #0143C7",
"A@	c #003FB8",
"B@	c #00266B",
"C@	c #022E82",
"D@	c #004AD4",
"E@	c #004FE3",
"F@	c #004EE8",
"G@	c #004BDE",
"H@	c #004ED9",
"I@	c #0051E5",
"J@	c #014DE5",
"K@	c #0146E8",
"L@	c #0144E4",
"M@	c #0142E0",
"N@	c #0041E0",
"O@	c #0041E1",
"P@	c #003FD7",
"Q@	c #0046DF",
"R@	c #014DE1",
"S@	c #00328E",
"T@	c #002971",
"U@	c #033EA5",
"V@	c #003BB0",
"W@	c #004BD7",
"X@	c #0052E4",
"Y@	c #034CDD",
"Z@	c #024BE1",
"`@	c #004EEE",
" #	c #004EDD",
".#	c #004EE0",
"+#	c #0146E2",
"@#	c #0144DA",
"##	c #0042CF",
"$#	c #0045D1",
"%#	c #0041D1",
"&#	c #0049D3",
"*#	c #0050E5",
"=#	c #0050EA",
"-#	c #0041BF",
";#	c #003695",
">#	c #003185",
",#	c #003EB9",
"'#	c #004DE3",
")#	c #034CDA",
"!#	c #0249DC",
"~#	c #0048E6",
"{#	c #004FF0",
"]#	c #0053F3",
"^#	c #0053F0",
"/#	c #0050DF",
"(#	c #004DDC",
"_#	c #004FDF",
":#	c #0052EF",
"<#	c #004CE6",
"[#	c #012B73",
"}#	c #0036A1",
"|#	c #004DE1",
"1#	c #0151E3",
"2#	c #0058F3",
"3#	c #004BE6",
"4#	c #004BE8",
"5#	c #0048DC",
"6#	c #004FE5",
"7#	c #004FE1",
"8#	c #004EE2",
"9#	c #013DB4",
"0#	c #0440AB",
"a#	c #012A72",
"b#	c #013EAE",
"c#	c #024FDC",
"d#	c #0247CF",
"e#	c #0148CD",
"f#	c #0051E2",
"g#	c #004FDB",
"h#	c #0049D0",
"i#	c #0045C8",
"j#	c #0242BC",
"k#	c #043CAB",
"l#	c #022E85",
"m#	c #0036AB",
"n#	c #003EB4",
"o#	c #0246C1",
"p#	c #024ACC",
"q#	c #0347C2",
"r#	c #0347C1",
"s#	c #033592",
"t#	c #022C7E",
"                                                                ",
"                                                                ",
"                                                                ",
"                                                                ",
"                        . + @ # $ % & *                         ",
"                    = - ; > , ' ) ! ~ { ] ^                     ",
"                / ( _ : < [ % } | 1 2 3 4 5 6                   ",
"              7 8 9 0 a b c d e f g h i j k l m                 ",
"            n o p q r s t u v w x y z A B C D E F               ",
"            G H I J K L M N O P Q R S T U V W X Y Z             ",
"          `  .% ..c +.@.#.$.%.&.*.=...-.;.>.,.'.).!.~.          ",
"          {.].^./.(._.:.<.[.}.|.1.2.3.4.5.6.7.8.9.0.a.          ",
"        b.c.d.e.f.N g.h.i.j.k.l.m.n.o.p.q.r.s.t.u.v.w.          ",
"        x.y.z.A.B.C.D.E.F.G.H.I.J.K.L.M.N.O.P.Q.R.S.Q.T.        ",
"        U.V.W.X.Y.Z.`. +.+++@+#+$+%+&+*+=+-+;+>+,+'+)+!+        ",
"        ~+{+]+^+/+(+(+_+:+<+g.[+}+|+1+w 2+3+4+5+W.6+7+8+        ",
"        9+0+a+b+c+k.d+e+f+g+q h+i+j+k+l+m+n+].o+p+P q+r+        ",
"        s+t+u+b+v+w+x+y+z+A+B+C+D+E+4.F+G+H+I+J+K+L+M+N+        ",
"        O+P+Q+R+S+T+U+V+b+W+X+Y+Z+`+ @.@+@@@#@$@%@&@*@=@        ",
"        -@;@>@,@'@)@!@U+~@{@]@^@/@(@_@:@<@[@}@B+|@1@2@3@        ",
"          4@5@6@7@8@9@0@a@b@c@d@e@f@g@h@i@j@k@l@|@K g+          ",
"          8 m@n@7@o@p@q@r@y+s@t@u@v@w@x@y@z@w A@B@}@C@          ",
"            D@E@F@w G@H@I@J@K@L@M@N@O@P@Q@R@C.S@T@U@            ",
"            V@W@X@Y@Z@`@ #.#+#@###$#%#&#*#=#-#P.;#>#            ",
"              ,#W+'#)#!#~#:+{#]#^#/#(#_#:#<#E i+[#              ",
"                }#|#1#2#3#4#5#).6#.# #7#8#9#0#a#                ",
"                    b#c#d#e#f#g#h#*#i#j#k#l#                    ",
"                        m#n#o#p#q#r#s#t#                        ",
"                                                                ",
"                                                                ",
"                                                                ",
"                                                                "};
