/* XPM */
static char * system12_xpm[] = {
"32 32 704 2",
"  	c None",
". 	c #7D2701",
"+ 	c #8D1E02",
"@ 	c #AE1603",
"# 	c #C11503",
"$ 	c #C41902",
"% 	c #CB1902",
"& 	c #C31A02",
"* 	c #B92600",
"= 	c #B03F00",
"- 	c #AB5A00",
"; 	c #943302",
"> 	c #AC3503",
", 	c #AF2E02",
"' 	c #BA2A00",
") 	c #D02700",
"! 	c #D72300",
"~ 	c #CF1E00",
"{ 	c #D81200",
"] 	c #DA1300",
"^ 	c #CF2000",
"/ 	c #C73401",
"( 	c #CB3E01",
"_ 	c #DB1F01",
": 	c #B71B01",
"< 	c #9F0F03",
"[ 	c #A42B02",
"} 	c #B23501",
"| 	c #CD3201",
"1 	c #D22A00",
"2 	c #D42600",
"3 	c #DC2A00",
"4 	c #DF2C00",
"5 	c #DC2D00",
"6 	c #DC3500",
"7 	c #DD3B00",
"8 	c #DD4800",
"9 	c #DD5200",
"0 	c #DF4800",
"a 	c #E91400",
"b 	c #D31C00",
"c 	c #D62D00",
"d 	c #C73900",
"e 	c #830600",
"f 	c #AA1202",
"g 	c #BF3201",
"h 	c #D43E00",
"i 	c #E53100",
"j 	c #E02300",
"k 	c #DD2300",
"l 	c #DE2300",
"m 	c #E32A00",
"n 	c #E83800",
"o 	c #E54700",
"p 	c #E45600",
"q 	c #E76400",
"r 	c #E86E00",
"s 	c #E66600",
"t 	c #E92F00",
"u 	c #E12D01",
"v 	c #E03800",
"w 	c #D13C00",
"x 	c #B83500",
"y 	c #800400",
"z 	c #990700",
"A 	c #B81A00",
"B 	c #D73E00",
"C 	c #E94700",
"D 	c #E93200",
"E 	c #DC2100",
"F 	c #DA3300",
"G 	c #DB2A00",
"H 	c #E12E00",
"I 	c #EA4400",
"J 	c #ED4C00",
"K 	c #ED6300",
"L 	c #EB6300",
"M 	c #E76700",
"N 	c #E37000",
"O 	c #DF6201",
"P 	c #DC4A02",
"Q 	c #DF4601",
"R 	c #E03E00",
"S 	c #D73100",
"T 	c #BE3800",
"U 	c #8B0400",
"V 	c #920500",
"W 	c #8B0D00",
"X 	c #B42A00",
"Y 	c #D83B00",
"Z 	c #E83A00",
"` 	c #D32C00",
" .	c #D16E00",
"..	c #D16500",
"+.	c #D05E00",
"@.	c #D17300",
"#.	c #DA8701",
"$.	c #E09301",
"%.	c #E05A00",
"&.	c #DE2900",
"*.	c #E02B00",
"=.	c #ED5F00",
"-.	c #E35F01",
";.	c #DE5702",
">.	c #DF3701",
",.	c #E11500",
"'.	c #D62700",
").	c #B73600",
"!.	c #9E0602",
"~.	c #8F0501",
"{.	c #7C0600",
"].	c #8D1500",
"^.	c #C83E00",
"/.	c #DE4600",
"(.	c #E15600",
"_.	c #DE7800",
":.	c #D69400",
"<.	c #DCA800",
"[.	c #DDAA00",
"}.	c #DDA900",
"|.	c #E2AA01",
"1.	c #E5A801",
"2.	c #E56F00",
"3.	c #E33800",
"4.	c #E22000",
"5.	c #DD2500",
"6.	c #DE4100",
"7.	c #E45300",
"8.	c #E85100",
"9.	c #E53D00",
"0.	c #D02A00",
"a.	c #8C1801",
"b.	c #820F00",
"c.	c #780E00",
"d.	c #A72800",
"e.	c #D94F00",
"f.	c #D94C00",
"g.	c #D05200",
"h.	c #D06F00",
"i.	c #D99500",
"j.	c #E3A000",
"k.	c #DEAA01",
"l.	c #DAB001",
"m.	c #DEB301",
"n.	c #E4B600",
"o.	c #E9B800",
"p.	c #E89200",
"q.	c #E95F00",
"r.	c #EB3600",
"s.	c #E22500",
"t.	c #DC3200",
"u.	c #E44E00",
"v.	c #EA5C00",
"w.	c #E95300",
"x.	c #E24301",
"y.	c #E12900",
"z.	c #CD1E00",
"A.	c #942901",
"B.	c #8A2000",
"C.	c #7C1500",
"D.	c #7F1400",
"E.	c #B43000",
"F.	c #D55300",
"G.	c #CE4F01",
"H.	c #C24801",
"I.	c #C35101",
"J.	c #CC6C01",
"K.	c #D87600",
"L.	c #D37801",
"M.	c #CF8002",
"N.	c #D39101",
"O.	c #DCA101",
"P.	c #E8BA00",
"Q.	c #EBB200",
"R.	c #ED9100",
"S.	c #F06800",
"T.	c #ED4F00",
"U.	c #DE3B00",
"V.	c #E14600",
"W.	c #E85500",
"X.	c #EB5A00",
"Y.	c #E25102",
"Z.	c #EB2700",
"`.	c #D61E00",
" +	c #C81F00",
".+	c #B13100",
"++	c #942100",
"@+	c #7F1300",
"#+	c #861500",
"$+	c #AA2800",
"%+	c #B74300",
"&+	c #B54201",
"*+	c #B23B02",
"=+	c #B23802",
"-+	c #B54502",
";+	c #C24C02",
">+	c #C53C01",
",+	c #C33D01",
"'+	c #C45702",
")+	c #CF7402",
"!+	c #E3A401",
"~+	c #EEB100",
"{+	c #F1AA00",
"]+	c #F09A00",
"^+	c #F38500",
"/+	c #E75E00",
"(+	c #E34F00",
"_+	c #E85300",
":+	c #EC5D00",
"<+	c #E24F00",
"[+	c #E62B00",
"}+	c #DB3700",
"|+	c #832300",
"1+	c #B22F00",
"2+	c #952100",
"3+	c #7C1200",
"4+	c #830F00",
"5+	c #971900",
"6+	c #871800",
"7+	c #811600",
"8+	c #801600",
"9+	c #8B1E01",
"0+	c #AB3601",
"a+	c #BE4801",
"b+	c #C13801",
"c+	c #BF2701",
"d+	c #BF2C01",
"e+	c #C74901",
"f+	c #D96E00",
"g+	c #ED6800",
"h+	c #F77100",
"i+	c #F59000",
"j+	c #F19B00",
"k+	c #F79A00",
"l+	c #F79500",
"m+	c #F38700",
"n+	c #EE6F00",
"o+	c #E25300",
"p+	c #DF3E01",
"q+	c #DF5600",
"r+	c #C85F00",
"s+	c #A65100",
"t+	c #B32E00",
"u+	c #C03300",
"v+	c #A33000",
"w+	c #832000",
"x+	c #750A00",
"y+	c #7A0800",
"z+	c #790B00",
"A+	c #770E00",
"B+	c #7A0D00",
"C+	c #850A00",
"D+	c #901100",
"E+	c #A02000",
"F+	c #A82001",
"G+	c #B02502",
"H+	c #BC3402",
"I+	c #CD4601",
"J+	c #D64800",
"K+	c #DE4800",
"L+	c #E25600",
"M+	c #E77200",
"N+	c #F09000",
"O+	c #F29900",
"P+	c #F39600",
"Q+	c #F08400",
"R+	c #E86801",
"S+	c #E25A00",
"T+	c #DC4401",
"U+	c #DA4800",
"V+	c #CC4700",
"W+	c #B63C00",
"X+	c #C43000",
"Y+	c #CA2F00",
"Z+	c #AD3000",
"`+	c #8E2700",
" @	c #7B1300",
".@	c #6E0300",
"+@	c #7B0B00",
"@@	c #8C1D00",
"#@	c #982600",
"$@	c #9A2000",
"%@	c #931300",
"&@	c #981200",
"*@	c #9B1200",
"=@	c #A21901",
"-@	c #AE2701",
";@	c #B73B01",
">@	c #B22B00",
",@	c #B62D00",
"'@	c #C33C00",
")@	c #D65A00",
"!@	c #EB9600",
"~@	c #EB9700",
"{@	c #EE9100",
"]@	c #EE8E00",
"^@	c #EA8600",
"/@	c #E16100",
"(@	c #DB5101",
"_@	c #DB3D01",
":@	c #D32F00",
"<@	c #C62800",
"[@	c #CF2900",
"}@	c #D12700",
"|@	c #C13000",
"1@	c #AE3100",
"2@	c #972000",
"3@	c #6C0400",
"4@	c #A52B01",
"5@	c #B13C01",
"6@	c #B03701",
"7@	c #AB2B01",
"8@	c #A11E00",
"9@	c #991500",
"0@	c #A11600",
"a@	c #A22601",
"b@	c #971A00",
"c@	c #A02500",
"d@	c #BB3A00",
"e@	c #D95A00",
"f@	c #E78D00",
"g@	c #E89400",
"h@	c #EB9800",
"i@	c #EEA300",
"j@	c #ECA100",
"k@	c #E06500",
"l@	c #DC5A01",
"m@	c #DD3701",
"n@	c #DA1F00",
"o@	c #D41B00",
"p@	c #DB1F00",
"q@	c #D22100",
"r@	c #D53500",
"s@	c #D43D00",
"t@	c #BD2E00",
"u@	c #740800",
"v@	c #9B0E00",
"w@	c #AE2B02",
"x@	c #B63F03",
"y@	c #BE4403",
"z@	c #CE4A02",
"A@	c #B73601",
"B@	c #A52501",
"C@	c #9D1600",
"D@	c #9D0C00",
"E@	c #9C1200",
"F@	c #9F1700",
"G@	c #B12A00",
"H@	c #D04900",
"I@	c #EC6C00",
"J@	c #E98800",
"K@	c #E89900",
"L@	c #EBAC00",
"M@	c #ECB300",
"N@	c #E89F00",
"O@	c #DD6100",
"P@	c #DC5801",
"Q@	c #E03300",
"R@	c #E11800",
"S@	c #DF1300",
"T@	c #CE2300",
"U@	c #CC3300",
"V@	c #D64300",
"W@	c #D04100",
"X@	c #891300",
"Y@	c #900C00",
"Z@	c #9F1B01",
"`@	c #B53702",
" #	c #D15400",
".#	c #EB5E00",
"+#	c #D73F00",
"@#	c #BD3502",
"##	c #AA2501",
"$#	c #A21300",
"%#	c #A21B01",
"&#	c #D12600",
"*#	c #E82A00",
"=#	c #EE4100",
"-#	c #ED7600",
";#	c #F3C700",
">#	c #F0C300",
",#	c #F0C200",
"'#	c #E8A800",
")#	c #DB7600",
"!#	c #D14D02",
"~#	c #D94A02",
"{#	c #E42800",
"]#	c #E90F00",
"^#	c #E80B00",
"/#	c #DA2C00",
"(#	c #C73200",
"_#	c #C33700",
":#	c #CD3900",
"<#	c #D03400",
"[#	c #A81A00",
"}#	c #8F0E00",
"|#	c #9A0D00",
"1#	c #AF1D00",
"2#	c #C23F00",
"3#	c #DB6D00",
"4#	c #D05B02",
"5#	c #BF4602",
"6#	c #B23101",
"7#	c #AE2202",
"8#	c #AB2603",
"9#	c #C62A00",
"0#	c #E05200",
"a#	c #EA8300",
"b#	c #E8AD00",
"c#	c #F3CB00",
"d#	c #F1C500",
"e#	c #ECB400",
"f#	c #E79200",
"g#	c #E46400",
"h#	c #E13C01",
"i#	c #E04600",
"j#	c #D41900",
"k#	c #CD1500",
"l#	c #B73A00",
"m#	c #C43D00",
"n#	c #C53B00",
"o#	c #C83A00",
"p#	c #CB3900",
"q#	c #C12F00",
"r#	c #941400",
"s#	c #930C00",
"t#	c #A81600",
"u#	c #BF3300",
"v#	c #C66002",
"w#	c #DD8801",
"x#	c #DD8A00",
"y#	c #D37900",
"z#	c #C96700",
"A#	c #CD6701",
"B#	c #DA6500",
"C#	c #E48B00",
"D#	c #E7AE00",
"E#	c #E7B500",
"F#	c #E7A000",
"G#	c #E19000",
"H#	c #E17C00",
"I#	c #E55F00",
"J#	c #EA4100",
"K#	c #D64400",
"L#	c #D73000",
"M#	c #D62A00",
"N#	c #D13900",
"O#	c #9F4100",
"P#	c #BE4400",
"Q#	c #C73F00",
"R#	c #CA3D00",
"S#	c #C84100",
"T#	c #C54700",
"U#	c #9F1E00",
"V#	c #920F00",
"W#	c #A11500",
"X#	c #B92900",
"Y#	c #B94004",
"Z#	c #D67F01",
"`#	c #E59F00",
" $	c #E5A600",
".$	c #DF9F00",
"+$	c #E39B00",
"@$	c #EA9D00",
"#$	c #EAB300",
"$$	c #E8BC00",
"%$	c #E3A500",
"&$	c #D56B00",
"*$	c #D75500",
"=$	c #E92B00",
"-$	c #E92900",
";$	c #D03701",
">$	c #D22D00",
",$	c #CE3600",
"'$	c #BF5100",
")$	c #B14300",
"!$	c #CD3E00",
"~$	c #C84500",
"{$	c #B65200",
"]$	c #B23800",
"^$	c #A22000",
"/$	c #9F1900",
"($	c #AA1F00",
"_$	c #B01D04",
":$	c #B54001",
"<$	c #C86D01",
"[$	c #D78E01",
"}$	c #DC9901",
"|$	c #DE9200",
"1$	c #E7A500",
"2$	c #ECB700",
"3$	c #EAB000",
"4$	c #DE8800",
"5$	c #CA4500",
"6$	c #D72E00",
"7$	c #E72D00",
"8$	c #E82D00",
"9$	c #DD2801",
"0$	c #CA2102",
"a$	c #C42301",
"b$	c #B53400",
"c$	c #9A5400",
"d$	c #A52E00",
"e$	c #B43400",
"f$	c #C73C00",
"g$	c #CD4100",
"h$	c #AA4300",
"i$	c #D97600",
"j$	c #CD5B00",
"k$	c #AC3000",
"l$	c #931600",
"m$	c #961200",
"n$	c #9A1701",
"o$	c #A32604",
"p$	c #A83006",
"q$	c #AC3306",
"r$	c #C53603",
"s$	c #D66802",
"t$	c #EA9900",
"u$	c #ED9500",
"v$	c #E26000",
"w$	c #E13800",
"x$	c #D52500",
"y$	c #D73600",
"z$	c #D43600",
"A$	c #C82300",
"B$	c #B72300",
"C$	c #AC1500",
"D$	c #A11100",
"E$	c #9C1101",
"F$	c #AF5100",
"G$	c #D25D00",
"H$	c #D65000",
"I$	c #C46900",
"J$	c #C77C00",
"K$	c #C46500",
"L$	c #B84200",
"M$	c #A92500",
"N$	c #A51800",
"O$	c #A01900",
"P$	c #AA1E00",
"Q$	c #B52C01",
"R$	c #BD3601",
"S$	c #C52600",
"T$	c #DF4700",
"U$	c #EE7F00",
"V$	c #F28700",
"W$	c #E75800",
"X$	c #C12400",
"Y$	c #A71D00",
"Z$	c #A12800",
"`$	c #A42A00",
" %	c #A72000",
".%	c #9F1800",
"+%	c #990C00",
"@%	c #900A00",
"#%	c #8B0A00",
"$%	c #A35C03",
"%%	c #BE5902",
"&%	c #D54600",
"*%	c #CA5600",
"=%	c #C25400",
"-%	c #C66E00",
";%	c #C97E00",
">%	c #C27000",
",%	c #AA3601",
"'%	c #AC3101",
")%	c #AE2900",
"!%	c #B52A00",
"~%	c #C23200",
"{%	c #D23700",
"]%	c #E23D00",
"^%	c #EE5000",
"/%	c #F35400",
"(%	c #E04100",
"_%	c #9F2300",
":%	c #8D1700",
"<%	c #932100",
"[%	c #9A2800",
"}%	c #9C2301",
"|%	c #9F0E00",
"1%	c #9C1800",
"2%	c #941300",
"3%	c #AE4C03",
"4%	c #C23900",
"5%	c #C63400",
"6%	c #C02E00",
"7%	c #C65D00",
"8%	c #CE8D00",
"9%	c #CE9800",
"0%	c #B66701",
"a%	c #B25B01",
"b%	c #B75600",
"c%	c #BF4C00",
"d%	c #CC4400",
"e%	c #E14F00",
"f%	c #E44400",
"g%	c #EC4700",
"h%	c #E34200",
"i%	c #8B1E00",
"j%	c #881400",
"k%	c #911C00",
"l%	c #9A2300",
"m%	c #9F2100",
"n%	c #A71500",
"o%	c #A13100",
"p%	c #AA3202",
"q%	c #BC2400",
"r%	c #C02800",
"s%	c #C54500",
"t%	c #CA6700",
"u%	c #CA7F00",
"v%	c #BD8100",
"w%	c #AE7601",
"x%	c #C08501",
"y%	c #CE7E00",
"z%	c #D26100",
"A%	c #E26400",
"B%	c #DF5200",
"C%	c #DA5A00",
"D%	c #982500",
"E%	c #8A1200",
"F%	c #8E1400",
"G%	c #951500",
"H%	c #A61D00",
"I%	c #A42B00",
"J%	c #9F4900",
"K%	c #A93800",
"L%	c #C54E00",
"M%	c #D35C00",
"N%	c #D25800",
"O%	c #C14601",
"P%	c #A13702",
"Q%	c #A14702",
"R%	c #B56E02",
"S%	c #B97102",
"T%	c #B05A03",
"U%	c #BB7300",
"V%	c #BB5400",
"W%	c #A33700",
"X%	c #912100",
"Y%	c #901500",
"Z%	c #8F1503",
"`%	c #AA0901",
" &	c #BA0D00",
".&	c #AB2300",
"+&	c #833700",
"@&	c #9D5603",
"#&	c #C15701",
"$&	c #D74C00",
"%&	c #CE3300",
"&&	c #BC0E01",
"*&	c #AC2903",
"=&	c #AF4103",
"-&	c #A54304",
";&	c #913705",
">&	c #9A4303",
",&	c #9E2701",
"'&	c #941C00",
")&	c #8F1600",
"!&	c #9E0E01",
"~&	c #D00500",
"{&	c #C20A00",
"]&	c #BA0A01",
"^&	c #A90900",
"/&	c #930B00",
"(&	c #AA3A01",
"_&	c #B72F00",
":&	c #C12200",
"<&	c #C90100",
"[&	c #D00D01",
"}&	c #C61701",
"|&	c #BD1802",
"1&	c #BA1202",
"2&	c #B71601",
"3&	c #A10F00",
"4&	c #A60C00",
"5&	c #A40D01",
"6&	c #A30E03",
"7&	c #AF0800",
"8&	c #AC0A01",
"9&	c #A01D00",
"0&	c #B21800",
"a&	c #B80000",
"b&	c #D40000",
"c&	c #C40700",
"d&	c #C00A00",
"e&	c #CD0600",
"f&	c #C30300",
"g&	c #B00600",
"h&	c #AD0601",
"i&	c #9E0902",
"j&	c #8D0C04",
"k&	c #C40800",
"l&	c #9A0900",
"m&	c #990000",
"n&	c #B90000",
"o&	c #A90E00",
"p&	c #B90E00",
"q&	c #B00501",
"r&	c #BC0501",
"s&	c #A40602",
"t&	c #800803",
"u&	c #650803",
"                                                                ",
"                      . + @ # $ % & * = -                       ",
"                  ; > , ' ) ! ~ { ] ^ / ( _ :                   ",
"              < [ } | 1 2 3 4 5 6 7 8 9 0 a b c d               ",
"            e f g h i j k l m n o p q r s t u v w x             ",
"          y z A B C D E F G H I J K L M N O P Q R S T           ",
"        U V W X Y Z H `  ...+.@.#.$.%.&.*.=.-.;.>.,.'.).        ",
"      !.~.{.].^./.(._.:.<.[.<.}.|.1.2.3.4.5.6.7.8.9.*.0.        ",
"      a.b.c.d.e.f.g.h.i.j.k.l.m.n.o.p.q.r.s.t.u.v.w.x.y.z.      ",
"    A.B.C.D.E.F.G.H.I.J.K.L.M.N.O.P.Q.R.S.T.U.V.W.X.Y.Z.`. +    ",
"    .+++@+#+$+%+&+*+=+-+;+>+,+'+)+!+~+{+]+^+/+(+_+:+<+Z.[+}+    ",
"  |+1+2+3+4+5+6+7+8+9+0+a+b+c+d+e+f+g+h+i+j+k+l+m+n+o+p+q+r+s+  ",
"  t+u+v+w+x+y+z+A+B+C+D+E+F+G+H+I+J+K+L+M+N+O+P+Q+R+S+T+U+V+W+  ",
"  X+Y+Z+`+ @.@+@@@#@$@%@&@*@=@-@;@>@,@'@)@!@~@{@]@^@/@(@_@:@<@  ",
"  [@}@|@1@2@3@W 4@5@6@7@8@9@*@0@a@b@c@d@e@f@g@h@i@j@k@l@m@n@o@  ",
"  p@q@r@s@t@u@v@w@x@y@z@A@B@C@D@E@F@G@H@I@J@K@L@M@N@O@P@Q@R@S@  ",
"  p@T@U@V@W@X@Y@Z@`@ #.#+#@###$#%#&#*#=#-#;#>#,#'#)#!#~#{#]#^#  ",
"  /#(#_#:#<#[#}#|#1#2#3#4#5#6#7#8#9#0#a#b#c#d#e#f#g#h#i#5 j#k#  ",
"  l#m#n#o#p#q#r#s#t#u#v#w#x#y#z#A#B#C#D#E#F#G#H#I#J#D K#L#M#N#  ",
"  O#P#Q#R#S#T#U#V#W#X#Y#Z#`# $.$+$@$#$$$%$&$*$V.n =$-$;$>$,$'$  ",
"    )$2#!$~${$]$^$/$($_$:$<$[$}$|$1$2$3$4$5$6$7$8$9$k 0$a$b$c$  ",
"    d$e$f$g$h$i$j$k$l$m$n$o$p$q$r$s$t$u$v$w$x$y$z$A$B$C$D$E$    ",
"      F$G$H$I$J$K$L$M$N$O$P$Q$R$S$T$U$V$W$X$Y$Z$`$ %.%+%@%#%    ",
"      $%%%&%*%=%-%;%>%,%'%)%!%~%{%]%^%/%(%_%:%<%[%}%|%1%2%      ",
"        3%4%5%6%7%8%9%0%a%b%c%d%e%f%g%h%q#i%j%k%l%m%n%o%y       ",
"        3%p%q%r%s%t%u%v%w%x%y%z%A%B%C%c%D%E%F%G%F@H%I%J%        ",
"          3%K%L%M%N%O%P%Q%R%S%T%U%V%W%X%].Y%Z%`% &.&+&          ",
"            3%@&#&$&%&&&*&=&-&;&>&,&'&)&!&~&{&]&^&/&            ",
"                (&_&:&<&[&}&|&1&2&3&4&5&6&~&7&8&                ",
"                  9&0&a&b&c&d&e&f&g&h&i&j&k&l&                  ",
"                      m&n&o&n%p&q&r&s&t&u&                      ",
"                                                                "};
