/* XPM */
static char * system5_xpm[] = {
"32 32 114 2",
"  	c None",
". 	c #26060C",
"+ 	c #1A0204",
"@ 	c #8E6A54",
"# 	c #9A725C",
"$ 	c #725654",
"% 	c #4A262C",
"& 	c #22020C",
"* 	c #160204",
"= 	c #B6927C",
"- 	c #DAB28C",
"; 	c #C69E7C",
"> 	c #B2826C",
", 	c #82665C",
"' 	c #5E4244",
") 	c #2E0E1C",
"! 	c #16020C",
"~ 	c #1A020C",
"{ 	c #CEB694",
"] 	c #F2C29C",
"^ 	c #E2B694",
"/ 	c #CAA284",
"( 	c #6A4E4C",
"_ 	c #361A1C",
": 	c #1E0204",
"< 	c #C6A684",
"[ 	c #FACAA4",
"} 	c #C29A84",
"| 	c #966E5C",
"1 	c #42222C",
"2 	c #220614",
"3 	c #765E54",
"4 	c #FED6AC",
"5 	c #FACEA4",
"6 	c #AE8264",
"7 	c #725A54",
"8 	c #22060C",
"9 	c #DEC6A4",
"0 	c #FAD2AC",
"a 	c #F6C69C",
"b 	c #EABE9C",
"c 	c #D2AE8C",
"d 	c #AE866C",
"e 	c #927264",
"f 	c #72625C",
"g 	c #4E363C",
"h 	c #FEE2B4",
"i 	c #C29E84",
"j 	c #62524C",
"k 	c #523634",
"l 	c #12020C",
"m 	c #765A5C",
"n 	c #F2C69C",
"o 	c #E6BA94",
"p 	c #BE9A84",
"q 	c #AE826C",
"r 	c #4E323C",
"s 	c #260614",
"t 	c #120204",
"u 	c #968274",
"v 	c #FEDEB4",
"w 	c #E2BA94",
"x 	c #D2AA8C",
"y 	c #AA7E6C",
"z 	c #6E5654",
"A 	c #260A14",
"B 	c #927E74",
"C 	c #F2C6A4",
"D 	c #E2BA9C",
"E 	c #CEAA8C",
"F 	c #8E6A5C",
"G 	c #4A363C",
"H 	c #2A0E1C",
"I 	c #6A5654",
"J 	c #FAD6B4",
"K 	c #EECAA4",
"L 	c #D6B294",
"M 	c #C69E84",
"N 	c #BA9274",
"O 	c #9A7264",
"P 	c #32161C",
"Q 	c #F6DAB4",
"R 	c #B28A74",
"S 	c #9E7A64",
"T 	c #765E5C",
"U 	c #523E44",
"V 	c #A69284",
"W 	c #DAB694",
"X 	c #C6A68C",
"Y 	c #B68E74",
"Z 	c #725E54",
"` 	c #462E3C",
" .	c #321A24",
"..	c #EAD2B4",
"+.	c #DEBA9C",
"@.	c #9A7664",
"#.	c #6E5E5C",
"$.	c #422A34",
"%.	c #F2D6B4",
"&.	c #E2BE9C",
"*.	c #CAAA8C",
"=.	c #8E7264",
"-.	c #6A5A54",
";.	c #523A3C",
">.	c #DABE9C",
",.	c #E2C2A4",
"'.	c #B69274",
").	c #8E7664",
"!.	c #321624",
"~.	c #867264",
"{.	c #C2A68C",
"].	c #564644",
"^.	c #462E2C",
"/.	c #2A121C",
"                                                                ",
"                                                                ",
"                                                                ",
"                                                                ",
"                                                                ",
"                                                                ",
"                                                                ",
"                              . + +                             ",
"                          @ # $ % & + * +                       ",
"                      = - ; > , ' ) ! ~ ! !                     ",
"                    { ] ^ / > , ( _ : * * ~ ~                   ",
"                  < [ ] - } > | $ 1 2 ! ~ * *                   ",
"                3 4 5 ] - } 6 , 7 1 8 * ! ~ ~ ~                 ",
"                9 0 a b c ; d e f % ) ! + * * *                 ",
"              g h 5 a b c i d e j k ) ! l ! ! ! !               ",
"              m 4 0 n o < p q | 7 r s ! t t t * *               ",
"              u v 0 ] w x i y | z r A + t t l t !               ",
"              B v 0 C D E p d F $ G H l t t t ! *               ",
"              I v J K o L M N O 7 r A ! l t t l !               ",
"              P Q v 0 C - E R S T U 2 l t l l *                 ",
"                V h 0 C W X Y S Z ` 2 t t t t !                 ",
"                 ...J K +.X Y @.#.$.2 ! ! * ! *                 ",
"                  ' %.K &.*.R =.-.$.* t l t t                   ",
"                    ;.>.,.*.'.).j !.! ! t !                     ",
"                        ~.{.Y ~.].2 * ! *                       ",
"                            ^.G /.+ !                           ",
"                                                                ",
"                                                                ",
"                                                                ",
"                                                                ",
"                                                                ",
"                                                                "};
