/* XPM */
static char * system19_xpm[] = {
"32 32 412 2",
"  	c None",
". 	c #4CD7FF",
"+ 	c #4DFBFF",
"@ 	c #4CFBFF",
"# 	c #4CF6FC",
"$ 	c #50F0F7",
"% 	c #4FF3F7",
"& 	c #53DEEA",
"* 	c #4FD5EC",
"= 	c #49FFFF",
"- 	c #4AFFFF",
"; 	c #4AF9FF",
"> 	c #48FFFF",
", 	c #4EFFFF",
"' 	c #4FF4FF",
") 	c #50F3FF",
"! 	c #51EAFB",
"~ 	c #4BEAFD",
"{ 	c #58E4FC",
"] 	c #4ED8F4",
"^ 	c #4CFFFF",
"/ 	c #4DFFFF",
"( 	c #4DF3FF",
"_ 	c #4DE6FF",
": 	c #4EEBFF",
"< 	c #4EECFF",
"[ 	c #50EEFD",
"} 	c #50ECF6",
"| 	c #51EBF7",
"1 	c #51EDFE",
"2 	c #4AE9FF",
"3 	c #56FBFF",
"4 	c #4CEBED",
"5 	c #4FFFFF",
"6 	c #4AEBFF",
"7 	c #4DD4FF",
"8 	c #4DDDFF",
"9 	c #4EEFFF",
"0 	c #4FEFFF",
"a 	c #50F9FE",
"b 	c #50F2FD",
"c 	c #51F2FB",
"d 	c #50E8F8",
"e 	c #50E2FF",
"f 	c #50F8FF",
"g 	c #4FF8F8",
"h 	c #4CEDEC",
"i 	c #4CEFFF",
"j 	c #4DFAFF",
"k 	c #49EFFF",
"l 	c #4DE3FF",
"m 	c #4DE9F0",
"n 	c #4DDCEB",
"o 	c #4DC5FF",
"p 	c #4ACAFF",
"q 	c #4ED4FF",
"r 	c #4FE2FF",
"s 	c #4FCAFF",
"t 	c #50EFFE",
"u 	c #50E9FF",
"v 	c #50ECFF",
"w 	c #4FEAEE",
"x 	c #4EF2F1",
"y 	c #4EF3F2",
"z 	c #4DF6FF",
"A 	c #4DF6FE",
"B 	c #4DD3EC",
"C 	c #4DB7FF",
"D 	c #4AAFFF",
"E 	c #4BA7FF",
"F 	c #4EABFF",
"G 	c #4EA0FF",
"H 	c #4EA7FF",
"I 	c #4FCCFF",
"J 	c #49E8FE",
"K 	c #4FE3FF",
"L 	c #4EE6F0",
"M 	c #4EDEDD",
"N 	c #50F7F6",
"O 	c #4CFCFF",
"P 	c #4FF5FF",
"Q 	c #4CF4FF",
"R 	c #4DEFFF",
"S 	c #4DF7FF",
"T 	c #4DE9FF",
"U 	c #4DC1FC",
"V 	c #4DB1FF",
"W 	c #4DADFF",
"X 	c #4EA1EC",
"Y 	c #5096DB",
"Z 	c #4DABDE",
"` 	c #4DB8EA",
" .	c #4DCCEC",
"..	c #4ED4EC",
"+.	c #4EE0FF",
"@.	c #4EE9FC",
"#.	c #4DD6DA",
"$.	c #4DD9E6",
"%.	c #4FE1F3",
"&.	c #4CF0FF",
"*.	c #4DF2FF",
"=.	c #4DF9FF",
"-.	c #4DF1FF",
";.	c #4DDBFF",
">.	c #4DC3FF",
",.	c #4DA6FD",
"'.	c #4DA4F8",
").	c #52BAEA",
"!.	c #4FB9D7",
"~.	c #4DC1CD",
"{.	c #4EC0D7",
"].	c #52CBE2",
"^.	c #52CFE0",
"/.	c #4FBBD1",
"(.	c #4DC6E4",
"_.	c #4DDDED",
":.	c #4DD8DD",
"<.	c #4DCDD5",
"[.	c #4DEAFF",
"}.	c #4CFAFF",
"|.	c #4CEAFF",
"1.	c #4DD3FF",
"2.	c #4DCEFF",
"3.	c #4DC9FF",
"4.	c #4DC8FA",
"5.	c #4DCAE4",
"6.	c #4DBEE8",
"7.	c #4BD6ED",
"8.	c #4DE5EE",
"9.	c #4DDCE5",
"0.	c #4CCDE5",
"a.	c #4DCFE0",
"b.	c #4DC5CA",
"c.	c #4CBBBD",
"d.	c #4CC2C7",
"e.	c #4DD5DB",
"f.	c #4DD5D7",
"g.	c #4DC6CE",
"h.	c #4DEDFF",
"i.	c #4DE3F6",
"j.	c #4AF8FF",
"k.	c #4CE4FF",
"l.	c #4BDBFF",
"m.	c #4DCFFF",
"n.	c #4DC8FF",
"o.	c #4DD8FA",
"p.	c #4DD2E4",
"q.	c #4DD3E3",
"r.	c #4DDAEE",
"s.	c #4EE0EE",
"t.	c #4CDADD",
"u.	c #4DD7DA",
"v.	c #4DE1DD",
"w.	c #4DE6E0",
"x.	c #4DDCDD",
"y.	c #4DDCDC",
"z.	c #4DD8D4",
"A.	c #4DCECF",
"B.	c #4DC6DE",
"C.	c #4DE6FA",
"D.	c #4DEEFF",
"E.	c #4BE8FF",
"F.	c #4DDCFF",
"G.	c #4DC1FF",
"H.	c #4DD5FF",
"I.	c #4DCAFF",
"J.	c #4DE7FA",
"K.	c #4DDEEA",
"L.	c #4CD1D6",
"M.	c #4DCBDB",
"N.	c #4DE0E3",
"O.	c #4DE3E1",
"P.	c #4DE8E6",
"Q.	c #4EE6EC",
"R.	c #4EE3F7",
"S.	c #4AE7FC",
"T.	c #4EE7EB",
"U.	c #4DD8D5",
"V.	c #4DCAD7",
"W.	c #4DD6EB",
"X.	c #4DEEFC",
"Y.	c #4DE9FA",
"Z.	c #4CDFFE",
"`.	c #4CCAED",
" +	c #4DA9F8",
".+	c #4DBFFF",
"++	c #4DD0FF",
"@+	c #4DD7FF",
"#+	c #4BE4E6",
"$+	c #4DE7E6",
"%+	c #4DE8E5",
"&+	c #4DE0E5",
"*+	c #4BDDEC",
"=+	c #52E3FA",
"-+	c #56E4FB",
";+	c #56E3FD",
">+	c #4EF1F5",
",+	c #4DD1D0",
"'+	c #4DDCEC",
")+	c #4DF3FD",
"!+	c #4DF3FC",
"~+	c #4CE4FD",
"{+	c #4ECDE7",
"]+	c #4CABD8",
"^+	c #4DABFF",
"/+	c #4DB0FF",
"(+	c #4D90FF",
"_+	c #4DDAFF",
":+	c #4DF3FE",
"<+	c #4DF5FE",
"[+	c #4DEBEF",
"}+	c #4DE8E9",
"|+	c #50DAE9",
"1+	c #4EE1F1",
"2+	c #4EE5FF",
"3+	c #4AE1FF",
"4+	c #53E2EF",
"5+	c #4EE5E7",
"6+	c #4DCDD2",
"7+	c #4DD7F0",
"8+	c #4DE8FE",
"9+	c #4DF0FB",
"0+	c #4CECFF",
"a+	c #4DE8F8",
"b+	c #4CB5D6",
"c+	c #4C9AD2",
"d+	c #4C96E3",
"e+	c #4DA4FF",
"f+	c #4DCBFF",
"g+	c #4DF4FE",
"h+	c #5AEEF7",
"i+	c #4DEAF2",
"j+	c #4EDDF2",
"k+	c #50DEFF",
"l+	c #49D8FF",
"m+	c #4AE6F5",
"n+	c #4EECEC",
"o+	c #4EDBDD",
"p+	c #4DD4DC",
"q+	c #4EE4F6",
"r+	c #4EE4F9",
"s+	c #4DE4FA",
"t+	c #4DF0FF",
"u+	c #4CE2FF",
"v+	c #4DEDFA",
"w+	c #4DDCE6",
"x+	c #4CBBD1",
"y+	c #4CA6C5",
"z+	c #4CA2C9",
"A+	c #4CA7F6",
"B+	c #4D95FF",
"C+	c #4DC2FF",
"D+	c #4DC6FF",
"E+	c #4EB1FF",
"F+	c #4EB3FF",
"G+	c #53D5F7",
"H+	c #4FEAF5",
"I+	c #4EE6E8",
"J+	c #4ED3D6",
"K+	c #4ED9ED",
"L+	c #4EE2FA",
"M+	c #4EE3F9",
"N+	c #4DE1F9",
"O+	c #4CC1E0",
"P+	c #4CB5E2",
"Q+	c #4CE1EE",
"R+	c #50EAF5",
"S+	c #4DEEF8",
"T+	c #4AE8F4",
"U+	c #4DEEF7",
"V+	c #4DE3EC",
"W+	c #4CB0C2",
"X+	c #4C96D1",
"Y+	c #4CAFFF",
"Z+	c #4DBBFF",
"`+	c #4DB1F5",
" @	c #4C99DD",
".@	c #4C9ED7",
"+@	c #4DBDDC",
"@@	c #5CD9E0",
"#@	c #4EE3ED",
"$@	c #4EE2E3",
"%@	c #4EDFE8",
"&@	c #4FD3F8",
"*@	c #4EE0F8",
"=@	c #4EE4FA",
"-@	c #4DD4F4",
";@	c #4CD2D7",
">@	c #4CE4E9",
",@	c #4CDCE8",
"'@	c #4DE0EA",
")@	c #4DDFF5",
"!@	c #4DE7EE",
"~@	c #4CC4CF",
"{@	c #4CA8C3",
"]@	c #4CB6F9",
"^@	c #4BCEF5",
"/@	c #54CCD6",
"(@	c #60B9C2",
"_@	c #60CDD7",
":@	c #4CD8DD",
"<@	c #4EDEE0",
"[@	c #4EDBE2",
"}@	c #4ED6EC",
"|@	c #4FD1FF",
"1@	c #4FDAF8",
"2@	c #4FE9FF",
"3@	c #4EE5FB",
"4@	c #4DE4F8",
"5@	c #4CD6D8",
"6@	c #4CE1E2",
"7@	c #4CE2EA",
"8@	c #4CD4E2",
"9@	c #4DD2E5",
"0@	c #4DD3DC",
"a@	c #4CC4C9",
"b@	c #4CAFC7",
"c@	c #4CC3F9",
"d@	c #4DF4F8",
"e@	c #4DE6F8",
"f@	c #4EEDF2",
"g@	c #4EE8ED",
"h@	c #4EE6EB",
"i@	c #4EDCEB",
"j@	c #4BD6F9",
"k@	c #4EC0FF",
"l@	c #4ECAFB",
"m@	c #4EE3FD",
"n@	c #52CFE5",
"o@	c #4CDFEF",
"p@	c #4DFAFC",
"q@	c #4CDDF0",
"r@	c #4DE0F1",
"s@	c #4DD9DF",
"t@	c #4CB7C7",
"u@	c #4CC1CB",
"v@	c #4DECF7",
"w@	c #4DF5FF",
"x@	c #4DF2FB",
"y@	c #4EEBF7",
"z@	c #4DE5FA",
"A@	c #50D2EF",
"B@	c #4EAEFF",
"C@	c #4FBEFF",
"D@	c #4EDAEC",
"E@	c #4DCFE5",
"F@	c #4DD0E2",
"G@	c #64AFE0",
"H@	c #4CB5E0",
"I@	c #4CE6F5",
"J@	c #4BE5F0",
"K@	c #4DE0E8",
"L@	c #4CD0D6",
"M@	c #4CBBCD",
"N@	c #4DCAEF",
"O@	c #4DE4FB",
"P@	c #4DE1FF",
"Q@	c #4EC3FF",
"R@	c #50B9FD",
"S@	c #4DA0E3",
"T@	c #4DAEE8",
"U@	c #4ED9FA",
"V@	c #4FEFF7",
"W@	c #4EE7EF",
"X@	c #54C8DC",
"Y@	c #4CB1CE",
"Z@	c #4CE6F0",
"`@	c #4DFBF9",
" #	c #5CE5ED",
".#	c #4DE1E9",
"+#	c #4CCAD1",
"@#	c #4CB5C5",
"##	c #4CB6D1",
"$#	c #4CB0E2",
"%#	c #57B5D3",
"&#	c #4FAAE3",
"*#	c #4EBADB",
"=#	c #50B5C8",
"-#	c #4EDDFF",
";#	c #4DD6EC",
">#	c #4CCFCE",
",#	c #4EE1E2",
"'#	c #4DEDEF",
")#	c #56E6EA",
"!#	c #4CCAD0",
"~#	c #5EBCD3",
"{#	c #68B9C7",
"]#	c #53C9DF",
"^#	c #5BD9E5",
"/#	c #4EE7E4",
"(#	c #4DCEDC",
"_#	c #4DCCE7",
":#	c #5EABD7",
"<#	c #4CC6C7",
"[#	c #4DE3E4",
"}#	c #60DCDF",
"|#	c #4DF3F3",
"1#	c #4DE6E7",
"2#	c #4EF5F3",
"3#	c #4EF5F2",
"4#	c #4EEFEE",
"5#	c #4EFBF8",
"6#	c #4EEAE6",
"7#	c #4DC0C9",
"8#	c #4CB5BC",
"9#	c #52C1C2",
"0#	c #57E3E4",
"a#	c #4EF4F5",
"b#	c #4EEEEF",
"c#	c #4EDFE9",
"d#	c #4EF4F1",
"e#	c #4EE6E4",
"                                                                ",
"                                                                ",
"                                                                ",
"                                                                ",
"                        . + @ # $ % & *                         ",
"                    = - ; > , , ' ) ! ~ { ]                     ",
"                ^ ^ > / ( _ : < ' [ } | 1 2 3 4                 ",
"              ^ ^ ^ 5 6 7 8 : 9 0 a b c d e f g h               ",
"            i ^ ^ j k l m n o p q r s t t u v w x y             ",
"            ^ ^ ^ z ( + A B C D E F G H I J K L M N             ",
"          O ^ P Q R j S T U V W X Y Z `  ...+.@.#.$.%.          ",
"          ^ ^ &.*.=.-.;.>.,.'.).!.~.{.].^./.(._.:.<.[.          ",
"        Q }.^ |.l 1.2.3.4.5.6.7.8.9.0.a.b.c.d.e.f.g.h.i.        ",
"        @ }.j.k.l.m.n.m.o.p.q.r.s.t.u.v.w.x.y.z.A.B.C.D.        ",
"        ^ ^ E.F.G.H.I.o J.K.L.M.N.O.P.Q.R.S.T.U.V.W.X.Y.        ",
"        ^ ^ Z.`. +.+n.++@+C.#+$+%+&+*+=+-+;+>+,+'+h.)+!+        ",
"        ^ ^ ~+{+]+^+/+(+_+:+<+[+}+|+1+2+3+4+5+6+7+8+9+<+        ",
"        ^ ^ 0+a+b+c+d+W e+f+g+h+i+j+k+l+m+n+o+p+q+r+s+t+        ",
"        ^ ^ u+v+w+x+y+z+A+B+C+D+D+E+F+G+H+I+J+K+L+M+N+O+        ",
"        P+Q+R+S+T+U+V+W+X+Y+Z+`+ @.@+@@@#@$@%@&@*@=@-@          ",
"          ;@>@,@'@)@!@~@{@]@^@/@(@_@:@<@[@}@|@1@2@3@4@          ",
"          5@6@7@8@9@0@a@b@c@R d@e@f@g@h@i@j@k@l@m@2.n@          ",
"            o@p@q@r@s@t@u@v@w@-.x@y@z@A@B@C@D@E@F@G@            ",
"            H@I@S+J@K@L@M@N@O@T P@Q@R@S@T@U@V@W@X@              ",
"              Y@Z@`@ #.#+#@###$#%#&#*#=#B.-#+.;#                ",
"                >#,#'#/ )#p+!#~#{#]#^#/#(#_#:#                  ",
"                    <#[#}#|#1#2#3#4#5#6#7#8#                    ",
"                        9#0#a#b#f@c#d#e#                        ",
"                                                                ",
"                                                                ",
"                                                                ",
"                                                                "};
