/* XPM */
static char * system1_xpm[] = {
"32 32 186 2",
"  	c None",
". 	c #0A1624",
"+ 	c #0E1624",
"@ 	c #0A0E1C",
"# 	c #5A727C",
"$ 	c #8EA6AC",
"% 	c #9EBABC",
"& 	c #A2BEC4",
"* 	c #96B2B4",
"= 	c #7EA2A4",
"- 	c #5E828C",
"; 	c #365254",
"> 	c #121A2C",
", 	c #566664",
"' 	c #BECECC",
") 	c #CED6C4",
"! 	c #BAC2BC",
"~ 	c #B2C6BC",
"{ 	c #A2B6B4",
"] 	c #728E8C",
"^ 	c #3E6A6C",
"/ 	c #3E6664",
"( 	c #426E74",
"_ 	c #467A84",
": 	c #26465C",
"< 	c #7E969C",
"[ 	c #BEC6BC",
"} 	c #A6AEA4",
"| 	c #9AAA9C",
"1 	c #8A968C",
"2 	c #AAAE9C",
"3 	c #5E827C",
"4 	c #3A6264",
"5 	c #2E5A5C",
"6 	c #2A565C",
"7 	c #467274",
"8 	c #56828C",
"9 	c #7A8E94",
"0 	c #BABEB4",
"a 	c #AAA694",
"b 	c #92A294",
"c 	c #AABAB4",
"d 	c #BACABC",
"e 	c #AEC6C4",
"f 	c #7EA6A4",
"g 	c #669294",
"h 	c #2E6264",
"i 	c #0E3644",
"j 	c #42565C",
"k 	c #C2C6BC",
"l 	c #9EA69C",
"m 	c #C2CABC",
"n 	c #D2CEBC",
"o 	c #E6EADC",
"p 	c #D2D6C4",
"q 	c #BECEC4",
"r 	c #D6DED4",
"s 	c #DEEEE4",
"t 	c #AECAC4",
"u 	c #1A4244",
"v 	c #16424C",
"w 	c #0A1E2C",
"x 	c #C2D2C4",
"y 	c #B6BAAC",
"z 	c #9A9E8C",
"A 	c #9E9E8C",
"B 	c #A6AA9C",
"C 	c #868A74",
"D 	c #8A866C",
"E 	c #C2C2AC",
"F 	c #DEDAC4",
"G 	c #D2DACC",
"H 	c #BEDAD4",
"I 	c #729E9C",
"J 	c #3E767C",
"K 	c #1A464C",
"L 	c #1A3E44",
"M 	c #3E4A54",
"N 	c #D2D2BC",
"O 	c #7E8274",
"P 	c #627264",
"Q 	c #5E6E5C",
"R 	c #62766C",
"S 	c #728A84",
"T 	c #B6CAC4",
"U 	c #869E8C",
"V 	c #BAC2B4",
"W 	c #D2EADC",
"X 	c #92BAB4",
"Y 	c #121E24",
"Z 	c #566264",
"` 	c #AAA28C",
" .	c #7A8E84",
"..	c #929A8C",
"+.	c #9AA69C",
"@.	c #B2B6AC",
"#.	c #829284",
"$.	c #6E7A6C",
"%.	c #66766C",
"&.	c #96A294",
"*.	c #C2DACC",
"=.	c #82A6A4",
"-.	c #46767C",
";.	c #1A323C",
">.	c #6E766C",
",.	c #5E665C",
"'.	c #526254",
").	c #9A927C",
"!.	c #9E9A84",
"~.	c #2A3A34",
"{.	c #22322C",
"].	c #162A2C",
"^.	c #2A3E34",
"/.	c #5E7664",
"(.	c #6E8274",
"_.	c #2E4A44",
":.	c #869A94",
"<.	c #668A8C",
"[.	c #12222C",
"}.	c #5A6A5C",
"|.	c #3A4A3C",
"1.	c #2E3A34",
"2.	c #6E7264",
"3.	c #42564C",
"4.	c #0E161C",
"5.	c #0A161C",
"6.	c #0E1E2C",
"7.	c #3A5E54",
"8.	c #26423C",
"9.	c #2E524C",
"0.	c #32524C",
"a.	c #121A24",
"b.	c #3E4E4C",
"c.	c #32423C",
"d.	c #1E2E34",
"e.	c #6A6A5C",
"f.	c #3A524C",
"g.	c #0E222C",
"h.	c #0A1A24",
"i.	c #0A1E24",
"j.	c #122E34",
"k.	c #324644",
"l.	c #6E867C",
"m.	c #426664",
"n.	c #264A4C",
"o.	c #0E121C",
"p.	c #222E34",
"q.	c #425E54",
"r.	c #1A3234",
"s.	c #2E4644",
"t.	c #162E34",
"u.	c #0A222C",
"v.	c #123234",
"w.	c #1E363C",
"x.	c #4A625C",
"y.	c #324A44",
"z.	c #263A3C",
"A.	c #0E2A34",
"B.	c #16363C",
"C.	c #1A3A3C",
"D.	c #1E3E44",
"E.	c #224644",
"F.	c #061224",
"G.	c #52665C",
"H.	c #1A363C",
"I.	c #224244",
"J.	c #324E44",
"K.	c #325A5C",
"L.	c #2A4A4C",
"M.	c #5E7264",
"N.	c #365654",
"O.	c #3A5654",
"P.	c #2E565C",
"Q.	c #1E424C",
"R.	c #2E4244",
"S.	c #466664",
"T.	c #4A6664",
"U.	c #325254",
"V.	c #325654",
"W.	c #2E5254",
"X.	c #1E3A3C",
"Y.	c #22424C",
"Z.	c #32565C",
"`.	c #2A5254",
" +	c #2A464C",
".+	c #122A34",
"                                                                ",
"                                                                ",
"                                                                ",
"                                                                ",
"                                                                ",
"                                                                ",
"                                                                ",
"                              . + @                             ",
"                        # $ % & * = - ; >                       ",
"                    , ' ) ! ~ { ] ^ / ( _ :                     ",
"                  < [ } | 1 2 ~ 3 4 5 6 7 8 (                   ",
"                9 0 a 1 b c d ) ' e f * % g h i                 ",
"              j k l 2 m n o p [ q r s t g u i v w               ",
"              c x y z A B C D E F G q s H I J K L               ",
"            M N F y O P Q R S [ T U 1 V G W X ( h Y             ",
"            Z A B `  ...+.@.z O #.$.%.#.&.+.*.=.-.;.            ",
"            Z >.,.'.).!.!.,.~.{.{.].^./.(._.(.:.<.[.            ",
"            Z }.|.1.1.2.3.].Y + 4.5.6.~.Q 7.8.9.0.a.            ",
"            b.'.c.d.].e.f.g.].h.h.h.i.j.k.l.m.n.L o.            ",
"            p.q.^.d.r.O s.t.[.i.i.u.u.v.r.w.q.^ j.              ",
"              x.y.z.w.%.w.r.t.;.A.v.B.B.C.D.E.5 F.              ",
"              p.G.s.b.}.H.r.w.C.;.H.I.J.K.L.C.u.                ",
"                b.M.x.%.f.J.y.N.N.O.x.K.P.Q.u.                  ",
"                  R.S.T.N.U.V.O.U.P.W.n.X.g.                    ",
"                    Y Y.P.Z.K.`. +E.u A.F.                      ",
"                          6..+.+u..                             ",
"                                                                ",
"                                                                ",
"                                                                ",
"                                                                ",
"                                                                ",
"                                                                "};
