/* XPM */
static char * system17_xpm[] = {
"32 32 161 2",
"  	c None",
". 	c #3A2614",
"+ 	c #7E522C",
"@ 	c #A66634",
"# 	c #B26E3C",
"$ 	c #925A34",
"% 	c #6E4224",
"& 	c #362214",
"* 	c #321E14",
"= 	c #AE6E3C",
"- 	c #DE8E4C",
"; 	c #DE8A44",
"> 	c #D28244",
", 	c #B26A3C",
"' 	c #CE8244",
") 	c #DA8A4C",
"! 	c #B2764C",
"~ 	c #AE6A3C",
"{ 	c #9E623C",
"] 	c #5A3A24",
"^ 	c #CA7A3C",
"/ 	c #E2964C",
"( 	c #D2864C",
"_ 	c #DA9254",
": 	c #CA8654",
"< 	c #6A4E4C",
"[ 	c #5E463C",
"} 	c #7A564C",
"| 	c #A66A44",
"1 	c #664224",
"2 	c #C67A44",
"3 	c #D6864C",
"4 	c #E29654",
"5 	c #E69A54",
"6 	c #EA9E54",
"7 	c #D68A4C",
"8 	c #C27A4C",
"9 	c #9E6E54",
"0 	c #5E4644",
"a 	c #36323C",
"b 	c #1A263C",
"c 	c #4A3A3C",
"d 	c #9E6A4C",
"e 	c #724E2C",
"f 	c #CA824C",
"g 	c #DA8644",
"h 	c #DE924C",
"i 	c #E6964C",
"j 	c #BA7E54",
"k 	c #1E2634",
"l 	c #6E4E44",
"m 	c #D28E5C",
"n 	c #A26644",
"o 	c #CE824C",
"p 	c #C2763C",
"q 	c #523E3C",
"r 	c #322E3C",
"s 	c #3E363C",
"t 	c #524244",
"u 	c #966654",
"v 	c #32221C",
"w 	c #BE7A4C",
"x 	c #D68644",
"y 	c #6E4E3C",
"z 	c #62423C",
"A 	c #2A2A3C",
"B 	c #5E4A4C",
"C 	c #C68254",
"D 	c #3A2A1C",
"E 	c #6E4634",
"F 	c #BE723C",
"G 	c #CE7E44",
"H 	c #D27E3C",
"I 	c #765244",
"J 	c #564244",
"K 	c #3A323C",
"L 	c #5A4644",
"M 	c #76564C",
"N 	c #A26E54",
"O 	c #825A3C",
"P 	c #8E5A3C",
"Q 	c #C67E44",
"R 	c #AA6E44",
"S 	c #8A5A44",
"T 	c #5A423C",
"U 	c #624644",
"V 	c #4A3E44",
"W 	c #2E2E3C",
"X 	c #4E4244",
"Y 	c #6E524C",
"Z 	c #A26A4C",
"` 	c #A26A44",
" .	c #9E6244",
"..	c #BA723C",
"+.	c #C6763C",
"@.	c #A26234",
"#.	c #CA7E44",
"$.	c #8E5E44",
"%.	c #66463C",
"&.	c #825644",
"*.	c #523E44",
"=.	c #423A44",
"-.	c #B2724C",
";.	c #B66E3C",
">.	c #A2623C",
",.	c #7E523C",
"'.	c #563E3C",
").	c #7A523C",
"!.	c #5A4244",
"~.	c #5A464C",
"{.	c #52362C",
"].	c #C67634",
"^.	c #865A44",
"/.	c #664644",
"(.	c #664A44",
"_.	c #6E4E4C",
":.	c #764E3C",
"<.	c #322224",
"[.	c #523A3C",
"}.	c #82523C",
"|.	c #AE663C",
"1.	c #C2723C",
"2.	c #9A6244",
"3.	c #82563C",
"4.	c #6E4A3C",
"5.	c #7A5244",
"6.	c #764E44",
"7.	c #6E4A44",
"8.	c #362A24",
"9.	c #1E1614",
"0.	c #764A3C",
"a.	c #AA663C",
"b.	c #BA6E34",
"c.	c #BE7234",
"d.	c #724E44",
"e.	c #62463C",
"f.	c #6A4A3C",
"g.	c #46363C",
"h.	c #86563C",
"i.	c #825234",
"j.	c #8A563C",
"k.	c #9A5E3C",
"l.	c #925E44",
"m.	c #423234",
"n.	c #1E120C",
"o.	c #865234",
"p.	c #925E3C",
"q.	c #965E3C",
"r.	c #8A5A3C",
"s.	c #523A34",
"t.	c #6A463C",
"u.	c #7A4E3C",
"v.	c #1A120C",
"w.	c #7E4E34",
"x.	c #8E563C",
"y.	c #321E1C",
"z.	c #16120C",
"A.	c #724A3C",
"B.	c #3E2E24",
"C.	c #92624C",
"D.	c #A27254",
"                                                                ",
"                                                                ",
"                                                                ",
"                                                                ",
"                                                                ",
"                                                                ",
"                        . + @ # @ $ % &                         ",
"                    * = - ; > , ' ) ! ~ { *                     ",
"                  ] ^ ) - / - ( _ : < [ } | 1                   ",
"                ] 2 3 4 5 6 7 ( 8 9 0 a b c d e                 ",
"              * f ( g h 4 4 i > 7 j c k b b l m .               ",
"              n 7 o ' i 5 6 4 p 8 : q r k s t u !               ",
"            v w o ^ ( ) - 5 7 x f y z s A s B B C D             ",
"            E F o G H > 3 - - 7 n I J K A a L M N O             ",
"            P Q f o ' ( - x > R S T U V W W X Y Z `             ",
"             ...G +.@.2 x #.# $.%.&.*.0 c =.V < -.w             ",
"            S ;.#.p ;.^ H ..>.,.'.).'.*.!.0 ~.< d !             ",
"            {.P F ].p +.+.,  . .n ^./.%.q (.L < _.:.            ",
"            <.[.}.|.].^ 1...2.3.4.5.5.6.7.'.c J !.8.            ",
"            9.:.E 0.a.b.c.b.a. .}.3.^.d.e.f.g.'.J               ",
"              E h.i.j.k.|.~ ~ ~ l.$.^.T e.q J %.m.              ",
"              n.o.o.h.P p.q.>.r.s.t.}.u.:.s.%.%.v.              ",
"                & w.i.o.x.$ k.q.r.p.p.}.6.:.).y.                ",
"                  y.% 0.4.:.&.S x.j.&.,.4.4.v                   ",
"                    z.{.%.t.0.).A.5.M } '.                      ",
"                        v.B.[ C.D.9 4.v                         ",
"                                                                ",
"                                                                ",
"                                                                ",
"                                                                ",
"                                                                ",
"                                                                "};
