/* XPM */
static char * system10_xpm[] = {
"32 32 123 2",
"  	c None",
". 	c #878787",
"+ 	c #A5A5A5",
"@ 	c #E3E3E3",
"# 	c #E1E1E1",
"$ 	c #EDEDED",
"% 	c #DFDFDF",
"& 	c #C5C5C5",
"* 	c #8C8C8C",
"= 	c #B7B7B7",
"- 	c #CFCFCF",
"; 	c #DEDEDE",
"> 	c #FFFFFF",
", 	c #E7E7E7",
"' 	c #FDFDFD",
") 	c #C8C8C8",
"! 	c #888888",
"~ 	c #C9C9C9",
"{ 	c #C0C0C0",
"] 	c #FBFBFB",
"^ 	c #FEFEFE",
"/ 	c #E9E9E9",
"( 	c #E2E2E2",
"_ 	c #E8E8E8",
": 	c #F5F5F5",
"< 	c #ABABAB",
"[ 	c #8A8A8A",
"} 	c #BCBCBC",
"| 	c #EEEEEE",
"1 	c #FAFAFA",
"2 	c #F8F8F8",
"3 	c #D6D6D6",
"4 	c #DDDDDD",
"5 	c #F3F3F3",
"6 	c #F2F2F2",
"7 	c #C4C4C4",
"8 	c #A0A0A0",
"9 	c #B4B4B4",
"0 	c #A3A3A3",
"a 	c #D1D1D1",
"b 	c #ECECEC",
"c 	c #C2C2C2",
"d 	c #D7D7D7",
"e 	c #CCCCCC",
"f 	c #F9F9F9",
"g 	c #E5E5E5",
"h 	c #BBBBBB",
"i 	c #C6C6C6",
"j 	c #A1A1A1",
"k 	c #D2D2D2",
"l 	c #B3B3B3",
"m 	c #B9B9B9",
"n 	c #C1C1C1",
"o 	c #EFEFEF",
"p 	c #F0F0F0",
"q 	c #8E8E8E",
"r 	c #939393",
"s 	c #7C7C7C",
"t 	c #CBCBCB",
"u 	c #BEBEBE",
"v 	c #C3C3C3",
"w 	c #D4D4D4",
"x 	c #949494",
"y 	c #919191",
"z 	c #CACACA",
"A 	c #D9D9D9",
"B 	c #C7C7C7",
"C 	c #F6F6F6",
"D 	c #8F8F8F",
"E 	c #D0D0D0",
"F 	c #8B8B8B",
"G 	c #ACACAC",
"H 	c #959595",
"I 	c #B8B8B8",
"J 	c #D5D5D5",
"K 	c #DBDBDB",
"L 	c #E6E6E6",
"M 	c #A4A4A4",
"N 	c #D3D3D3",
"O 	c #9A9A9A",
"P 	c #848484",
"Q 	c #858585",
"R 	c #9D9D9D",
"S 	c #EAEAEA",
"T 	c #DCDCDC",
"U 	c #EBEBEB",
"V 	c #AAAAAA",
"W 	c #969696",
"X 	c #818181",
"Y 	c #999999",
"Z 	c #ADADAD",
"` 	c #B2B2B2",
" .	c #B0B0B0",
"..	c #B5B5B5",
"+.	c #FCFCFC",
"@.	c #BABABA",
"#.	c #A7A7A7",
"$.	c #E0E0E0",
"%.	c #9E9E9E",
"&.	c #BFBFBF",
"*.	c #F1F1F1",
"=.	c #DADADA",
"-.	c #9F9F9F",
";.	c #CECECE",
">.	c #A2A2A2",
",.	c #D8D8D8",
"'.	c #A9A9A9",
").	c #CDCDCD",
"!.	c #AFAFAF",
"~.	c #A8A8A8",
"{.	c #B1B1B1",
"].	c #B6B6B6",
"^.	c #838383",
"/.	c #AEAEAE",
"(.	c #8D8D8D",
"_.	c #BDBDBD",
":.	c #A6A6A6",
"<.	c #979797",
"[.	c #F4F4F4",
"}.	c #868686",
"|.	c #929292",
"1.	c #989898",
"2.	c #787878",
"                                                                ",
"                                                                ",
"                                                                ",
"                                                                ",
"                        . + @ # $ % & +                         ",
"                    * = - ; > $ > > , % ' )                     ",
"                ! ~ { ] > ^ ] > / ( , _ > > : <                 ",
"              [ } ; | > > 1 > > > 2 $ 3 4 $ 5 6 7               ",
"            8 9 0 a ^ > b c d ) ~ e f > : g , > 5 h             ",
"            i ! j / 6 k l m = m n ) 6 > ^ o 5 : > p             ",
"          q r s ) 6 k i t 3 l m u v w > > 5 | : b > a           ",
"          { x y { t ) z u e A n 7 v B w b o : C | > >           ",
"        D E F r G H y H I ~ d 3 E J > / K L L $ $ : 4 M         ",
"        N 3 O P F * Q R M l u B K S $ @ # K @ / / b , )         ",
"        T U V W X Y m m Z `  .u 9 < ..3 E w % N ( # +.$         ",
"        ' p U % P B n n k m Z @...#.} p $.k t z ( @ > >         ",
"        +.L ; o %.Z h E 6 g &.u m 1 > *.z ) B a =._ > >         ",
"        5 E k $ ~ -.i e E ;.n ) n # L u ) ) e , ' *.: ,         ",
"        0 =.J 3 4 >.G =.} k E n ;.4 h v k k _ > > a ^ #         ",
"          @.@ ,.m h '.& a u B i i ~ & i ).f > > > _ / r         ",
"          l e L !.A ) ~.!.{.@.9 d w w ( 2 *./ / - B ].          ",
"          ^.v / { /.7 c n ].).;.# 1 % 1 w '.8 `  . .j           ",
"            (.L 3 E l ` !.&._.a S 1 > > O W Z :.v {.            ",
"               .T A B m '.<.m 3 6 [.L < %.M M h { Y             ",
"                l k ,.k < >.Z Z /.&.j j #.+ g - }.              ",
"                  . @ S b _.h |.1.{.8 Z > 5 A '.                ",
"                    V i 1 > *.> ' u S ].b <                     ",
"                        } U !.4 w ,  .2.                        ",
"                                                                ",
"                                                                ",
"                                                                ",
"                                                                "};
