/* XPM */
static char * system20_xpm[] = {
"32 32 543 2",
"  	c None",
". 	c #03E2D0",
"+ 	c #3ADBD5",
"@ 	c #41E7D8",
"# 	c #4BDDD1",
"$ 	c #54D6D0",
"% 	c #22978B",
"& 	c #3AC7C2",
"* 	c #7AEDE5",
"= 	c #5DEDE6",
"- 	c #EDFCFB",
"; 	c #E6FEFC",
"> 	c #D1FEFB",
", 	c #B6F9F4",
"' 	c #6BC7BF",
") 	c #24B4AD",
"! 	c #69EBE5",
"~ 	c #EEFCFB",
"{ 	c #ECFEFD",
"] 	c #DAFFFD",
"^ 	c #E6FFFD",
"/ 	c #DCFFFD",
"( 	c #E0FFFD",
"_ 	c #D0F6F4",
": 	c #97D3CE",
"< 	c #48C2B4",
"[ 	c #34D8CA",
"} 	c #C8F6F5",
"| 	c #F1FFFE",
"1 	c #C6FFFB",
"2 	c #C3FFFB",
"3 	c #D2FFFC",
"4 	c #D6FFFC",
"5 	c #DDFEFC",
"6 	c #D4EEEC",
"7 	c #78EBDD",
"8 	c #5EDFD7",
"9 	c #F3FDFC",
"0 	c #EEFFFE",
"a 	c #CDFFFC",
"b 	c #C2FFFB",
"c 	c #D9FFFD",
"d 	c #E2FFFD",
"e 	c #CAFFFC",
"f 	c #C5FFFB",
"g 	c #E8FEFD",
"h 	c #B6DDDA",
"i 	c #47A69A",
"j 	c #69E9DC",
"k 	c #EDFEFD",
"l 	c #D8FFFC",
"m 	c #C2FEFA",
"n 	c #CBFFFC",
"o 	c #D1FFFC",
"p 	c #BFFFFB",
"q 	c #B5FFFA",
"r 	c #DBFFFD",
"s 	c #E4F4F3",
"t 	c #73D4C8",
"u 	c #A60066",
"v 	c #BA0095",
"w 	c #CE01C4",
"x 	c #DD00DC",
"y 	c #DD00E8",
"z 	c #C700C2",
"A 	c #D8009D",
"B 	c #6FEBE2",
"C 	c #E2FAF7",
"D 	c #C9FFFC",
"E 	c #E2FEFC",
"F 	c #CCFFFC",
"G 	c #BBFFFB",
"H 	c #F2FFFE",
"I 	c #D6F0EE",
"J 	c #7FCEC8",
"K 	c #B600AD",
"L 	c #E300D2",
"M 	c #DF008B",
"N 	c #DA00A6",
"O 	c #DD01CE",
"P 	c #E100D8",
"Q 	c #E600EA",
"R 	c #D500CB",
"S 	c #DE00D1",
"T 	c #6AD8D2",
"U 	c #BAF3EF",
"V 	c #E7FEFD",
"W 	c #CFFFFC",
"X 	c #BFFEFA",
"Y 	c #B6FFFA",
"Z 	c #B9FFFA",
"` 	c #DDF5F6",
" .	c #8BDFD6",
"..	c #33B4A5",
"+.	c #B00087",
"@.	c #D400C1",
"#.	c #EB00E0",
"$.	c #F000F1",
"%.	c #DF02BD",
"&.	c #DA02B1",
"*.	c #DA029B",
"=.	c #DD029C",
"-.	c #DB02A8",
";.	c #E200AF",
">.	c #C80193",
",.	c #49ADAA",
"'.	c #A2F5F2",
").	c #E3FBF9",
"!.	c #E4FFFD",
"~.	c #D5FFFC",
"{.	c #E6FDFC",
"].	c #67DDDD",
"^.	c #33E0DB",
"/.	c #B9008E",
"(.	c #D700C5",
"_.	c #E300CD",
":.	c #E203A7",
"<.	c #E201AB",
"[.	c #E300A5",
"}.	c #E3019E",
"|.	c #E10093",
"1.	c #E10092",
"2.	c #D1039A",
"3.	c #E501C4",
"4.	c #EC00D5",
"5.	c #E701DB",
"6.	c #3CBAAD",
"7.	c #82D0CB",
"8.	c #E5F6F5",
"9.	c #BEFFFB",
"0.	c #DDFCFA",
"a.	c #E6F7F6",
"b.	c #C2EEEF",
"c.	c #36CDC0",
"d.	c #A1007D",
"e.	c #DC00BA",
"f.	c #DF00E4",
"g.	c #E800B0",
"h.	c #EE00A8",
"i.	c #EE00AA",
"j.	c #F10092",
"k.	c #E80297",
"l.	c #F0005F",
"m.	c #EF004D",
"n.	c #DE0074",
"o.	c #E70094",
"p.	c #EE00D9",
"q.	c #E202CE",
"r.	c #8C1B99",
"s.	c #61BEB3",
"t.	c #61B0AA",
"u.	c #80C4C1",
"v.	c #C9F4F2",
"w.	c #BAEFED",
"x.	c #62E0DA",
"y.	c #55DFE0",
"z.	c #E100B9",
"A.	c #E300B3",
"B.	c #DD03A4",
"C.	c #EC00A6",
"D.	c #E9009F",
"E.	c #DF00BC",
"F.	c #F6007C",
"G.	c #F40079",
"H.	c #ED007C",
"I.	c #ED0053",
"J.	c #F00046",
"K.	c #E8005C",
"L.	c #DE00A4",
"M.	c #F600E3",
"N.	c #DA00AB",
"O.	c #940077",
"P.	c #5F1D76",
"Q.	c #4ED3CB",
"R.	c #8DEDE5",
"S.	c #5CE1D8",
"T.	c #AE01A6",
"U.	c #E301D9",
"V.	c #DA03B4",
"W.	c #E1029A",
"X.	c #DE00B1",
"Y.	c #D900C1",
"Z.	c #DF00B1",
"`.	c #F90079",
" +	c #F1006E",
".+	c #E9006B",
"++	c #E7006A",
"@+	c #F00047",
"#+	c #F10045",
"$+	c #D50183",
"%+	c #DD00C7",
"&+	c #D300C6",
"*+	c #950088",
"=+	c #82007D",
"-+	c #8F0088",
";+	c #8F048A",
">+	c #C100CB",
",+	c #8B0190",
"'+	c #DC02D3",
")+	c #E800F3",
"!+	c #DC0290",
"~+	c #EE00A7",
"{+	c #D900D7",
"]+	c #E900D0",
"^+	c #F4008D",
"/+	c #F0007C",
"(+	c #E80064",
"_+	c #E70086",
":+	c #F40046",
"<+	c #F40042",
"[+	c #E00074",
"}+	c #C50190",
"|+	c #E200BF",
"1+	c #BA00AD",
"2+	c #8E0075",
"3+	c #890084",
"4+	c #91008A",
"5+	c #CE00E1",
"6+	c #BA00C5",
"7+	c #AB0062",
"8+	c #CF02A6",
"9+	c #E60098",
"0+	c #E60074",
"a+	c #DD00D4",
"b+	c #E500DB",
"c+	c #F300BF",
"d+	c #EE0063",
"e+	c #F70082",
"f+	c #E10095",
"g+	c #C7009E",
"h+	c #ED009E",
"i+	c #EC00A2",
"j+	c #E40045",
"k+	c #EA0146",
"l+	c #E30056",
"m+	c #E30090",
"n+	c #F400A8",
"o+	c #EE00CE",
"p+	c #9F007F",
"q+	c #8D0085",
"r+	c #910393",
"s+	c #98069B",
"t+	c #610365",
"u+	c #B40098",
"v+	c #CD01BA",
"w+	c #E80093",
"x+	c #EC0099",
"y+	c #E000C4",
"z+	c #E501AD",
"A+	c #E8006C",
"B+	c #F10144",
"C+	c #F700B1",
"D+	c #DC00B0",
"E+	c #A4008D",
"F+	c #B10089",
"G+	c #F000DC",
"H+	c #ED0089",
"I+	c #E5003C",
"J+	c #EE0044",
"K+	c #F4005B",
"L+	c #F30072",
"M+	c #F600DB",
"N+	c #E9008F",
"O+	c #940079",
"P+	c #8C0083",
"Q+	c #B600C2",
"R+	c #8A0493",
"S+	c #C102BA",
"T+	c #DF00E2",
"U+	c #DC0099",
"V+	c #F000AB",
"W+	c #E20163",
"X+	c #E80154",
"Y+	c #EC0043",
"Z+	c #EB0146",
"`+	c #DE007D",
" @	c #D801B1",
".@	c #97008C",
"+@	c #91018C",
"@@	c #DD00C9",
"#@	c #CA00B2",
"$@	c #EC0078",
"%@	c #ED004E",
"&@	c #DB027E",
"*@	c #E900B9",
"=@	c #E400C0",
"-@	c #E700B0",
";@	c #BB0081",
">@	c #990194",
",@	c #98009F",
"'@	c #B101BF",
")@	c #CC02C8",
"!@	c #D700DB",
"~@	c #DD00A6",
"{@	c #F300CD",
"]@	c #DA016A",
"^@	c #E4014A",
"/@	c #E40145",
"(@	c #D2036B",
"_@	c #C70293",
":@	c #CF019E",
"<@	c #A80285",
"[@	c #9B009A",
"}@	c #A20298",
"|@	c #AE0499",
"1@	c #E20068",
"2@	c #E50053",
"3@	c #C504A6",
"4@	c #C600B7",
"5@	c #DB00AC",
"6@	c #EC00A3",
"7@	c #BC005B",
"8@	c #92056D",
"9@	c #BE00D0",
"0@	c #A501B0",
"a@	c #C203BD",
"b@	c #D000C1",
"c@	c #E500C9",
"d@	c #F000CF",
"e@	c #CF0076",
"f@	c #E00141",
"g@	c #DC0246",
"h@	c #C2027C",
"i@	c #BE01AC",
"j@	c #B70399",
"k@	c #A5019E",
"l@	c #98009D",
"m@	c #A300A2",
"n@	c #B202A0",
"o@	c #D8005A",
"p@	c #E9004C",
"q@	c #A6078A",
"r@	c #C10097",
"s@	c #BC00A4",
"t@	c #D70089",
"u@	c #AE046F",
"v@	c #880770",
"w@	c #C900DE",
"x@	c #BB00BC",
"y@	c #BF03C1",
"z@	c #E500D1",
"A@	c #E000C7",
"B@	c #DF00DF",
"C@	c #D10092",
"D@	c #E0003B",
"E@	c #D40346",
"F@	c #C601A7",
"G@	c #C101AB",
"H@	c #A6029D",
"I@	c #950096",
"J@	c #98008E",
"K@	c #B00391",
"L@	c #B7028C",
"M@	c #F10056",
"N@	c #E0005B",
"O@	c #AA0691",
"P@	c #B400A6",
"Q@	c #AC0093",
"R@	c #D20053",
"S@	c #C20252",
"T@	c #B10487",
"U@	c #BB00C8",
"V@	c #990191",
"W@	c #920387",
"X@	c #C800AE",
"Y@	c #DD00D1",
"Z@	c #DC00CB",
"`@	c #D10067",
" #	c #E1003F",
".#	c #EA006D",
"+#	c #C6028C",
"@#	c #C3028B",
"##	c #9D0092",
"$#	c #960097",
"%#	c #AA028C",
"&#	c #D201AF",
"*#	c #CD0386",
"=#	c #F30057",
"-#	c #BD017C",
";#	c #9B0293",
">#	c #A00095",
",#	c #B5028A",
"'#	c #AD0243",
")#	c #A20268",
"!#	c #AA0596",
"~#	c #D700ED",
"{#	c #AF00C1",
"]#	c #7E0264",
"^#	c #BC02A0",
"/#	c #E100D1",
"(#	c #DF00D5",
"_#	c #D300BB",
":#	c #D70040",
"<#	c #DB006C",
"[#	c #B80384",
"}#	c #AC0187",
"|#	c #85008A",
"1#	c #99008D",
"2#	c #C70398",
"3#	c #EC00A4",
"4#	c #D7017D",
"5#	c #BB037A",
"6#	c #B706AD",
"7#	c #970093",
"8#	c #A9009F",
"9#	c #AC0376",
"0#	c #C50046",
"a#	c #A1037D",
"b#	c #B401C3",
"c#	c #BA00CD",
"d#	c #8C009A",
"e#	c #AB0487",
"f#	c #E200C5",
"g#	c #EF00CE",
"h#	c #E500CC",
"i#	c #DF0074",
"j#	c #C30183",
"k#	c #BD0395",
"l#	c #840179",
"m#	c #7C0083",
"n#	c #AE0087",
"o#	c #B6048D",
"p#	c #CB018E",
"q#	c #B9019F",
"r#	c #C100AF",
"s#	c #AF009E",
"t#	c #930089",
"u#	c #B10196",
"v#	c #D9003B",
"w#	c #CF0057",
"x#	c #C90194",
"y#	c #D600B2",
"z#	c #B0009F",
"A#	c #850264",
"B#	c #B4018E",
"C#	c #E600A5",
"D#	c #EA00BF",
"E#	c #E101B3",
"F#	c #C70197",
"G#	c #C0038D",
"H#	c #7F0076",
"I#	c #73006F",
"J#	c #AE0187",
"K#	c #B8048A",
"L#	c #A80395",
"M#	c #9F00A6",
"N#	c #910092",
"O#	c #8C008F",
"P#	c #BD0190",
"Q#	c #C3017F",
"R#	c #CF004C",
"S#	c #C50084",
"T#	c #D8008C",
"U#	c #DB009D",
"V#	c #960089",
"W#	c #A904AB",
"X#	c #C100B8",
"Y#	c #BF00A0",
"Z#	c #DE00A6",
"`#	c #C80086",
" $	c #840079",
".$	c #760077",
"+$	c #840081",
"@$	c #AA00A9",
"#$	c #8F0092",
"$$	c #860087",
"%$	c #8B0089",
"&$	c #A50098",
"*$	c #E50079",
"=$	c #C10054",
"-$	c #C0009C",
";$	c #BE00B1",
">$	c #CD008D",
",$	c #91054B",
"'$	c #6D0172",
")$	c #94009D",
"!$	c #8B008B",
"~$	c #8E0084",
"{$	c #B80097",
"]$	c #AF0093",
"^$	c #6D0074",
"/$	c #64006B",
"($	c #6B006F",
"_$	c #890083",
":$	c #B000A5",
"<$	c #CD00A4",
"[$	c #BA0076",
"}$	c #AA0078",
"|$	c #CB006D",
"1$	c #CA009B",
"2$	c #C100B4",
"3$	c #A90082",
"4$	c #6B0173",
"5$	c #8B0095",
"6$	c #690071",
"7$	c #6B0069",
"8$	c #7E0079",
"9$	c #7E007D",
"0$	c #710071",
"a$	c #880075",
"b$	c #CB00AC",
"c$	c #E200AB",
"d$	c #D800B6",
"e$	c #C8009D",
"f$	c #CB009D",
"g$	c #D600AA",
"h$	c #DD00A7",
"i$	c #D500AD",
"j$	c #A50381",
"k$	c #7C0085",
"l$	c #9A03A5",
"m$	c #840074",
"n$	c #820078",
"o$	c #7B0071",
"p$	c #93006E",
"q$	c #9E007D",
"r$	c #DB00AD",
"s$	c #CE00A5",
"t$	c #C2009D",
"u$	c #C6009E",
"v$	c #D200AA",
"w$	c #BE0098",
"x$	c #CF006D",
"y$	c #98064D",
"z$	c #82026D",
"A$	c #B10090",
"B$	c #BE009F",
"C$	c #C500A2",
"D$	c #D100BB",
"E$	c #D200C4",
"F$	c #CB00BB",
"G$	c #C1009C",
"H$	c #CD009E",
"I$	c #B5007E",
"J$	c #A50087",
"K$	c #7C025F",
"L$	c #83006D",
"M$	c #C000A2",
"N$	c #C700AA",
"O$	c #DC00D1",
"P$	c #DB00D1",
"Q$	c #DA00BF",
"R$	c #A0006E",
"                                                                ",
"                                        . + @ # $ %             ",
"                                    & * = - ; > , ' )           ",
"                                    ! ~ { ] ^ / ( _ : <         ",
"                                  [ } | / 1 2 3 4 5 6 7         ",
"                                  8 9 0 a b c d e f g h i       ",
"                                  j k l ( m n o p q r s t       ",
"                    u v w x y z A B C 0 D > E F F G H I J       ",
"                K L M N O P Q R S T U V W / X Y Z ] `  ...      ",
"            +.@.#.$.%.&.*.=.-.;.>.,.'.).!.~.b ] 1 {.].^.        ",
"          /.(._.:.<.[.}.|.1.2.3.4.5.6.7.8.W 9.0.a.b.c.          ",
"        d.e.f.g.h.i.j.k.l.m.n.o.p.q.r.s.t.u.v.w.x.y.            ",
"        z.A.B.C.D.E.F.G.H.I.J.K.L.M.N.O.P.Q.R.S.                ",
"      T.U.V.W.X.Y.Z.`. +.+++@+#+$+%+&+*+=+-+;+>+,+              ",
"      '+)+!+~+{+]+^+ +/+(+_+:+<+[+}+|+1+2+3+4+5+6+              ",
"    7+8+9+0+a+b+c+d+e+f+g+h+i+j+k+l+m+n+o+p+q+r+s+t+            ",
"    u+v+w+x+y+z+A+B+C+D+E+F+G+H+I+J+K+L+M+N+O+P+Q+R+            ",
"    S+T+U+V+W+X+Y+Z+`+ @.@+@@@#@$@%@&@*@=@-@;@>@,@'@            ",
"    )@!@~@{@]@^@/@(@_@:@<@[@}@|@1@2@3@4@5@6@7@8@9@0@            ",
"    a@b@c@d@e@f@g@h@i@j@k@l@m@n@o@p@q@r@s@t@u@v@w@x@            ",
"    y@z@A@B@C@D@E@F@G@H@I@J@K@L@M@N@O@P@Q@R@S@T@U@V@            ",
"    W@X@Y@Z@`@ #.#+#@###$#%#&#*#=#-#;#>#,#'#)#!#~#{#            ",
"    ]#^#/#(#_#:#<#[#}#|#1#2#3#4#5#6#7#8#9#0#a#b#c#d#            ",
"      e#f#g#h#i#j#k#l#m#n#o#p#q#r#s#t#u#v#w#x#y#z#              ",
"      A#B#C#D#E#F#G#H#I#J#K#L#M#N#O#P#Q#R#S#T#U#V#              ",
"        W#X#Y#Z#6@`# $.$+$@$#$$$%$&$*$=$-$;$>$,$                ",
"        '$)$!$~${$]$.@^$/$($_$:$<$[$}$|$1$2$3$                  ",
"          4$5$6$7$8$9$0$a$b$c$d$e$f$g$h$i$j$                    ",
"            k$l$m$n$o$p$q$r$s$t$u$v$w$x$y$                      ",
"                z$A$B$C$D$E$F$G$H$I$J$K$                        ",
"                    L$M$N$O$P$Q$R$                              ",
"                                                                "};
