/* XPM */
static char * system21_xpm[] = {
"32 32 238 2",
"  	c None",
". 	c #FF9801",
"+ 	c #FF8D02",
"@ 	c #FF8403",
"# 	c #FF8303",
"$ 	c #FF8802",
"% 	c #FF8902",
"& 	c #FF9700",
"* 	c #FFB300",
"= 	c #FFD100",
"- 	c #FFA502",
"; 	c #FFA603",
"> 	c #FF9F02",
", 	c #FF9C00",
"' 	c #FF9800",
") 	c #FF9400",
"! 	c #FF8E00",
"~ 	c #FF8100",
"{ 	c #FF8200",
"] 	c #FF9100",
"^ 	c #FFA601",
"/ 	c #FFB201",
"( 	c #FF8F01",
"_ 	c #FF8B01",
": 	c #FF7C03",
"< 	c #FF9C02",
"[ 	c #FFA801",
"} 	c #FFA401",
"| 	c #FF9E00",
"1 	c #FF9F00",
"2 	c #FFA800",
"3 	c #FFAF00",
"4 	c #FFBD00",
"5 	c #FFC800",
"6 	c #FF8300",
"7 	c #FF8C00",
"8 	c #FFAD00",
"9 	c #FF7400",
"0 	c #FF8002",
"a 	c #FFB200",
"b 	c #FFA400",
"c 	c #FFAB00",
"d 	c #FFBC00",
"e 	c #FFCD00",
"f 	c #FFDC00",
"g 	c #FFE800",
"h 	c #FFDF00",
"i 	c #FFA100",
"j 	c #FF9F01",
"k 	c #FFB000",
"l 	c #FF7100",
"m 	c #FF7500",
"n 	c #FF8A00",
"o 	c #FFA500",
"p 	c #FF9200",
"q 	c #FFA600",
"r 	c #FFA000",
"s 	c #FFB900",
"t 	c #FFC200",
"u 	c #FFDB00",
"v 	c #FFE000",
"w 	c #FFEA00",
"x 	c #FFDA01",
"y 	c #FFBE02",
"z 	c #FFBA01",
"A 	c #FF7300",
"B 	c #FF7B00",
"C 	c #FFAE00",
"D 	c #FFDE00",
"E 	c #FFD600",
"F 	c #FFED00",
"G 	c #FF8701",
"H 	c #FF9301",
"I 	c #FF9B00",
"J 	c #FF9D00",
"K 	c #FFD700",
"L 	c #FFD601",
"M 	c #FFCD02",
"N 	c #FFAA01",
"O 	c #FF8400",
"P 	c #FFA900",
"Q 	c #FF7302",
"R 	c #FF7201",
"S 	c #FFBB00",
"T 	c #FF7800",
"U 	c #FFAA00",
"V 	c #FFE900",
"W 	c #FF9600",
"X 	c #FFB500",
"Y 	c #FFCA00",
"Z 	c #FFC700",
"` 	c #FFB100",
" .	c #FF7E00",
"..	c #FF7D00",
"+.	c #FF9A00",
"@.	c #FFC500",
"#.	c #FF9500",
"$.	c #FFB001",
"%.	c #FFB301",
"&.	c #FFB600",
"*.	c #FFB800",
"=.	c #FFC400",
"-.	c #FFD400",
";.	c #FFB701",
">.	c #FF9A01",
",.	c #FFA200",
"'.	c #FFC501",
").	c #FFBD01",
"!.	c #FFC701",
"~.	c #FFE501",
"{.	c #FF7600",
"].	c #FF7801",
"^.	c #FF9101",
"/.	c #FFA101",
"(.	c #FFBA00",
"_.	c #FFE100",
":.	c #FFCC00",
"<.	c #FFC602",
"[.	c #FF9000",
"}.	c #FFB601",
"|.	c #FFAE02",
"1.	c #FFAA02",
"2.	c #FFB902",
"3.	c #FFC102",
"4.	c #FFAF01",
"5.	c #FFED02",
"6.	c #FF8500",
"7.	c #FFD500",
"8.	c #FF8900",
"9.	c #FF8800",
"0.	c #FF8600",
"a.	c #FF8E01",
"b.	c #FFA901",
"c.	c #FFAB01",
"d.	c #FF9D01",
"e.	c #FFBE01",
"f.	c #FFEB00",
"g.	c #FF8700",
"h.	c #FE7800",
"i.	c #FF7900",
"j.	c #FF8000",
"k.	c #FF9001",
"l.	c #FF9502",
"m.	c #FFA602",
"n.	c #FFEC00",
"o.	c #FF9900",
"p.	c #FFE001",
"q.	c #FFB801",
"r.	c #E26400",
"s.	c #FF8D00",
"t.	c #FF8801",
"u.	c #FFAE01",
"v.	c #FFD900",
"w.	c #E06400",
"x.	c #FF9C01",
"y.	c #FF9701",
"z.	c #FFA300",
"A.	c #FFD101",
"B.	c #FF8B00",
"C.	c #F87300",
"D.	c #FFB203",
"E.	c #FFB703",
"F.	c #FF9601",
"G.	c #FF7A00",
"H.	c #FFBE00",
"I.	c #FFE500",
"J.	c #FFAC00",
"K.	c #FFCF01",
"L.	c #FFA902",
"M.	c #FFCB00",
"N.	c #FFA702",
"O.	c #FFC300",
"P.	c #FFC202",
"Q.	c #FFA700",
"R.	c #FFE600",
"S.	c #FFD102",
"T.	c #FFBA02",
"U.	c #FFA301",
"V.	c #FF9202",
"W.	c #FF9603",
"X.	c #FFB400",
"Y.	c #FFD702",
"Z.	c #FFDF01",
"`.	c #FF7C00",
" +	c #FFB204",
".+	c #FF7F01",
"++	c #FFE400",
"@+	c #FF8B04",
"#+	c #FFB401",
"$+	c #FFE601",
"%+	c #FF9901",
"&+	c #FFB700",
"*+	c #FF9102",
"=+	c #FFD200",
"-+	c #FF8601",
";+	c #FF9504",
">+	c #FF9F06",
",+	c #FFA306",
"'+	c #FFA803",
")+	c #FFE002",
"!+	c #FFD800",
"~+	c #FFC600",
"{+	c #FFE200",
"]+	c #FF7F00",
"^+	c #FFCF00",
"/+	c #FFD203",
"(+	c #FFCF02",
"_+	c #FFC003",
":+	c #FFD201",
"<+	c #FFA402",
"[+	c #FF7601",
"}+	c #FF8501",
"|+	c #FFBB02",
"1+	c #FFE702",
"2+	c #FFEA02",
"3+	c #FFD003",
"4+	c #FFCB03",
"5+	c #FFCD01",
"6+	c #FF7C01",
"7+	c #FF9903",
"8+	c #FFB403",
"9+	c #FFB604",
"0+	c #FFA805",
"a+	c #FFB603",
"b+	c #FF7700",
"c+	c #FFAD01",
"d+	c #FF9300",
"e+	c #FF6E00",
"f+	c #FF7B01",
"g+	c #FF8702",
"h+	c #FF7B03",
"i+	c #FF6D00",
"j+	c #FF7000",
"k+	c #FF7301",
"l+	c #FF7602",
"m+	c #FF7804",
"n+	c #FF7403",
"o+	c #DA6403",
"                                                                ",
"                      . + @ # $ $ % & * =                       ",
"                  - ; > , ' ) ! ~ { ] ^ / ( _                   ",
"              : < [ } , & , | 1 2 3 4 5 4 6 7 1 8               ",
"            9 0 } a b ) ) ) , c d e f g h i j c k 2             ",
"          l m n a d o p q , r s t u u v w x y z a b c           ",
"        l A B , 3 C r | g D E F G H = I J K L M N O ' P         ",
"      Q R 9 O a S e T ) 2 U 2 P N [ V c ] W X Y Z ` J ,         ",
"      G  ...+.@.t 5 V #.r N $.%.&.*.p K P W o =.-.Y ;.I !       ",
"    >.] O 6 ,.Y '.).!.~.{.].0 ^./.(.a ] _.@.3 S :.= <.' ! [.    ",
"    b p { O +.*.}.|.1.2.3.4.$.M 5.} ` U +.6.E @.Y 7.@.' J U     ",
"  ) i p ~  .8.9.0.0.a.b.).c.. d.e.g _.f.[.I +.#.g.V Y / e K Z   ",
"  r q ,.] h.{.i...B T j.] k.l.m.z 4 4 e n.[.o.W O p.= q.4 d k   ",
"  ,.i ,.' { r.i.s.& ] { ~ ~ t.. u.J 1 k = W & ] ! 0.v.!.$.i +.  ",
"  I ' ,.b ] w.B x.4.N x.! O ~ 0.y.n W C = s.) ' z.i D A.N [.B.  ",
"  [.p 2 ` r C...< D.E.y b.F.0.G.~ g., H.I.9.o.J.* 1 v.K.q 9.{   ",
"  [.) q *.X { G._ L.M.E * N.F.{ _ & , X {.Z O.t 2 {.P.y +. .i.  ",
"  | o U 8 Q.n ..B s.* R.S.T.U.V.W., 5 6 8 M.@.X.p f 4.S 1 8.O   ",
"  C ` 3 C 8 i 6 G.0.q Y.t.n i.v Z.D B.C X r [.`.K X o s ,., 8   ",
"  X s * ` X d !  .O I  +.+1 q 1 I J * d o ++:.S c J I N 1 P Z   ",
"    *.* a (.5 c ] 8.[.@+#+$+a.%+p o &+k 9.(.r 1 1 %+) *+H Q.M.  ",
"    r Q.k X *.{.=+,.0.~ -+;+>+,+'+)+o.#.!+c W P P ) ) O j..+    ",
"      Z 7.~+{+`.D &+W 9.8.! d.b.& d ]+g.^+#.s.+., ] 9.G.T T     ",
"      /+(+S e M.g  .w b.U.I , o U ` ~+M.X ) g.p +.H ..9.{       ",
"        _+8 Q.r 7.s.' Z.:+e t s @.s d &+i ! 6 7 ) p O b l       ",
"        _+<+#.+.(.v ]+~ [+}+ .v.f 5 = t W ~ 6 O g.s.J H.        ",
"          _+c =.-.^+z L.|+1+2+3+F M.U p O O # [+B ) U           ",
"            _+4+5+t q 6+7+8+9+0+a+. 7 0.6+A T ].b+i.            ",
"                c+i d+e+f+-+g+0 }+ .G.f+h+A {.].                ",
"                  s.9.i+i+m T 9 j+9 k+l+m+{.b+                  ",
"                      i+i+..O ..R R Q n+o+                      ",
"                                                                "};
