/* XPM */
static char * system33_xpm[] = {
"32 32 95 2",
"  	c None",
". 	c #22041E",
"+ 	c #2A0425",
"@ 	c #160414",
"# 	c #1E041A",
"$ 	c #4E0444",
"% 	c #720463",
"& 	c #820471",
"* 	c #960482",
"= 	c #9A0486",
"- 	c #92047F",
"; 	c #260421",
"> 	c #520448",
", 	c #620456",
"' 	c #42043A",
") 	c #7A046A",
"! 	c #AE0497",
"~ 	c #B2049A",
"{ 	c #BA04A1",
"] 	c #5A044E",
"^ 	c #56044B",
"/ 	c #5A044F",
"( 	c #860475",
"_ 	c #BA04A2",
": 	c #C604AC",
"< 	c #8E047B",
"[ 	c #8A0478",
"} 	c #4A0441",
"| 	c #760467",
"1 	c #8E047C",
"2 	c #660459",
"3 	c #D604B9",
"4 	c #DA04BC",
"5 	c #3A0433",
"6 	c #6E0460",
"7 	c #32042C",
"8 	c #1A0417",
"9 	c #46043D",
"0 	c #A60490",
"a 	c #6A045C",
"b 	c #520447",
"c 	c #7E046E",
"d 	c #A2048D",
"e 	c #5E0452",
"f 	c #3E0436",
"g 	c #760466",
"h 	c #D204B6",
"i 	c #CE04B3",
"j 	c #CE04B2",
"k 	c #E204C3",
"l 	c #9E0489",
"m 	c #AE0496",
"n 	c #C204A8",
"o 	c #EE04CC",
"p 	c #F204CE",
"q 	c #D204B5",
"r 	c #E20CC0",
"s 	c #C204A7",
"t 	c #C604AB",
"u 	c #DE04BF",
"v 	c #F214CE",
"w 	c #F20CCA",
"x 	c #EE04CB",
"y 	c #EA04C8",
"z 	c #F21CCB",
"A 	c #F20CC9",
"B 	c #EE04C9",
"C 	c #AA0494",
"D 	c #B6049E",
"E 	c #CA04AF",
"F 	c #BE04A4",
"G 	c #F614CD",
"H 	c #F20CCC",
"I 	c #F204CB",
"J 	c #F214CB",
"K 	c #DE04C0",
"L 	c #B2049B",
"M 	c #DE04BD",
"N 	c #EE04CA",
"O 	c #D604B7",
"P 	c #D204B2",
"Q 	c #EA04C7",
"R 	c #E204C2",
"S 	c #BE04A5",
"T 	c #120410",
"U 	c #8E047A",
"V 	c #E604C6",
"W 	c #F204CD",
"X 	c #CE04B1",
"Y 	c #C204A9",
"Z 	c #D604BA",
"` 	c #9E048A",
" .	c #DA04BD",
"..	c #36042F",
"+.	c #0A0409",
"                                                                ",
"                                                                ",
"                                                                ",
"                                                                ",
"                                                                ",
"                                                                ",
"                              . + @                             ",
"                        # $ % & * = - % +                       ",
"                    ; > , ' ) * ! ~ - { ! ]                     ",
"                  > ^ $ / % ( _ : { < % [ ( }                   ",
"                $ ! | 1 2 - { { 3 4 ~ > + 5 6 7                 ",
"              8 ! 9 , ! 0 a b c d : ] / ^ 2 | }                 ",
"              e ( # % a ] . / ' f 5 7 9 a ] 7 6 >               ",
"              - & ( ! = 0 e [ 1 & g 9 . ^ } / [ |               ",
"            . h i j j k - l _ { [ m ' 9 % > * % ] 5             ",
"            5 n : o p o 3 q r r s ~ m q t < [ = ( $             ",
"            5 l u v w x 3 y w z A B u C D E 0 d 6 f             ",
"            . F B G w H y I G A J H y 4 4 K * 1 L +             ",
"              M I B J N O P Q R i i S D ) ! 9 a { T             ",
"              U V Q N W V m X ) d : E D e C [ [ )               ",
"                F R o 4 o y C e ( : _ L = C S / +               ",
"                9 S 4 K { : S - C D Y S E D n e                 ",
"                  ^ L h { C D D i h Z : E : *                   ",
"                    f ` Y S C _ : Z  .Z : )                     ",
"                      T 2 D S S i i Y - ..                      ",
"                            ; 5 f 7 +.                          ",
"                                                                ",
"                                                                ",
"                                                                ",
"                                                                ",
"                                                                ",
"                                                                "};
