/* XPM */
static char * system9_xpm[] = {
"32 32 138 2",
"  	c None",
". 	c #160604",
"+ 	c #2A0604",
"@ 	c #220604",
"# 	c #2A0A04",
"$ 	c #720A04",
"% 	c #920A04",
"& 	c #9A0A04",
"* 	c #960A04",
"= 	c #820A04",
"- 	c #720604",
"; 	c #4E0604",
"> 	c #1E0604",
", 	c #5A0A04",
"' 	c #AE0E04",
") 	c #BA0E04",
"! 	c #B20E04",
"~ 	c #7A0604",
"{ 	c #420604",
"] 	c #620604",
"^ 	c #520604",
"/ 	c #260604",
"( 	c #4A0604",
"_ 	c #860A04",
": 	c #8A0A04",
"< 	c #8E0A04",
"[ 	c #C61204",
"} 	c #BA0A04",
"| 	c #5A0604",
"1 	c #560604",
"2 	c #320604",
"3 	c #6E0604",
"4 	c #3A0604",
"5 	c #B21604",
"6 	c #DA1A04",
"7 	c #D61A04",
"8 	c #660A04",
"9 	c #8E0604",
"0 	c #760604",
"a 	c #AE0A04",
"b 	c #4E0A04",
"c 	c #A20A04",
"d 	c #7E0A04",
"e 	c #520A04",
"f 	c #6A0604",
"g 	c #A60A04",
"h 	c #460604",
"i 	c #1A0604",
"j 	c #6E0A04",
"k 	c #3E0604",
"l 	c #6A0A04",
"m 	c #5E0A04",
"n 	c #760E04",
"o 	c #8A0604",
"p 	c #5E0604",
"q 	c #9A0E04",
"r 	c #860604",
"s 	c #920604",
"t 	c #460A04",
"u 	c #AE1A04",
"v 	c #BA1204",
"w 	c #9E0A04",
"x 	c #920E04",
"y 	c #E21E04",
"z 	c #CE1604",
"A 	c #CE1204",
"B 	c #D20E04",
"C 	c #C61604",
"D 	c #D21E04",
"E 	c #AE1E04",
"F 	c #C22604",
"G 	c #E2660C",
"H 	c #D21A04",
"I 	c #EE3204",
"J 	c #F24604",
"K 	c #C60E04",
"L 	c #C20E04",
"M 	c #CA1204",
"N 	c #B60E04",
"O 	c #AA0A04",
"P 	c #DE2604",
"Q 	c #EE6204",
"R 	c #F2AA0C",
"S 	c #F2C21C",
"T 	c #F2A20C",
"U 	c #EA4204",
"V 	c #EE3E04",
"W 	c #F2960C",
"X 	c #F27614",
"Y 	c #B20A04",
"Z 	c #DE1A04",
"` 	c #DA1E04",
" .	c #EA3A04",
"..	c #F2820C",
"+.	c #F2A214",
"@.	c #F6BA14",
"#.	c #F27204",
"$.	c #EE5A04",
"%.	c #BE1604",
"&.	c #120604",
"*.	c #7A0E04",
"=.	c #BE0E04",
"-.	c #E22E04",
";.	c #EA5204",
">.	c #D24604",
",.	c #D63E04",
"'.	c #EE5604",
").	c #EE6604",
"!.	c #DE4604",
"~.	c #7A0A04",
"{.	c #AA0604",
"].	c #B60A04",
"^.	c #CA0E04",
"/.	c #C60A04",
"(.	c #A20604",
"_.	c #CE2604",
":.	c #AE1604",
"<.	c #E62204",
"[.	c #F25A04",
"}.	c #EA4604",
"|.	c #E62A04",
"1.	c #8E2604",
"2.	c #AA0E04",
"3.	c #EA3604",
"4.	c #EE3604",
"5.	c #E23204",
"6.	c #BE1E04",
"7.	c #BE0A04",
"8.	c #C20A04",
"9.	c #BE1204",
"0.	c #D60E04",
"a.	c #CE0A04",
"b.	c #D21604",
"c.	c #DA1204",
"d.	c #9E0604",
"e.	c #360604",
"f.	c #660604",
"g.	c #0A0604",
"                                                                ",
"                                                                ",
"                                                                ",
"                                                                ",
"                                                                ",
"                                                                ",
"                            . + @                               ",
"                      # $ % & * = - ; >                         ",
"                    , ' ) % ! ' * ~ { ] ^ /                     ",
"                  ( _ : - < ) [ } _ - | ; 1 ^                   ",
"                2 3 4 + ^ 5 6 7 ) ) % 8 9 0 a b                 ",
"                ( 0 8 1 | , [ c d e f g ' ] h a i               ",
"              ^ j 2 , f h 2 4 k { | @ , l $ > _ m               ",
"              0 : | ( 1 @ h n = 9 o p g q a r = s               ",
"            4 , $ * ^ - t { u : v } w x y z z A B @             ",
"            b r & : < C D E 5 F G G H 7 I J I K L 4             ",
"            k 3 c g M N O P Q R S T U 7 V W X P w 4             ",
"            + Y 9 * Z ` `  ...+.R @.#. ...W @.$.%.@             ",
"            &.) l t ' *.N =.A A -.;.>.,.'.+.).#.!.              ",
"              ~.o o {.m ].^./.(.~ _.:.<.[.'.}.|.1.              ",
"              # | =.O q Y } /.r p 2.3.I 6 4.5.6.                ",
"                m L ].^.7.8.].O % =.K v Z 6 9.h                 ",
"                  * K ^./.0.B a.].].{.) b.Y 1                   ",
"                    ~./.0.c.0./.} {.7.8.d.k                     ",
"                      e.% 8.a.a.7.7.].f.&.                      ",
"                          g.2 k 4 /                             ",
"                                                                ",
"                                                                ",
"                                                                ",
"                                                                ",
"                                                                ",
"                                                                "};
