/* XPM */
static char * system29_xpm[] = {
"32 32 154 2",
"  	c None",
". 	c #743C40",
"+ 	c #96A252",
"@ 	c #A69364",
"# 	c #A26266",
"$ 	c #783033",
"% 	c #844C50",
"& 	c #D4D6C6",
"* 	c #FFEFBF",
"= 	c #FADB88",
"- 	c #FFDB7B",
"; 	c #FFE597",
"> 	c #E1C885",
", 	c #6D7636",
"' 	c #C3AA6F",
") 	c #FFF0C3",
"! 	c #FFE9A7",
"~ 	c #FFE187",
"{ 	c #FFCE4B",
"] 	c #E4BF5A",
"^ 	c #EFCB6B",
"/ 	c #828850",
"( 	c #898E4E",
"_ 	c #848E4E",
": 	c #AC7478",
"< 	c #FFE8A3",
"[ 	c #FFD967",
"} 	c #C7A043",
"| 	c #B3913F",
"1 	c #D9B75D",
"2 	c #FFD76B",
"3 	c #FDCE51",
"4 	c #7A8242",
"5 	c #727840",
"6 	c #E3CC8F",
"7 	c #7A3A3F",
"8 	c #646C24",
"9 	c #E5D099",
"0 	c #D5BF89",
"a 	c #D7C493",
"b 	c #BBAA87",
"c 	c #FADE88",
"d 	c #FFDE7B",
"e 	c #818A4A",
"f 	c #A46C70",
"g 	c #B9A97D",
"h 	c #D5C9A9",
"i 	c #A3AC74",
"j 	c #8E9656",
"k 	c #59640C",
"l 	c #9C9F73",
"m 	c #C6CAAA",
"n 	c #EDE1C1",
"o 	c #FFF0BB",
"p 	c #F7EDD3",
"q 	c #EFDCAB",
"r 	c #C7B583",
"s 	c #B6868B",
"t 	c #8C9656",
"u 	c #B7A373",
"v 	c #B19F75",
"w 	c #778038",
"x 	c #4A0A0F",
"y 	c #C9CBAF",
"z 	c #93976B",
"A 	c #A18F65",
"B 	c #C5B079",
"C 	c #EFD48B",
"D 	c #6A7232",
"E 	c #CFBB8B",
"F 	c #404C00",
"G 	c #BABCA4",
"H 	c #C2C6A6",
"I 	c #B0888C",
"J 	c #9CA272",
"K 	c #985053",
"L 	c #9A3A3E",
"M 	c #9A5A5F",
"N 	c #717830",
"O 	c #B0686B",
"P 	c #5E0E12",
"Q 	c #646A3A",
"R 	c #B7B985",
"S 	c #939A6A",
"T 	c #DBCDA7",
"U 	c #FFD35B",
"V 	c #FFD667",
"W 	c #C59C39",
"X 	c #596018",
"Y 	c #687028",
"Z 	c #787E3E",
"` 	c #5A6616",
" .	c #3A2900",
"..	c #6C743C",
"+.	c #AAAB4F",
"@.	c #9E6E73",
"#.	c #7E844C",
"$.	c #CDB061",
"%.	c #838C44",
"&.	c #616820",
"*.	c #545C14",
"=.	c #7A8048",
"-.	c #707A2A",
";.	c #757A3A",
">.	c #3C0003",
",.	c #6A2A2F",
"'.	c #D3D5B1",
").	c #D1C9B5",
"!.	c #FFF5DB",
"~.	c #F5E9C9",
"{.	c #D7CDB3",
"].	c #848C54",
"^.	c #6E743C",
"/.	c #7B843C",
"(.	c #525E0E",
"_.	c #E8EADA",
":.	c #AEB292",
"<.	c #DDC891",
"[.	c #C3B58F",
"}.	c #FFFFFB",
"|.	c #FBF5E7",
"1.	c #9C6468",
"2.	c #767C34",
"3.	c #480003",
"4.	c #9C9E7E",
"5.	c #CE9EA2",
"6.	c #DDD1B1",
"7.	c #BFB59B",
"8.	c #EFE5CB",
"9.	c #FDFBF1",
"0.	c #FFEAB3",
"a.	c #CFBD8B",
"b.	c #949E5E",
"c.	c #DBD5C7",
"d.	c #F1E1B5",
"e.	c #622226",
"f.	c #D9D1BD",
"g.	c #FFF5D3",
"h.	c #F3DC9F",
"i.	c #E7CC83",
"j.	c #C7B383",
"k.	c #AAB46C",
"l.	c #556008",
"m.	c #E7DDC3",
"n.	c #F9F1DD",
"o.	c #E9D9AD",
"p.	c #EDD7A1",
"q.	c #747C34",
"r.	c #FFF8DF",
"s.	c #EBDDB7",
"t.	c #8F9850",
"u.	c #D8DACA",
"v.	c #3A4400",
"w.	c #465202",
"                                                                ",
"                                                                ",
"                                                                ",
"                                                                ",
"                                                                ",
"                                                                ",
"                                                                ",
"                          . + @ # $                             ",
"                      % & * = - ; ; > ,                         ",
"                    ' ) ! ~ { ] ^ + / ( _                       ",
"                  : < [ } | 1 2 3 , 4 5 6 7                     ",
"                8 9 0 > a b c d e f g h i j k                   ",
"                l g m n o 9 p q r s 4 t u v w                   ",
"              x y z A B C o o > r v D D t E @ F                 ",
"              $ G H I J [ ; > K L M e 8 N t O P                 ",
"              Q R m S T U V W w 8 X Y Z , N 4 `                 ",
"             ...+.@.#.D s < $.%.&.*.X =.@.-.;.` >.              ",
"              ,.'.l ).h t ).!.~.{.4 _ e ].^./.(.                ",
"              x _.:.m b 4 <.[.}.|.1.E > 1.I 2.3.                ",
"                4.& 5.6.7.8.9.0.a.b.v c.d.9 -.                  ",
"                e.~.f.6.!.d.g.h.i.j.u /.k.%.l.                  ",
"                  ].m m.6.p n.~.p o.> p.E q.                    ",
"                    i r.}.}.}.}.}.9.r.s.t.                      ",
"                      4 u.}.}.}.}.9.n %.                        ",
"                        v...J I J w w.                          ",
"                             .>.>.                              ",
"                                                                ",
"                                                                ",
"                                                                ",
"                                                                ",
"                                                                ",
"                                                                "};
