<?xml version="1.0" encoding="UTF-8" standalone="no"?>
<!-- Created with Inkscape (http://www.inkscape.org/) -->

<svg
   xmlns:dc="http://purl.org/dc/elements/1.1/"
   xmlns:cc="http://creativecommons.org/ns#"
   xmlns:rdf="http://www.w3.org/1999/02/22-rdf-syntax-ns#"
   xmlns:svg="http://www.w3.org/2000/svg"
   xmlns="http://www.w3.org/2000/svg"
   xmlns:sodipodi="http://sodipodi.sourceforge.net/DTD/sodipodi-0.dtd"
   xmlns:inkscape="http://www.inkscape.org/namespaces/inkscape"
   width="205.44719mm"
   height="24.222448mm"
   viewBox="0 0 205.44719 24.222448"
   version="1.1"
   id="svg8"
   inkscape:version="0.92.3 (2405546, 2018-03-11)"
   sodipodi:docname="gameground.svg">
  <defs
     id="defs2" />
  <sodipodi:namedview
     id="base"
     pagecolor="#ffffff"
     bordercolor="#666666"
     borderopacity="1.0"
     inkscape:pageopacity="0.0"
     inkscape:pageshadow="2"
     inkscape:zoom="0.98994949"
     inkscape:cx="358.72368"
     inkscape:cy="-237.96297"
     inkscape:document-units="mm"
     inkscape:current-layer="layer1"
     showgrid="false"
     inkscape:window-width="1600"
     inkscape:window-height="1171"
     inkscape:window-x="2560"
     inkscape:window-y="144"
     inkscape:window-maximized="1"
     fit-margin-top="0"
     fit-margin-left="0"
     fit-margin-right="0"
     fit-margin-bottom="0" />
  <metadata
     id="metadata5">
    <rdf:RDF>
      <cc:Work
         rdf:about="">
        <dc:format>image/svg+xml</dc:format>
        <dc:type
           rdf:resource="http://purl.org/dc/dcmitype/StillImage" />
        <dc:title></dc:title>
      </cc:Work>
    </rdf:RDF>
  </metadata>
  <g
     inkscape:label="Layer 1"
     inkscape:groupmode="layer"
     id="layer1"
     transform="translate(-2.2764063,-2.8375558)">
    <g
       aria-label="Game Ground"
       style="font-style:normal;font-variant:normal;font-weight:normal;font-stretch:normal;font-size:30.2854557px;line-height:125%;font-family:Wargames;-inkscape-font-specification:Wargames;letter-spacing:0px;word-spacing:0px;fill:#0000ff;fill-opacity:1;stroke:none;stroke-width:0.31547347px;stroke-linecap:butt;stroke-linejoin:miter;stroke-opacity:1"
       id="text3715">
      <path
         d="m 18.084586,27.060005 h -3.179381 v -3.149806 h 3.179381 z M 5.426212,18.645736 H 2.2764063 V 15.466354 H 5.426212 Z m 16.872903,5.264463 h -3.179382 v 3.149806 z M 5.426212,14.431207 H 2.2764063 V 11.251825 H 5.426212 Z m 0,-4.214529 H 2.2764063 V 7.0372967 H 5.426212 Z M 13.870057,5.9873614 H 10.690676 V 2.8375558 h 3.179381 z m 4.214529,0 H 14.905205 V 2.8375558 h 3.179381 z m 4.214529,4.2293166 H 19.119733 V 7.0372967 h 3.179382 z M 9.6407407,18.645736 H 6.490935 v -3.179382 h 3.1498057 z m 8.4438453,0 h -3.179381 v -3.179382 h 3.179381 z m 4.214529,4.19974 h -3.179382 v -3.149805 h 3.179382 z M 9.6407407,27.060005 H 6.490935 v -3.149806 h 3.1498057 z m 0,-4.214529 H 6.490935 v -3.149805 h 3.1498057 z m 12.6583743,1.064723 -3.179382,3.149806 z M 2.2764063,5.9873614 H 5.426212 V 2.8375558 Z m 0,0 L 5.426212,2.8375558 Z M 18.084586,19.695671 v 3.149805 h -3.179381 z m 0,0 -3.179381,3.149805 z M 22.299115,5.9873614 H 19.119733 V 2.8375558 Z m 0,0 -3.179382,-3.1498056 z m 0,12.6583746 h -3.179382 v -3.179382 z m 0,0 -3.179382,-3.179382 z M 5.426212,22.845476 H 2.2764063 V 19.695671 H 5.426212 Z M 2.2764063,23.910199 H 5.426212 v 3.149806 z m 0,0 3.1498057,3.149806 z m 11.5936507,3.149806 h -3.179381 v -3.149806 h 3.179381 z M 9.6407407,5.9873614 H 6.490935 V 2.8375558 h 3.1498057 z m 0,8.4438456 H 6.490935 v -3.179382 z m 0,0 -3.1498057,-3.179382 z"
         style="font-style:normal;font-variant:normal;font-weight:normal;font-stretch:normal;font-size:30.2854557px;font-family:Wargames;-inkscape-font-specification:Wargames;fill:#0000ff;stroke-width:0.31547347px"
         id="path298"
         inkscape:connector-curvature="0" />
      <path
         d="m 31.349262,14.431207 h -3.149806 v -3.179382 h 3.149806 z m -4.214529,4.214529 h -3.149806 v -3.179382 h 3.149806 z m 0,-7.393911 v 3.179382 h -3.149806 z m 0,0 -3.149806,3.179382 z m 12.658374,15.80818 h -3.179381 v -3.149806 h 3.179381 z m 0,-8.414269 h -3.179381 v -3.179382 h 3.179381 z m -8.443845,8.414269 h -3.149806 v -3.149806 h 3.149806 z m 8.443845,-12.628798 h -3.179381 v -3.179382 h 3.179381 z m -12.658374,8.414269 h -3.149806 v -3.149805 h 3.149806 z m 8.443845,1.064723 h -3.179381 v 3.149806 z m 0,0 -3.179381,3.149806 z m 4.214529,-1.064723 h -3.179381 v -3.149805 h 3.179381 z m -12.658374,4.214529 v -3.149806 h -3.149806 z m 0,0 -3.149806,-3.149806 z m 4.214529,-4.214529 h -3.149806 v -3.149805 h 3.149806 z m 1.049935,-11.593651 v 3.179382 h 3.179381 z m 0,0 3.179381,3.179382 z"
         style="font-style:normal;font-variant:normal;font-weight:normal;font-stretch:normal;font-size:30.2854557px;font-family:Wargames;-inkscape-font-specification:Wargames;fill:#0000ff;stroke-width:0.31547347px"
         id="path300"
         inkscape:connector-curvature="0" />
      <path
         d="m 49.686159,14.431207 h -3.149806 v -3.179382 h 3.149806 z m -4.214529,4.214529 h -3.149806 v -3.179382 h 3.149806 z m 0,-7.393911 v 3.179382 h -3.149806 z m 0,0 -3.149806,3.179382 z m 8.443845,15.80818 h -3.179381 v -3.149806 h 3.179381 z m 8.429058,-12.628798 h -3.179382 v -3.179382 h 3.179382 z M 45.47163,27.060005 h -3.149806 v -3.149806 h 3.149806 z m 0,-4.214529 h -3.149806 v -3.149805 h 3.149806 z m 12.658374,-7.379122 h -3.179382 v 3.179382 z m 0,0 -3.179382,3.179382 z m -4.214529,3.179382 h -3.179381 v -3.179382 h 3.179381 z m -4.229316,0 v -3.179382 h -3.149806 z m 0,0 -3.149806,-3.179382 z m 4.229316,4.19974 h -3.179381 v -3.149805 h 3.179381 z M 50.736094,11.251825 v 3.179382 h 3.179381 z m 0,0 3.179381,3.179382 z m 4.214528,3.179382 h 3.179382 v -3.179382 z m 0,0 3.179382,-3.179382 z m 7.393911,4.214529 h -3.179382 v -3.179382 h 3.179382 z m 0,4.19974 h -3.179382 v -3.149805 h 3.179382 z m 0,4.214529 h -3.179382 v -3.149806 h 3.179382 z"
         style="font-style:normal;font-variant:normal;font-weight:normal;font-stretch:normal;font-size:30.2854557px;font-family:Wargames;-inkscape-font-specification:Wargames;fill:#0000ff;stroke-width:0.31547347px"
         id="path302"
         inkscape:connector-curvature="0" />
      <path
         d="m 72.222795,14.431207 h -3.149806 v -3.179382 h 3.149806 z m -4.214529,4.214529 H 64.85846 v -3.179382 h 3.149806 z m 0,-7.393911 v 3.179382 H 64.85846 Z m 0,0 -3.149806,3.179382 z m 8.443845,15.80818 H 73.27273 v -3.149806 h 3.179381 z m 0,-8.414269 H 73.27273 v -3.179382 h 3.179381 z m -4.229316,8.414269 h -3.149806 v -3.149806 h 3.149806 z M 68.008266,22.845476 H 64.85846 v -3.149805 h 3.149806 z m 12.658374,1.064723 h -3.179381 v 3.149806 z m 0,0 -3.179381,3.149806 z M 76.452111,14.431207 H 73.27273 v -3.179382 h 3.179381 z M 68.008266,27.060005 V 23.910199 H 64.85846 Z m 0,0 -3.149806,-3.149806 z m 4.214529,-4.214529 h -3.149806 v -3.149805 h 3.149806 z m 5.264464,-11.593651 v 3.179382 h 3.179381 z m 0,0 3.179381,3.179382 z m -1.035148,8.443846 H 73.27273 v 3.149805 z m 0,0 -3.179381,3.149805 z m 4.214529,-4.229317 h -3.179381 v 3.179382 z m 0,0 -3.179381,3.179382 z"
         style="font-style:normal;font-variant:normal;font-weight:normal;font-stretch:normal;font-size:30.2854557px;font-family:Wargames;-inkscape-font-specification:Wargames;fill:#0000ff;stroke-width:0.31547347px"
         id="path304"
         inkscape:connector-curvature="0" />
      <path
         d="m 113.73221,27.060005 h -3.17938 v -3.149806 h 3.17938 z m -12.65838,-8.414269 h -3.149803 v -3.179382 h 3.149803 z m 16.87291,5.264463 h -3.17939 v 3.149806 z m -16.87291,-9.478992 h -3.149803 v -3.179382 h 3.149803 z m 0,-4.214529 H 97.924027 V 7.0372967 h 3.149803 z m 8.44385,-4.2293166 H 106.3383 V 2.8375558 h 3.17938 z m 4.21453,0 h -3.17938 V 2.8375558 h 3.17938 z m 4.21453,4.2293166 h -3.17939 V 7.0372967 h 3.17939 z m -12.65838,8.429058 h -3.1498 v -3.179382 h 3.1498 z m 8.44385,0 h -3.17938 v -3.179382 h 3.17938 z m 4.21453,4.19974 h -3.17939 v -3.149805 h 3.17939 z m -12.65838,4.214529 h -3.1498 v -3.149806 h 3.1498 z m 0,-4.214529 h -3.1498 v -3.149805 h 3.1498 z m 12.65838,1.064723 -3.17939,3.149806 z M 97.924027,5.9873614 h 3.149803 V 2.8375558 Z m 0,0 3.149803,-3.1498056 z M 113.73221,19.695671 v 3.149805 h -3.17938 z m 0,0 -3.17938,3.149805 z m 4.21453,-13.7083096 h -3.17939 V 2.8375558 Z m 0,0 -3.17939,-3.1498056 z m 0,12.6583746 h -3.17939 v -3.179382 z m 0,0 -3.17939,-3.179382 z m -16.87291,4.19974 h -3.149803 v -3.149805 h 3.149803 z m -3.149803,1.064723 h 3.149803 v 3.149806 z m 0,0 3.149803,3.149806 z m 11.593653,3.149806 h -3.17938 v -3.149806 h 3.17938 z M 105.28836,5.9873614 h -3.1498 V 2.8375558 h 3.1498 z m 0,8.4438456 h -3.1498 v -3.179382 z m 0,0 -3.1498,-3.179382 z"
         style="font-style:normal;font-variant:normal;font-weight:normal;font-stretch:normal;font-size:30.2854557px;font-family:Wargames;-inkscape-font-specification:Wargames;fill:#0000ff;stroke-width:0.31547347px"
         id="path306"
         inkscape:connector-curvature="0" />
      <path
         d="m 135.44073,14.431207 h -3.17939 v -3.179382 h 3.17939 z m -8.44385,4.214529 h -3.1498 v -3.179382 h 3.1498 z m 0,-4.214529 h -3.1498 v -3.179382 h 3.1498 z m 0,12.628798 h -3.1498 v -3.149806 h 3.1498 z m 0,-4.214529 h -3.1498 v -3.149805 h 3.1498 z m 4.22932,-4.19974 h -3.17938 v -3.179382 h 3.17938 z m -11.59365,4.19974 h 3.1498 v -3.149805 z m 0,0 3.1498,-3.149805 z M 131.2262,11.251825 v 3.179382 h -3.17938 z m 0,0 -3.17938,3.179382 z m -8.44385,15.80818 h -3.1498 v -3.149806 h 3.1498 z"
         style="font-style:normal;font-variant:normal;font-weight:normal;font-stretch:normal;font-size:30.2854557px;font-family:Wargames;-inkscape-font-specification:Wargames;fill:#0000ff;stroke-width:0.31547347px"
         id="path308"
         inkscape:connector-curvature="0" />
      <path
         d="m 144.44651,14.431207 h -3.1498 v -3.179382 h 3.1498 z m -4.21453,4.214529 h -3.1498 v -3.179382 h 3.1498 z m 0,-7.393911 v 3.179382 h -3.1498 z m 0,0 -3.1498,3.179382 z m 8.44385,15.80818 h -3.17938 v -3.149806 h 3.17938 z m 4.21453,-8.414269 h -3.17938 v -3.179382 h 3.17938 z m -8.44385,8.414269 h -3.1498 v -3.149806 h 3.1498 z m -4.21453,-4.214529 h -3.1498 v -3.149805 h 3.1498 z m 12.65838,1.064723 h -3.17938 v 3.149806 z m 0,0 -3.17938,3.149806 z m -4.21453,-9.478992 h -3.17938 v -3.179382 h 3.17938 z m -8.44385,12.628798 v -3.149806 h -3.1498 z m 0,0 -3.1498,-3.149806 z m 4.21453,-4.214529 h -3.1498 v -3.149805 h 3.1498 z m 5.26447,-11.593651 v 3.179382 h 3.17938 z m 0,0 3.17938,3.179382 z m 3.17938,11.593651 h -3.17938 v -3.149805 h 3.17938 z"
         style="font-style:normal;font-variant:normal;font-weight:normal;font-stretch:normal;font-size:30.2854557px;font-family:Wargames;-inkscape-font-specification:Wargames;fill:#0000ff;stroke-width:0.31547347px"
         id="path310"
         inkscape:connector-curvature="0" />
      <path
         d="m 158.45058,14.431207 h -3.14981 v -3.179382 h 3.14981 z m 0,4.214529 h -3.14981 v -3.179382 h 3.14981 z m 12.65837,8.414269 h -3.17938 v -3.149806 h 3.17938 z m 0,-8.414269 h -3.17938 v -3.179382 h 3.17938 z m -8.44384,8.414269 h -3.14981 v -3.149806 h 3.14981 z m 8.44384,-12.628798 h -3.17938 v -3.179382 h 3.17938 z m -12.65837,8.414269 h -3.14981 v -3.149805 h 3.14981 z m 8.44385,1.064723 h -3.17939 v 3.149806 z m 0,0 -3.17939,3.149806 z m 4.21452,-1.064723 h -3.17938 v -3.149805 h 3.17938 z m -12.65837,4.214529 v -3.149806 h -3.14981 z m 0,0 -3.14981,-3.149806 z m 4.21453,-4.214529 h -3.14981 v -3.149805 h 3.14981 z"
         style="font-style:normal;font-variant:normal;font-weight:normal;font-stretch:normal;font-size:30.2854557px;font-family:Wargames;-inkscape-font-specification:Wargames;fill:#0000ff;stroke-width:0.31547347px"
         id="path312"
         inkscape:connector-curvature="0" />
      <path
         d="m 185.23132,14.431207 h -3.17938 v -3.179382 h 3.17938 z m -4.22931,4.214529 h -3.14981 v -3.179382 h 3.14981 z m 0,-7.393911 v 3.179382 h -3.14981 z m 0,0 -3.14981,3.179382 z m -4.21453,15.80818 h -3.14981 v -3.149806 h 3.14981 z m 0,-8.414269 h -3.14981 v -3.179382 h 3.14981 z m 0,-4.214529 h -3.14981 v -3.179382 h 3.14981 z m 4.21453,8.414269 h -3.14981 v -3.149805 h 3.14981 z m 0,1.064723 h -3.14981 v 3.149806 z m 0,0 -3.14981,3.149806 z m -4.21453,-1.064723 h -3.14981 v -3.149805 h 3.14981 z m 12.65837,4.214529 h -3.17938 v -3.149806 h 3.17938 z m -3.17938,-15.80818 v 3.179382 h 3.17938 z m 0,0 3.17938,3.179382 z m 3.17938,7.393911 h -3.17938 v -3.179382 h 3.17938 z m 0,4.19974 h -3.17938 v -3.149805 h 3.17938 z"
         style="font-style:normal;font-variant:normal;font-weight:normal;font-stretch:normal;font-size:30.2854557px;font-family:Wargames;-inkscape-font-specification:Wargames;fill:#0000ff;stroke-width:0.31547347px"
         id="path314"
         inkscape:connector-curvature="0" />
      <path
         d="m 199.27975,14.431207 h -3.14981 v -3.179382 h 3.14981 z m -4.21453,4.214529 h -3.14981 v -3.179382 h 3.14981 z m 0,-7.393911 v 3.179382 h -3.14981 z m 0,0 -3.14981,3.179382 z m 12.65837,15.80818 h -3.17938 v -3.149806 h 3.17938 z m 0,-8.414269 h -3.17938 v -3.179382 h 3.17938 z m -8.44384,8.414269 h -3.14981 v -3.149806 h 3.14981 z m 8.44384,-12.628798 h -3.17938 v -3.179382 h 3.17938 z m -12.65837,8.414269 h -3.14981 v -3.149805 h 3.14981 z m 8.44384,1.064723 h -3.17938 v 3.149806 z m 0,0 -3.17938,3.149806 z m 4.21453,-1.064723 h -3.17938 v -3.149805 h 3.17938 z m -12.65837,4.214529 v -3.149806 h -3.14981 z m 0,0 -3.14981,-3.149806 z m 4.21453,-4.214529 h -3.14981 v -3.149805 h 3.14981 z m 1.04993,-11.593651 v 3.179382 h 3.17938 z m 0,0 3.17938,3.179382 z m 7.39391,-1.035147 h -3.17938 V 7.0372967 h 3.17938 z m 0,-4.2293166 h -3.17938 V 2.8375558 h 3.17938 z"
         style="font-style:normal;font-variant:normal;font-weight:normal;font-stretch:normal;font-size:30.2854557px;font-family:Wargames;-inkscape-font-specification:Wargames;fill:#0000ff;stroke-width:0.31547347px"
         id="path316"
         inkscape:connector-curvature="0" />
    </g>
  </g>
</svg>
